<?xml version="1.0" encoding="UTF-8"?>
<svg id="PIECES" xmlns="http://www.w3.org/2000/svg" viewBox="0 0 740.02 419.51">
  <defs>
    <style>
      .cls-1 {
        fill: #d75e33;
      }
    </style>
  </defs>
  <path class="cls-1" d="M501.38,348.44l-.04-.63h-.03s.04,.64,.04,.64h.03Zm.61-.92v-.03s-.68,.32-.68,.32v.03s.68-.32,.68-.32Zm-.61,.91l-.04-.63h-.03s.04,.64,.04,.64h.03Zm33.37-15.52c0-.2-.16-.36-.36-.36s-.36,.16-.36,.36,.16,.36,.36,.36,.36-.16,.36-.36Zm-.03,0c0,.18-.15,.33-.33,.33s-.33-.15-.33-.33,.15-.33,.33-.33,.33,.15,.33,.33Zm3.97-.08h-3.96v.16h3.96v-.16Zm-3.93,.03h3.9v.1h-3.9v-.1Zm6.02,17.12l-6.72-.24v.03s6.72,.24,6.72,.24v-.03Zm0-.32l-6.64-.26v.03s6.64,.26,6.64,.26v-.03Zm-6.63-.26v-.29s-.04,0-.04,0v.29s.04,0,.04,0Zm-.5,.59l-.05-.83h-.03s.05,.83,.05,.83h.03Zm.55-.24h-.03v.2h.03v-.2Zm-.02,.21c0-.08-.12-.14-.27-.14s-.27,.06-.27,.14,.12,.14,.27,.14,.27-.06,.27-.14Zm-.03,0c0,.05-.1,.1-.24,.1s-.24-.05-.24-.1,.1-.1,.24-.1,.24,.05,.24,.1Zm-.3-.71h0c.11,0,.21-.04,.25-.09l.02-.06c0-.07-.13-.12-.29-.11-.11,0-.21,.04-.25,.09l-.02,.06c0,.07,.11,.11,.25,.11h.04Zm.24-.15v.03s-.14,.07-.24,.08c-.15,0-.25-.03-.26-.08v-.03s.14-.07,.24-.08h.04c.13,0,.21,.04,.22,.08Zm-.24,.11l.17-.06v-.04c.01-.06-.09-.08-.18-.08l-.17,.06v.04s.15,.08,.15,.08h.03Zm.15-.1v.02s-.15,.05-.15,.05c-.1,0-.16-.02-.16-.05v-.02s.15-.05,.15-.05h.03s.14,.05,.14,.05Zm6.82,.72l-.05-.17-.05,.17,.05,.17,.05-.17Zm-.03,0l-.02,.13-.02-.13,.02-.13,.02,.13Zm23.63-.03h-.03v.94h.03v-.94Zm.19-.12h-.03v1.06h.03v-1.06Zm-.01-.87c-.27,0-.49,.19-.49,.43s.22,.43,.49,.43m0-.02c-.26,0-.47-.19-.47-.42s.21-.42,.47-.42v-.03c-.28,0-.5,.2-.5,.45s.23,.45,.5,.45v-.03Zm-.05-.97v-.03c-.33,0-.6,.26-.6,.58h.03c0-.31,.26-.55,.57-.55Zm0,1.11c-.31,0-.57-.25-.57-.57s.26-.57,.57-.57v-.03c-.33,0-.6,.27-.6,.6s.27,.6,.6,.6v-.03Zm.44-.55c0-.24-.2-.43-.44-.43m0-.02v.03c.24,0,.43,.19,.43,.42h.03c0-.25-.21-.45-.46-.45Zm0-.14v.03c.31,0,.57,.25,.57,.55h.03c0-.32-.27-.58-.6-.58Zm0-.02v.03c.31,0,.57,.25,.57,.55h.03c0-.32-.27-.58-.6-.58Zm.61,.6h-.17v.03h.17v-.03Zm-.66,1.53l.09-.02-.09-.02-.09,.02,.09,.02m.1-.02l-.1-.04-.1,.04,.1,.04,.1-.04Zm-.1,0h.06s-.06,.01-.06,.01h-.06s.06-.01,.06-.01Zm.08-.94h-.16v.11h.16v-.11Zm29.34-17.74h-2.9v.75h2.9v-.75Zm-2.87,.03h2.84v.69h-2.84v-.69Zm1.98,17.36l-2.97-1.43v.03s2.96,1.43,2.96,1.43v-.03Zm1.3-.64l-3.01-1.33v.03s2.99,1.33,2.99,1.33v-.03Zm.01,.04v-.03s-1.29,.63-1.29,.63v.03s1.29-.63,1.29-.63Zm-3.01-1.34v-.03s-1.26,.52-1.26,.52v.03s1.26-.52,1.26-.52Zm-1.16,1.75l-.07-1.24h-.03s.07,1.24,.07,1.24h.03Zm2.92,1.56v-1.35s-.04,0-.04,0v1.35s.04,0,.04,0Zm1.26-1.99h-.03s-.01,1.29-.01,1.29h.03s.01-1.29,.01-1.29Zm-.04,1.32l-.02-.03-1.21,.68,.02,.03,1.21-.68Zm-1.22,.65l-2.91-1.55v.03s2.9,1.55,2.9,1.55v-.03Zm28.67-18.88h-2.18v.75h2.18v-.75Zm-2.15,.03h2.12v.69h-2.12v-.69Zm.89,18.62l-1.7-2.13-.02,.02,1.7,2.13,.02-.02Zm0,.25l-1.7-2.18-.02,.02,1.7,2.18,.02-.02Zm-1.7-2.38h-.03v.21h.03v-.21Zm1.7,2.14h-.03v.25h.03v-.25Zm0,0h-.03v.19h.03v-.19Zm1.49-.41v-.03s-1.5,.41-1.5,.41v.03s1.5-.41,1.5-.41Zm0,.22v-.03s-1.5,.44-1.5,.44v.03s1.5-.44,1.5-.44Zm0-.24h-.03s0,.22,0,.22h.03s0-.22,0-.22Zm0-.01l-1.95-1.99-.02,.02,1.95,1.99,.02-.02Zm-1.96-1.96v-.03s-1.26,.27-1.26,.27v.03s1.26-.27,1.26-.27Zm28.01,2.7h-.03c0,.05-.09,.1-.21,.1s-.21-.05-.21-.1h-.03c0,.07,.1,.13,.24,.13s.24-.06,.24-.13Zm-.45-2.64h-.03v2.65h.03v-2.65Zm.45,0h-.03v2.64h.03v-2.64Zm0,0c0-.05-.12-.08-.24-.08s-.24,.03-.24,.08,.12,.08,.24,.08,.24-.03,.24-.08Zm-.03,0s-.07,.05-.21,.05-.21-.03-.21-.05,.07-.05,.21-.05,.21,.03,.21,.05Zm28.32-14.62c0-.21-.17-.39-.39-.39s-.39,.17-.39,.39,.17,.39,.39,.39,.39-.17,.39-.39Zm-.03,0c0,.2-.16,.36-.35,.36s-.35-.16-.35-.36,.16-.36,.35-.36,.35,.16,.35,.36Zm-.1,0c0-.14-.11-.25-.25-.25s-.25,.11-.25,.25,.11,.25,.25,.25,.25-.11,.25-.25Zm-.03,0c0,.12-.1,.22-.22,.22s-.22-.1-.22-.22,.1-.22,.22-.22,.22,.1,.22,.22Zm-27.84-.75c0-.14-.11-.25-.25-.25s-.25,.11-.25,.25,.11,.25,.25,.25,.25-.11,.25-.25Zm-.03,0c0,.12-.1,.22-.22,.22s-.22-.1-.22-.22,.1-.22,.22-.22,.22,.1,.22,.22Zm28.41,18.36h-.03c0,.21-.33,.38-.73,.38s-.73-.17-.73-.38h-.03c0,.23,.34,.41,.76,.41s.76-.18,.76-.41Zm-.76-.29c-.17,0-.34,.04-.34,.12h.03s.12-.09,.31-.09,.31,.05,.31,.09h.03c0-.08-.18-.12-.34-.12Zm.76,.03c0-.23-.34-.42-.76-.42s-.76,.19-.76,.42,.34,.42,.76,.42,.76-.19,.76-.42Zm-.03,0c0,.22-.33,.39-.73,.39s-.73-.18-.73-.39,.33-.39,.73-.39,.73,.18,.73,.39Zm-.33-.02c0-.13-.18-.23-.4-.23s-.4,.1-.4,.23,.18,.23,.4,.23,.4-.1,.4-.23Zm-.03,0c0,.11-.16,.19-.37,.19s-.37-.09-.37-.19,.17-.19,.37-.19,.37,.09,.37,.19Zm-1.1,.02h-.03v.26h.03v-.26Zm1.49,.26v-.24s-.04,0-.04,0v.24s.04,0,.04,0Zm-161.29-19.14h-14.38v.75h14.38v-.75Zm-14.35,.03h14.32v.69h-14.32v-.69Zm14.34-.06h-14.38v.75h14.38v-.75Zm-14.35,.03h14.32v.69h-14.32v-.69Zm64.75-.04h-.03v.71h.03v-.71Zm-.22-.06h-.03v.77h.03v-.77Zm.19-.82c-.24,0-.44,.2-.44,.45h.03c0-.23,.18-.42,.41-.42s.41,.19,.41,.42h.03c0-.25-.2-.45-.44-.45Zm.01,.87c-.24,0-.43-.19-.43-.43h-.03c0,.25,.2,.46,.46,.46v-.03Zm-.01-.7c-.15,0-.27,.13-.27,.28h.03c0-.14,.11-.25,.24-.25s.24,.11,.24,.25h.03c0-.15-.12-.28-.27-.28Zm0,.52l-.18-.07-.07-.17h-.03s.08,.2,.08,.2l.2,.08v-.03Zm-.44,.95h0s0,0,0,0h0Zm.03,.03v-.05h-.05v.06h.05Zm.45-.08h-.03l-.1,.06-.1-.06h-.03l.13,.09,.13-.09Zm.4-1.16h-.17v.03h.17v-.03Zm-.4,.28h-.03v.17h.03v-.17Zm-49.32,19.52l-15.11-3.61v.03s15.1,3.61,15.1,3.61v-.03Zm-.03,.76l-15.08-3.77v.03s15.07,3.77,15.07,3.77v-.03Zm-14.43-4.66v-.03s-.68,.32-.68,.32v.03s.68-.32,.68-.32Zm14.94,3.49l-.02-.02-.47,.45,.02,.02,.47-.45Zm-.03,.72l-.02-.02-.47,.49,.02,.02,.47-.49Zm-.43-.29h-.03s-.02,.77-.02,.77h.03s.02-.77,.02-.77Zm.47-.45h-.03s-.04,.74-.04,.74h.03s.04-.74,.04-.74Zm-.01,0l-14.94-3.49v.03s14.93,3.49,14.93,3.49v-.03Zm-7.5-1.55c0-.1-.39-.1-.39,0,0,.05,.1,.08,.19,.08s.19-.03,.19-.08Zm-.03,0s-.06,.04-.16,.04-.16-.03-.16-.04,.06-.04,.16-.04,.16,.03,.16,.04Zm-.84-.21c0-.1-.39-.1-.39,0,0,.05,.1,.08,.19,.08s.19-.03,.19-.08Zm-.03,0s-.06,.04-.16,.04-.16-.03-.16-.04,.06-.04,.16-.04,.16,.03,.16,.04Zm-.74-.2c0-.1-.39-.1-.39,0,0,.05,.1,.08,.19,.08s.19-.03,.19-.08Zm-.03,0s-.06,.04-.16,.04-.16-.03-.16-.04,.06-.04,.16-.04,.16,.03,.16,.04Zm2.54,.63c0-.1-.39-.1-.39,0,0,.05,.1,.08,.19,.08s.19-.03,.19-.08Zm-.03,0s-.06,.04-.16,.04-.16-.03-.16-.04,.06-.04,.16-.04,.16,.03,.16,.04Zm.92,.22c0-.1-.39-.1-.39,0,0,.05,.1,.08,.19,.08s.19-.03,.19-.08Zm-.03,0s-.06,.04-.16,.04-.16-.03-.16-.04,.06-.04,.16-.04,.16,.03,.16,.04Zm5.33,1.54l-15.11-3.61v.03s15.1,3.61,15.1,3.61v-.03Zm-.03,.76l-15.08-3.77v.03s15.07,3.77,15.07,3.77v-.03Zm.51-1.17l-.02-.02-.47,.45,.02,.02,.47-.45Zm-.03,.72l-.02-.02-.47,.49,.02,.02,.47-.49Zm-.43-.29h-.03s-.02,.77-.02,.77h.03s.02-.77,.02-.77Zm.47-.45h-.03s-.04,.74-.04,.74h.03s.04-.74,.04-.74Zm-.01,0l-14.94-3.49v.03s14.93,3.49,14.93,3.49v-.03Zm-244.86,2.98h-10.49v-2.92h10.49v2.92Zm-9.99-.5h9.49v-1.92h-9.49v1.92Zm6.71,58.92l-10.47-5.03-.05,.1,10.47,5.03,.05-.1Zm4.53-2.26l-10.58-4.67-.04,.1,10.58,4.67,.04-.1Zm0,.15l-.05-.1-4.5,2.2,.05,.1,4.5-2.2Zm-10.61-4.73l-.04-.1-4.4,1.83,.04,.1,4.4-1.83Zm-4.09,6.17l-.25-4.36h-.11s.25,4.37,.25,4.37h.11Zm10.28,5.5l-.02-4.76h-.11s.02,4.76,.02,4.76h.11Zm4.42-7.01h-.11s-.04,4.54-.04,4.54h.11s.04-4.54,.04-4.54Zm-.13,4.63l-.05-.1-4.26,2.39,.05,.1,4.26-2.39Zm-4.3,2.29l-10.26-5.45-.05,.1,10.26,5.45,.05-.1ZM158.81,57.34l-.13-2.2h-.11s.13,2.21,.13,2.21h.11ZM207.94,3.4h-50.83V.01h50.83V3.4Zm-49.83-1h48.83V1.01h-48.83v1.39Zm53.2,65.32l-52.6-12.56-.03,.11,52.6,12.56,.03-.11Zm-.12,2.65l-52.47-13.14-.03,.11,52.47,13.14,.03-.11Zm-50.26-16.22l-.05-.1-2.33,1.1,.05,.1,2.33-1.1Zm52.01,12.15l-.07-.08-1.63,1.55,.07,.08,1.63-1.55Zm-.12,2.49l-.08-.08-1.65,1.72,.08,.08,1.65-1.72Zm-1.5-1h-.11s-.08,2.66-.08,2.66h.11s.08-2.66,.08-2.66Zm1.64-1.57h-.11s-.13,2.58-.13,2.58h.11s.13-2.58,.13-2.58Zm-.05,0l-52-12.16-.02,.11,52,12.16,.02-.11Zm-54.08-8.88l-.13-2.2h-.11s.13,2.21,.13,2.21h.11ZM207.94,3.4h-50.83V.01h50.83V3.4Zm-49.83-1h48.83V1.01h-48.83v1.39Zm53.2,65.32l-52.6-12.56-.03,.11,52.6,12.56,.03-.11Zm-.12,2.65l-52.47-13.14-.03,.11,52.47,13.14,.03-.11Zm-50.26-16.22l-.05-.1-2.33,1.1,.05,.1,2.33-1.1Zm52.01,12.15l-.07-.08-1.63,1.55,.07,.08,1.63-1.55Zm-.12,2.49l-.08-.08-1.65,1.72,.08,.08,1.65-1.72Zm-1.5-1h-.11s-.08,2.66-.08,2.66h.11s.08-2.66,.08-2.66Zm1.64-1.57h-.11s-.13,2.58-.13,2.58h.11s.13-2.58,.13-2.58Zm-.05,0l-52-12.16-.02,.11,52,12.16,.02-.11Zm107.93,9.22c-.79,0-1.43-.64-1.43-1.43s.64-1.43,1.43-1.43,1.43,.64,1.43,1.43-.64,1.43-1.43,1.43Zm0-2.36c-.51,0-.93,.42-.93,.93s.42,.93,.93,.93,.93-.42,.93-.93-.42-.93-.93-.93Zm15.61,1.47h-14.64v-1.08h14.64v1.08Zm-14.14-.5h13.64v-.08h-13.64v.08Zm21.35,60.88l-23.98-.85v.11s23.97,.85,23.97,.85v-.11Zm0-1.14l-23.72-.93v.11s23.71,.93,23.71,.93v-.11Zm-23.65-.91l-.05-1.02h-.11s.05,1.03,.05,1.03h.11Zm-1.79,2.1l-.18-2.96h-.11s.18,2.97,.18,2.97h.11Zm1.98-.86h-.11v.72h.11v-.72Zm-1.04,1.26c-.56,0-.99-.21-.99-.5s.42-.5,.99-.5,.99,.21,.99,.5-.42,.5-.99,.5Zm0-.74c-.48,0-.74,.17-.74,.25s.26,.25,.74,.25,.74-.17,.74-.25-.26-.25-.74-.25Zm-.37-2.17c-.58,0-.98-.21-1.01-.51,0-.1,.03-.21,.11-.3,.17-.2,.54-.34,.97-.36,.65-.04,1.14,.17,1.16,.51,0,.1-.03,.21-.11,.3-.17,.2-.54,.34-.97,.36h-.16Zm.23-.92h-.14c-.35,.03-.68,.14-.8,.28l-.05,.11c.01,.15,.38,.31,.9,.28h0c.35-.02,.67-.14,.8-.28l.05-.11c0-.13-.3-.28-.76-.28Zm24.83,2.9c0-.1,0-.59-.18-.59s-.18,.49-.18,.59,0,.59,.18,.59,.18-.49,.18-.59Zm-.11,0c0,.25-.04,.41-.06,.46-.03-.06-.06-.22-.06-.46s.04-.41,.06-.46c.03,.06,.06,.22,.06,.46Zm-22.88-59.01c-.79,0-1.43-.64-1.43-1.43s.64-1.43,1.43-1.43,1.43,.64,1.43,1.43-.64,1.43-1.43,1.43Zm0-2.36c-.51,0-.93,.42-.93,.93s.42,.93,.93,.93,.93-.42,.93-.93-.42-.93-.93-.93Zm15.61,1.47h-14.64v-1.08h14.64v1.08Zm-14.14-.5h13.64v-.08h-13.64v.08Zm21.35,60.88l-23.98-.85v.11s23.97,.85,23.97,.85v-.11Zm0-1.14l-23.72-.93v.11s23.71,.93,23.71,.93v-.11Zm-23.65-.91l-.05-1.02h-.11s.05,1.03,.05,1.03h.11Zm-1.79,2.1l-.18-2.96h-.11s.18,2.97,.18,2.97h.11Zm1.98-.86h-.11v.72h.11v-.72Zm-1.04,1.26c-.56,0-.99-.21-.99-.5s.42-.5,.99-.5,.99,.21,.99,.5-.42,.5-.99,.5Zm0-.74c-.48,0-.74,.17-.74,.25s.26,.25,.74,.25,.74-.17,.74-.25-.26-.25-.74-.25Zm-.37-2.17c-.58,0-.98-.21-1.01-.51,0-.1,.03-.21,.11-.3,.17-.2,.54-.34,.97-.36,.65-.04,1.14,.17,1.16,.51,0,.1-.03,.21-.11,.3-.17,.2-.54,.34-.97,.36h-.16Zm.23-.92h-.14c-.35,.03-.68,.14-.8,.28l-.05,.11c.01,.15,.38,.31,.9,.28h0c.35-.02,.67-.14,.8-.28l.05-.11c0-.13-.3-.28-.76-.28Zm24.83,2.9c0-.1,0-.59-.18-.59s-.18,.49-.18,.59,0,.59,.18,.59,.18-.49,.18-.59Zm-.11,0c0,.25-.04,.41-.06,.46-.03-.06-.06-.22-.06-.46s.04-.41,.06-.46c.03,.06,.06,.22,.06,.46Zm19.28,155.38h-.11v3.25h.11v-3.25Zm.66-.41h-.11v3.67h.11v-3.67Zm-.05-.08c-.9,0-1.63-.65-1.63-1.44s.73-1.44,1.63-1.44v-.11c-.96,0-1.74,.7-1.74,1.55s.78,1.55,1.74,1.55v-.11Zm-.16-3.35v-.11c-1.15,0-2.08,.91-2.08,2.02h.11c0-1.06,.88-1.91,1.97-1.91Zm0,3.83c-1.09,0-1.97-.88-1.97-1.95s.88-1.95,1.97-1.95v-.11c-1.15,0-2.08,.93-2.08,2.06s.93,2.06,2.08,2.06v-.11Zm0-3.46v.1c.82,0,1.48,.65,1.48,1.45h.1c0-.85-.71-1.55-1.58-1.55Zm0-.49v.11c1.09,0,1.97,.86,1.97,1.91h.11c0-1.11-.93-2.02-2.08-2.02Zm0-.07v.11c1.09,0,1.97,.86,1.97,1.91h.11c0-1.11-.93-2.02-2.08-2.02Zm2.11,2.06h-.6v.11h.6v-.11Zm-2.29,5.29c.16,0,.3-.04,.3-.08s-.13-.08-.3-.08-.3,.04-.3,.08,.13,.08,.3,.08m.35-.08c0-.12-.27-.13-.35-.13s-.35,0-.35,.13,.27,.13,.35,.13,.35,0,.35-.13Zm-.35-.03c.1,0,.17,.01,.21,.03-.04,.01-.11,.03-.21,.03s-.17-.01-.21-.03c.04-.01,.11-.03,.21-.03Zm.29-3.25h-.57v.39h.57v-.39Zm2.12-61.33h-.11v2.45h.11v-2.45Zm-.77-.22h-.11v2.67h.11v-2.67Zm.67-2.84c-.84,0-1.53,.7-1.53,1.55h.11c0-.8,.64-1.44,1.42-1.44s1.42,.65,1.42,1.44h.11c0-.85-.69-1.55-1.53-1.55Zm.05,3c-.82,0-1.48-.67-1.47-1.48h-.11c0,.87,.7,1.58,1.58,1.59v-.11Zm-.05-2.42c-.52,0-.95,.43-.95,.97h.11c0-.47,.38-.86,.84-.86s.84,.39,.84,.86h.11c0-.53-.43-.97-.95-.97Zm0,1.81c-.23,0-.44-.09-.61-.25-.16-.16-.25-.37-.24-.6h-.11c0,.25,.09,.49,.28,.67,.18,.18,.42,.28,.68,.29v-.11Zm.1,3.12h-.11c0,.12-.15,.21-.33,.21s-.33-.1-.33-.21h-.11c0,.18,.19,.32,.44,.32s.44-.14,.44-.32Zm1.39-4.01h-.59v.11h.59v-.11Zm-1.39,.95h-.11v.59h.11v-.59ZM158.81,57.34l-.13-2.2h-.11s.13,2.21,.13,2.21h.11ZM207.94,3.4h-50.83V.01h50.83V3.4Zm-49.83-1h48.83V1.01h-48.83v1.39Zm53.2,65.32l-52.6-12.56-.03,.11,52.6,12.56,.03-.11Zm-.12,2.65l-52.47-13.14-.03,.11,52.47,13.14,.03-.11Zm-50.26-16.22l-.05-.1-2.33,1.1,.05,.1,2.33-1.1Zm52.01,12.15l-.07-.08-1.63,1.55,.07,.08,1.63-1.55Zm-.12,2.49l-.08-.08-1.65,1.72,.08,.08,1.65-1.72Zm-1.5-1h-.11s-.08,2.66-.08,2.66h.11s.08-2.66,.08-2.66Zm1.64-1.57h-.11s-.13,2.58-.13,2.58h.11s.13-2.58,.13-2.58Zm-.05,0l-52-12.16-.02,.11,52,12.16,.02-.11Zm107.93,9.22c-.79,0-1.43-.64-1.43-1.43s.64-1.43,1.43-1.43,1.43,.64,1.43,1.43-.64,1.43-1.43,1.43Zm0-2.36c-.51,0-.93,.42-.93,.93s.42,.93,.93,.93,.93-.42,.93-.93-.42-.93-.93-.93Zm15.61,1.47h-14.64v-1.08h14.64v1.08Zm-14.14-.5h13.64v-.08h-13.64v.08Zm21.35,60.88l-23.98-.85v.11s23.97,.85,23.97,.85v-.11Zm0-1.14l-23.72-.93v.11s23.71,.93,23.71,.93v-.11Zm-23.65-.91l-.05-1.02h-.11s.05,1.03,.05,1.03h.11Zm-1.79,2.1l-.18-2.96h-.11s.18,2.97,.18,2.97h.11Zm1.98-.86h-.11v.72h.11v-.72Zm-1.04,1.26c-.56,0-.99-.21-.99-.5s.42-.5,.99-.5,.99,.21,.99,.5-.42,.5-.99,.5Zm0-.74c-.48,0-.74,.17-.74,.25s.26,.25,.74,.25,.74-.17,.74-.25-.26-.25-.74-.25Zm-.37-2.17c-.58,0-.98-.21-1.01-.51,0-.1,.03-.21,.11-.3,.17-.2,.54-.34,.97-.36,.65-.04,1.14,.17,1.16,.51,0,.1-.03,.21-.11,.3-.17,.2-.54,.34-.97,.36h-.16Zm.23-.92h-.14c-.35,.03-.68,.14-.8,.28l-.05,.11c.01,.15,.38,.31,.9,.28h0c.35-.02,.67-.14,.8-.28l.05-.11c0-.13-.3-.28-.76-.28Zm24.83,2.9c0-.1,0-.59-.18-.59s-.18,.49-.18,.59,0,.59,.18,.59,.18-.49,.18-.59Zm-.11,0c0,.25-.04,.41-.06,.46-.03-.06-.06-.22-.06-.46s.04-.41,.06-.46c.03,.06,.06,.22,.06,.46Zm-22.88-59.01c-.79,0-1.43-.64-1.43-1.43s.64-1.43,1.43-1.43,1.43,.64,1.43,1.43-.64,1.43-1.43,1.43Zm0-2.36c-.51,0-.93,.42-.93,.93s.42,.93,.93,.93,.93-.42,.93-.93-.42-.93-.93-.93Zm15.61,1.47h-14.64v-1.08h14.64v1.08Zm-14.14-.5h13.64v-.08h-13.64v.08Zm21.35,60.88l-23.98-.85v.11s23.97,.85,23.97,.85v-.11Zm0-1.14l-23.72-.93v.11s23.71,.93,23.71,.93v-.11Zm-23.65-.91l-.05-1.02h-.11s.05,1.03,.05,1.03h.11Zm-1.79,2.1l-.18-2.96h-.11s.18,2.97,.18,2.97h.11Zm1.98-.86h-.11v.72h.11v-.72Zm-1.04,1.26c-.56,0-.99-.21-.99-.5s.42-.5,.99-.5,.99,.21,.99,.5-.42,.5-.99,.5Zm0-.74c-.48,0-.74,.17-.74,.25s.26,.25,.74,.25,.74-.17,.74-.25-.26-.25-.74-.25Zm-.37-2.17c-.58,0-.98-.21-1.01-.51,0-.1,.03-.21,.11-.3,.17-.2,.54-.34,.97-.36,.65-.04,1.14,.17,1.16,.51,0,.1-.03,.21-.11,.3-.17,.2-.54,.34-.97,.36h-.16Zm.23-.92h-.14c-.35,.03-.68,.14-.8,.28l-.05,.11c.01,.15,.38,.31,.9,.28h0c.35-.02,.67-.14,.8-.28l.05-.11c0-.13-.3-.28-.76-.28Zm24.83,2.9c0-.1,0-.59-.18-.59s-.18,.49-.18,.59,0,.59,.18,.59,.18-.49,.18-.59Zm-.11,0c0,.25-.04,.41-.06,.46-.03-.06-.06-.22-.06-.46s.04-.41,.06-.46c.03,.06,.06,.22,.06,.46Zm-71.65,219.52h-10.49v-2.92h10.49v2.92Zm-9.99-.5h9.49v-1.92h-9.49v1.92Zm6.71,58.92l-10.47-5.03-.05,.1,10.47,5.03,.05-.1Zm4.53-2.26l-10.58-4.67-.04,.1,10.58,4.67,.04-.1Zm0,.15l-.05-.1-4.5,2.2,.05,.1,4.5-2.2Zm-10.61-4.73l-.04-.1-4.4,1.83,.04,.1,4.4-1.83Zm-4.09,6.17l-.25-4.36h-.11s.25,4.37,.25,4.37h.11Zm10.28,5.5l-.02-4.76h-.11s.02,4.76,.02,4.76h.11Zm4.42-7.01h-.11s-.04,4.54-.04,4.54h.11s.04-4.54,.04-4.54Zm-.13,4.63l-.05-.1-4.26,2.39,.05,.1,4.26-2.39Zm-4.3,2.29l-10.26-5.45-.05,.1,10.26,5.45,.05-.1ZM158.81,57.34l-.13-2.2h-.11s.13,2.21,.13,2.21h.11ZM207.94,3.4h-50.83V.01h50.83V3.4Zm-49.83-1h48.83V1.01h-48.83v1.39Zm53.2,65.32l-52.6-12.56-.03,.11,52.6,12.56,.03-.11Zm-.12,2.65l-52.47-13.14-.03,.11,52.47,13.14,.03-.11Zm-50.26-16.22l-.05-.1-2.33,1.1,.05,.1,2.33-1.1Zm52.01,12.15l-.07-.08-1.63,1.55,.07,.08,1.63-1.55Zm-.12,2.49l-.08-.08-1.65,1.72,.08,.08,1.65-1.72Zm-1.5-1h-.11s-.08,2.66-.08,2.66h.11s.08-2.66,.08-2.66Zm1.64-1.57h-.11s-.13,2.58-.13,2.58h.11s.13-2.58,.13-2.58Zm-.05,0l-52-12.16-.02,.11,52,12.16,.02-.11Zm-54.08-8.88l-.13-2.2h-.11s.13,2.21,.13,2.21h.11ZM207.94,3.4h-50.83V.01h50.83V3.4Zm-49.83-1h48.83V1.01h-48.83v1.39Zm53.2,65.32l-52.6-12.56-.03,.11,52.6,12.56,.03-.11Zm-.12,2.65l-52.47-13.14-.03,.11,52.47,13.14,.03-.11Zm-50.26-16.22l-.05-.1-2.33,1.1,.05,.1,2.33-1.1Zm52.01,12.15l-.07-.08-1.63,1.55,.07,.08,1.63-1.55Zm-.12,2.49l-.08-.08-1.65,1.72,.08,.08,1.65-1.72Zm-1.5-1h-.11s-.08,2.66-.08,2.66h.11s.08-2.66,.08-2.66Zm1.64-1.57h-.11s-.13,2.58-.13,2.58h.11s.13-2.58,.13-2.58Zm-.05,0l-52-12.16-.02,.11,52,12.16,.02-.11Zm107.93,9.22c-.79,0-1.43-.64-1.43-1.43s.64-1.43,1.43-1.43,1.43,.64,1.43,1.43-.64,1.43-1.43,1.43Zm0-2.36c-.51,0-.93,.42-.93,.93s.42,.93,.93,.93,.93-.42,.93-.93-.42-.93-.93-.93Zm15.61,1.47h-14.64v-1.08h14.64v1.08Zm-14.14-.5h13.64v-.08h-13.64v.08Zm21.35,60.88l-23.98-.85v.11s23.97,.85,23.97,.85v-.11Zm0-1.14l-23.72-.93v.11s23.71,.93,23.71,.93v-.11Zm-23.65-.91l-.05-1.02h-.11s.05,1.03,.05,1.03h.11Zm-1.79,2.1l-.18-2.96h-.11s.18,2.97,.18,2.97h.11Zm1.98-.86h-.11v.72h.11v-.72Zm-1.04,1.26c-.56,0-.99-.21-.99-.5s.42-.5,.99-.5,.99,.21,.99,.5-.42,.5-.99,.5Zm0-.74c-.48,0-.74,.17-.74,.25s.26,.25,.74,.25,.74-.17,.74-.25-.26-.25-.74-.25Zm-.37-2.17c-.58,0-.98-.21-1.01-.51,0-.1,.03-.21,.11-.3,.17-.2,.54-.34,.97-.36,.65-.04,1.14,.17,1.16,.51,0,.1-.03,.21-.11,.3-.17,.2-.54,.34-.97,.36h-.16Zm.23-.92h-.14c-.35,.03-.68,.14-.8,.28l-.05,.11c.01,.15,.38,.31,.9,.28h0c.35-.02,.67-.14,.8-.28l.05-.11c0-.13-.3-.28-.76-.28Zm24.83,2.9c0-.1,0-.59-.18-.59s-.18,.49-.18,.59,0,.59,.18,.59,.18-.49,.18-.59Zm-.11,0c0,.25-.04,.41-.06,.46-.03-.06-.06-.22-.06-.46s.04-.41,.06-.46c.03,.06,.06,.22,.06,.46Zm-22.88-59.01c-.79,0-1.43-.64-1.43-1.43s.64-1.43,1.43-1.43,1.43,.64,1.43,1.43-.64,1.43-1.43,1.43Zm0-2.36c-.51,0-.93,.42-.93,.93s.42,.93,.93,.93,.93-.42,.93-.93-.42-.93-.93-.93Zm15.61,1.47h-14.64v-1.08h14.64v1.08Zm-14.14-.5h13.64v-.08h-13.64v.08Zm21.35,60.88l-23.98-.85v.11s23.97,.85,23.97,.85v-.11Zm0-1.14l-23.72-.93v.11s23.71,.93,23.71,.93v-.11Zm-23.65-.91l-.05-1.02h-.11s.05,1.03,.05,1.03h.11Zm-1.79,2.1l-.18-2.96h-.11s.18,2.97,.18,2.97h.11Zm1.98-.86h-.11v.72h.11v-.72Zm-1.04,1.26c-.56,0-.99-.21-.99-.5s.42-.5,.99-.5,.99,.21,.99,.5-.42,.5-.99,.5Zm0-.74c-.48,0-.74,.17-.74,.25s.26,.25,.74,.25,.74-.17,.74-.25-.26-.25-.74-.25Zm-.37-2.17c-.58,0-.98-.21-1.01-.51,0-.1,.03-.21,.11-.3,.17-.2,.54-.34,.97-.36,.65-.04,1.14,.17,1.16,.51,0,.1-.03,.21-.11,.3-.17,.2-.54,.34-.97,.36h-.16Zm.23-.92h-.14c-.35,.03-.68,.14-.8,.28l-.05,.11c.01,.15,.38,.31,.9,.28h0c.35-.02,.67-.14,.8-.28l.05-.11c0-.13-.3-.28-.76-.28Zm24.83,2.9c0-.1,0-.59-.18-.59s-.18,.49-.18,.59,0,.59,.18,.59,.18-.49,.18-.59Zm-.11,0c0,.25-.04,.41-.06,.46-.03-.06-.06-.22-.06-.46s.04-.41,.06-.46c.03,.06,.06,.22,.06,.46Zm19.28,155.38h-.11v3.25h.11v-3.25Zm.66-.41h-.11v3.67h.11v-3.67Zm-.05-.08c-.9,0-1.63-.65-1.63-1.44s.73-1.44,1.63-1.44v-.11c-.96,0-1.74,.7-1.74,1.55s.78,1.55,1.74,1.55v-.11Zm-.16-3.35v-.11c-1.15,0-2.08,.91-2.08,2.02h.11c0-1.06,.88-1.91,1.97-1.91Zm0,3.83c-1.09,0-1.97-.88-1.97-1.95s.88-1.95,1.97-1.95v-.11c-1.15,0-2.08,.93-2.08,2.06s.93,2.06,2.08,2.06v-.11Zm0-3.46v.1c.82,0,1.48,.65,1.48,1.45h.1c0-.85-.71-1.55-1.58-1.55Zm0-.49v.11c1.09,0,1.97,.86,1.97,1.91h.11c0-1.11-.93-2.02-2.08-2.02Zm0-.07v.11c1.09,0,1.97,.86,1.97,1.91h.11c0-1.11-.93-2.02-2.08-2.02Zm2.11,2.06h-.6v.11h.6v-.11Zm-2.29,5.29c.16,0,.3-.04,.3-.08s-.13-.08-.3-.08-.3,.04-.3,.08,.13,.08,.3,.08m.35-.08c0-.12-.27-.13-.35-.13s-.35,0-.35,.13,.27,.13,.35,.13,.35,0,.35-.13Zm-.35-.03c.1,0,.17,.01,.21,.03-.04,.01-.11,.03-.21,.03s-.17-.01-.21-.03c.04-.01,.11-.03,.21-.03Zm.29-3.25h-.57v.39h.57v-.39Zm2.12-61.33h-.11v2.45h.11v-2.45Zm-.77-.22h-.11v2.67h.11v-2.67Zm.67-2.84c-.84,0-1.53,.7-1.53,1.55h.11c0-.8,.64-1.44,1.42-1.44s1.42,.65,1.42,1.44h.11c0-.85-.69-1.55-1.53-1.55Zm.05,3c-.82,0-1.48-.67-1.47-1.48h-.11c0,.87,.7,1.58,1.58,1.59v-.11Zm-.05-2.42c-.52,0-.95,.43-.95,.97h.11c0-.47,.38-.86,.84-.86s.84,.39,.84,.86h.11c0-.53-.43-.97-.95-.97Zm0,1.81c-.23,0-.44-.09-.61-.25-.16-.16-.25-.37-.24-.6h-.11c0,.25,.09,.49,.28,.67,.18,.18,.42,.28,.68,.29v-.11Zm.1,3.12h-.11c0,.12-.15,.21-.33,.21s-.33-.1-.33-.21h-.11c0,.18,.19,.32,.44,.32s.44-.14,.44-.32Zm1.39-4.01h-.59v.11h.59v-.11Zm-1.39,.95h-.11v.59h.11v-.59ZM158.81,57.34l-.13-2.2h-.11s.13,2.21,.13,2.21h.11ZM207.94,3.4h-50.83V.01h50.83V3.4Zm-49.83-1h48.83V1.01h-48.83v1.39Zm53.2,65.32l-52.6-12.56-.03,.11,52.6,12.56,.03-.11Zm-.12,2.65l-52.47-13.14-.03,.11,52.47,13.14,.03-.11Zm-50.26-16.22l-.05-.1-2.33,1.1,.05,.1,2.33-1.1Zm52.01,12.15l-.07-.08-1.63,1.55,.07,.08,1.63-1.55Zm-.12,2.49l-.08-.08-1.65,1.72,.08,.08,1.65-1.72Zm-1.5-1h-.11s-.08,2.66-.08,2.66h.11s.08-2.66,.08-2.66Zm1.64-1.57h-.11s-.13,2.58-.13,2.58h.11s.13-2.58,.13-2.58Zm-.05,0l-52-12.16-.02,.11,52,12.16,.02-.11Zm107.93,9.22c-.79,0-1.43-.64-1.43-1.43s.64-1.43,1.43-1.43,1.43,.64,1.43,1.43-.64,1.43-1.43,1.43Zm0-2.36c-.51,0-.93,.42-.93,.93s.42,.93,.93,.93,.93-.42,.93-.93-.42-.93-.93-.93Zm15.61,1.47h-14.64v-1.08h14.64v1.08Zm-14.14-.5h13.64v-.08h-13.64v.08Zm21.35,60.88l-23.98-.85v.11s23.97,.85,23.97,.85v-.11Zm0-1.14l-23.72-.93v.11s23.71,.93,23.71,.93v-.11Zm-23.65-.91l-.05-1.02h-.11s.05,1.03,.05,1.03h.11Zm-1.79,2.1l-.18-2.96h-.11s.18,2.97,.18,2.97h.11Zm1.98-.86h-.11v.72h.11v-.72Zm-1.04,1.26c-.56,0-.99-.21-.99-.5s.42-.5,.99-.5,.99,.21,.99,.5-.42,.5-.99,.5Zm0-.74c-.48,0-.74,.17-.74,.25s.26,.25,.74,.25,.74-.17,.74-.25-.26-.25-.74-.25Zm-.37-2.17c-.58,0-.98-.21-1.01-.51,0-.1,.03-.21,.11-.3,.17-.2,.54-.34,.97-.36,.65-.04,1.14,.17,1.16,.51,0,.1-.03,.21-.11,.3-.17,.2-.54,.34-.97,.36h-.16Zm.23-.92h-.14c-.35,.03-.68,.14-.8,.28l-.05,.11c.01,.15,.38,.31,.9,.28h0c.35-.02,.67-.14,.8-.28l.05-.11c0-.13-.3-.28-.76-.28Zm24.83,2.9c0-.1,0-.59-.18-.59s-.18,.49-.18,.59,0,.59,.18,.59,.18-.49,.18-.59Zm-.11,0c0,.25-.04,.41-.06,.46-.03-.06-.06-.22-.06-.46s.04-.41,.06-.46c.03,.06,.06,.22,.06,.46Zm-22.88-59.01c-.79,0-1.43-.64-1.43-1.43s.64-1.43,1.43-1.43,1.43,.64,1.43,1.43-.64,1.43-1.43,1.43Zm0-2.36c-.51,0-.93,.42-.93,.93s.42,.93,.93,.93,.93-.42,.93-.93-.42-.93-.93-.93Zm15.61,1.47h-14.64v-1.08h14.64v1.08Zm-14.14-.5h13.64v-.08h-13.64v.08Zm21.35,60.88l-23.98-.85v.11s23.97,.85,23.97,.85v-.11Zm0-1.14l-23.72-.93v.11s23.71,.93,23.71,.93v-.11Zm-23.65-.91l-.05-1.02h-.11s.05,1.03,.05,1.03h.11Zm-1.79,2.1l-.18-2.96h-.11s.18,2.97,.18,2.97h.11Zm1.98-.86h-.11v.72h.11v-.72Zm-1.04,1.26c-.56,0-.99-.21-.99-.5s.42-.5,.99-.5,.99,.21,.99,.5-.42,.5-.99,.5Zm0-.74c-.48,0-.74,.17-.74,.25s.26,.25,.74,.25,.74-.17,.74-.25-.26-.25-.74-.25Zm-.37-2.17c-.58,0-.98-.21-1.01-.51,0-.1,.03-.21,.11-.3,.17-.2,.54-.34,.97-.36,.65-.04,1.14,.17,1.16,.51,0,.1-.03,.21-.11,.3-.17,.2-.54,.34-.97,.36h-.16Zm.23-.92h-.14c-.35,.03-.68,.14-.8,.28l-.05,.11c.01,.15,.38,.31,.9,.28h0c.35-.02,.67-.14,.8-.28l.05-.11c0-.13-.3-.28-.76-.28Zm24.83,2.9c0-.1,0-.59-.18-.59s-.18,.49-.18,.59,0,.59,.18,.59,.18-.49,.18-.59Zm-.11,0c0,.25-.04,.41-.06,.46-.03-.06-.06-.22-.06-.46s.04-.41,.06-.46c.03,.06,.06,.22,.06,.46Zm-71.65,219.52h-10.49v-2.92h10.49v2.92Zm-9.99-.5h9.49v-1.92h-9.49v1.92Zm6.71,58.92l-10.47-5.03-.05,.1,10.47,5.03,.05-.1Zm4.53-2.26l-10.58-4.67-.04,.1,10.58,4.67,.04-.1Zm0,.15l-.05-.1-4.5,2.2,.05,.1,4.5-2.2Zm-10.61-4.73l-.04-.1-4.4,1.83,.04,.1,4.4-1.83Zm-4.09,6.17l-.25-4.36h-.11s.25,4.37,.25,4.37h.11Zm10.28,5.5l-.02-4.76h-.11s.02,4.76,.02,4.76h.11Zm4.42-7.01h-.11s-.04,4.54-.04,4.54h.11s.04-4.54,.04-4.54Zm-.13,4.63l-.05-.1-4.26,2.39,.05,.1,4.26-2.39Zm-4.3,2.29l-10.26-5.45-.05,.1,10.26,5.45,.05-.1Zm-2.98-31.52c3.16,0,5.72-2.56,5.72-5.72s-2.56-5.72-5.72-5.72-5.72,2.56-5.72,5.72,2.56,5.72,5.72,5.72M158.81,57.34l-.13-2.2h-.11s.13,2.21,.13,2.21h.11ZM207.94,3.4h-50.83V.01h50.83V3.4Zm-49.83-1h48.83V1.01h-48.83v1.39Zm53.2,65.32l-52.6-12.56-.03,.11,52.6,12.56,.03-.11Zm-.12,2.65l-52.47-13.14-.03,.11,52.47,13.14,.03-.11Zm-50.26-16.22l-.05-.1-2.33,1.1,.05,.1,2.33-1.1Zm52.01,12.15l-.07-.08-1.63,1.55,.07,.08,1.63-1.55Zm-.12,2.49l-.08-.08-1.65,1.72,.08,.08,1.65-1.72Zm-1.5-1h-.11s-.08,2.66-.08,2.66h.11s.08-2.66,.08-2.66Zm1.64-1.57h-.11s-.13,2.58-.13,2.58h.11s.13-2.58,.13-2.58Zm-.05,0l-52-12.16-.02,.11,52,12.16,.02-.11Zm-54.08-8.88l-.13-2.2h-.11s.13,2.21,.13,2.21h.11ZM207.94,3.4h-50.83V.01h50.83V3.4Zm-49.83-1h48.83V1.01h-48.83v1.39Zm53.2,65.32l-52.6-12.56-.03,.11,52.6,12.56,.03-.11Zm-.12,2.65l-52.47-13.14-.03,.11,52.47,13.14,.03-.11Zm-50.26-16.22l-.05-.1-2.33,1.1,.05,.1,2.33-1.1Zm52.01,12.15l-.07-.08-1.63,1.55,.07,.08,1.63-1.55Zm-.12,2.49l-.08-.08-1.65,1.72,.08,.08,1.65-1.72Zm-1.5-1h-.11s-.08,2.66-.08,2.66h.11s.08-2.66,.08-2.66Zm1.64-1.57h-.11s-.13,2.58-.13,2.58h.11s.13-2.58,.13-2.58Zm-.05,0l-52-12.16-.02,.11,52,12.16,.02-.11Zm107.93,9.22c-.79,0-1.43-.64-1.43-1.43s.64-1.43,1.43-1.43,1.43,.64,1.43,1.43-.64,1.43-1.43,1.43Zm0-2.36c-.51,0-.93,.42-.93,.93s.42,.93,.93,.93,.93-.42,.93-.93-.42-.93-.93-.93Zm15.61,1.47h-14.64v-1.08h14.64v1.08Zm-14.14-.5h13.64v-.08h-13.64v.08Zm21.35,60.88l-23.98-.85v.11s23.97,.85,23.97,.85v-.11Zm0-1.14l-23.72-.93v.11s23.71,.93,23.71,.93v-.11Zm-23.65-.91l-.05-1.02h-.11s.05,1.03,.05,1.03h.11Zm-1.79,2.1l-.18-2.96h-.11s.18,2.97,.18,2.97h.11Zm1.98-.86h-.11v.72h.11v-.72Zm-1.04,1.26c-.56,0-.99-.21-.99-.5s.42-.5,.99-.5,.99,.21,.99,.5-.42,.5-.99,.5Zm0-.74c-.48,0-.74,.17-.74,.25s.26,.25,.74,.25,.74-.17,.74-.25-.26-.25-.74-.25Zm-.37-2.17c-.58,0-.98-.21-1.01-.51,0-.1,.03-.21,.11-.3,.17-.2,.54-.34,.97-.36,.65-.04,1.14,.17,1.16,.51,0,.1-.03,.21-.11,.3-.17,.2-.54,.34-.97,.36h-.16Zm.23-.92h-.14c-.35,.03-.68,.14-.8,.28l-.05,.11c.01,.15,.38,.31,.9,.28h0c.35-.02,.67-.14,.8-.28l.05-.11c0-.13-.3-.28-.76-.28Zm24.83,2.9c0-.1,0-.59-.18-.59s-.18,.49-.18,.59,0,.59,.18,.59,.18-.49,.18-.59Zm-.11,0c0,.25-.04,.41-.06,.46-.03-.06-.06-.22-.06-.46s.04-.41,.06-.46c.03,.06,.06,.22,.06,.46Zm-22.88-59.01c-.79,0-1.43-.64-1.43-1.43s.64-1.43,1.43-1.43,1.43,.64,1.43,1.43-.64,1.43-1.43,1.43Zm0-2.36c-.51,0-.93,.42-.93,.93s.42,.93,.93,.93,.93-.42,.93-.93-.42-.93-.93-.93Zm15.61,1.47h-14.64v-1.08h14.64v1.08Zm-14.14-.5h13.64v-.08h-13.64v.08Zm21.35,60.88l-23.98-.85v.11s23.97,.85,23.97,.85v-.11Zm0-1.14l-23.72-.93v.11s23.71,.93,23.71,.93v-.11Zm-23.65-.91l-.05-1.02h-.11s.05,1.03,.05,1.03h.11Zm-1.79,2.1l-.18-2.96h-.11s.18,2.97,.18,2.97h.11Zm1.98-.86h-.11v.72h.11v-.72Zm-1.04,1.26c-.56,0-.99-.21-.99-.5s.42-.5,.99-.5,.99,.21,.99,.5-.42,.5-.99,.5Zm0-.74c-.48,0-.74,.17-.74,.25s.26,.25,.74,.25,.74-.17,.74-.25-.26-.25-.74-.25Zm-.37-2.17c-.58,0-.98-.21-1.01-.51,0-.1,.03-.21,.11-.3,.17-.2,.54-.34,.97-.36,.65-.04,1.14,.17,1.16,.51,0,.1-.03,.21-.11,.3-.17,.2-.54,.34-.97,.36h-.16Zm.23-.92h-.14c-.35,.03-.68,.14-.8,.28l-.05,.11c.01,.15,.38,.31,.9,.28h0c.35-.02,.67-.14,.8-.28l.05-.11c0-.13-.3-.28-.76-.28Zm24.83,2.9c0-.1,0-.59-.18-.59s-.18,.49-.18,.59,0,.59,.18,.59,.18-.49,.18-.59Zm-.11,0c0,.25-.04,.41-.06,.46-.03-.06-.06-.22-.06-.46s.04-.41,.06-.46c.03,.06,.06,.22,.06,.46Zm19.28,155.38h-.11v3.25h.11v-3.25Zm.66-.41h-.11v3.67h.11v-3.67Zm-.05-.08c-.9,0-1.63-.65-1.63-1.44s.73-1.44,1.63-1.44v-.11c-.96,0-1.74,.7-1.74,1.55s.78,1.55,1.74,1.55v-.11Zm-.16-3.35v-.11c-1.15,0-2.08,.91-2.08,2.02h.11c0-1.06,.88-1.91,1.97-1.91Zm0,3.83c-1.09,0-1.97-.88-1.97-1.95s.88-1.95,1.97-1.95v-.11c-1.15,0-2.08,.93-2.08,2.06s.93,2.06,2.08,2.06v-.11Zm0-3.46v.1c.82,0,1.48,.65,1.48,1.45h.1c0-.85-.71-1.55-1.58-1.55Zm0-.49v.11c1.09,0,1.97,.86,1.97,1.91h.11c0-1.11-.93-2.02-2.08-2.02Zm0-.07v.11c1.09,0,1.97,.86,1.97,1.91h.11c0-1.11-.93-2.02-2.08-2.02Zm2.11,2.06h-.6v.11h.6v-.11Zm-2.29,5.29c.16,0,.3-.04,.3-.08s-.13-.08-.3-.08-.3,.04-.3,.08,.13,.08,.3,.08m.35-.08c0-.12-.27-.13-.35-.13s-.35,0-.35,.13,.27,.13,.35,.13,.35,0,.35-.13Zm-.35-.03c.1,0,.17,.01,.21,.03-.04,.01-.11,.03-.21,.03s-.17-.01-.21-.03c.04-.01,.11-.03,.21-.03Zm.29-3.25h-.57v.39h.57v-.39Zm2.12-61.33h-.11v2.45h.11v-2.45Zm-.77-.22h-.11v2.67h.11v-2.67Zm.67-2.84c-.84,0-1.53,.7-1.53,1.55h.11c0-.8,.64-1.44,1.42-1.44s1.42,.65,1.42,1.44h.11c0-.85-.69-1.55-1.53-1.55Zm.05,3c-.82,0-1.48-.67-1.47-1.48h-.11c0,.87,.7,1.58,1.58,1.59v-.11Zm-.05-2.42c-.52,0-.95,.43-.95,.97h.11c0-.47,.38-.86,.84-.86s.84,.39,.84,.86h.11c0-.53-.43-.97-.95-.97Zm0,1.81c-.23,0-.44-.09-.61-.25-.16-.16-.25-.37-.24-.6h-.11c0,.25,.09,.49,.28,.67,.18,.18,.42,.28,.68,.29v-.11Zm.1,3.12h-.11c0,.12-.15,.21-.33,.21s-.33-.1-.33-.21h-.11c0,.18,.19,.32,.44,.32s.44-.14,.44-.32Zm1.39-4.01h-.59v.11h.59v-.11Zm-1.39,.95h-.11v.59h.11v-.59Zm-1.27,34.2c3.16,0,5.72-2.56,5.72-5.72s-2.56-5.72-5.72-5.72-5.72,2.56-5.72,5.72,2.56,5.72,5.72,5.72m-35.87-153.57c3.16,0,5.72-2.56,5.72-5.72s-2.56-5.72-5.72-5.72-5.72,2.56-5.72,5.72,2.56,5.72,5.72,5.72M186.5,40.01c3.16,0,5.72-2.56,5.72-5.72s-2.56-5.72-5.72-5.72-5.72,2.56-5.72,5.72,2.56,5.72,5.72,5.72m-27.69,17.33l-.13-2.2h-.11s.13,2.21,.13,2.21h.11ZM207.94,3.4h-50.83V.01h50.83V3.4Zm-49.83-1h48.83V1.01h-48.83v1.39Zm53.2,65.32l-52.6-12.56-.03,.11,52.6,12.56,.03-.11Zm-.12,2.65l-52.47-13.14-.03,.11,52.47,13.14,.03-.11Zm-50.26-16.22l-.05-.1-2.33,1.1,.05,.1,2.33-1.1Zm52.01,12.15l-.07-.08-1.63,1.55,.07,.08,1.63-1.55Zm-.12,2.49l-.08-.08-1.65,1.72,.08,.08,1.65-1.72Zm-1.5-1h-.11s-.08,2.66-.08,2.66h.11s.08-2.66,.08-2.66Zm1.64-1.57h-.11s-.13,2.58-.13,2.58h.11s.13-2.58,.13-2.58Zm-.05,0l-52-12.16-.02,.11,52,12.16,.02-.11Zm107.93,9.22c-.79,0-1.43-.64-1.43-1.43s.64-1.43,1.43-1.43,1.43,.64,1.43,1.43-.64,1.43-1.43,1.43Zm0-2.36c-.51,0-.93,.42-.93,.93s.42,.93,.93,.93,.93-.42,.93-.93-.42-.93-.93-.93Zm15.61,1.47h-14.64v-1.08h14.64v1.08Zm-14.14-.5h13.64v-.08h-13.64v.08Zm21.35,60.88l-23.98-.85v.11s23.97,.85,23.97,.85v-.11Zm0-1.14l-23.72-.93v.11s23.71,.93,23.71,.93v-.11Zm-23.65-.91l-.05-1.02h-.11s.05,1.03,.05,1.03h.11Zm-1.79,2.1l-.18-2.96h-.11s.18,2.97,.18,2.97h.11Zm1.98-.86h-.11v.72h.11v-.72Zm-1.04,1.26c-.56,0-.99-.21-.99-.5s.42-.5,.99-.5,.99,.21,.99,.5-.42,.5-.99,.5Zm0-.74c-.48,0-.74,.17-.74,.25s.26,.25,.74,.25,.74-.17,.74-.25-.26-.25-.74-.25Zm-.37-2.17c-.58,0-.98-.21-1.01-.51,0-.1,.03-.21,.11-.3,.17-.2,.54-.34,.97-.36,.65-.04,1.14,.17,1.16,.51,0,.1-.03,.21-.11,.3-.17,.2-.54,.34-.97,.36h-.16Zm.23-.92h-.14c-.35,.03-.68,.14-.8,.28l-.05,.11c.01,.15,.38,.31,.9,.28h0c.35-.02,.67-.14,.8-.28l.05-.11c0-.13-.3-.28-.76-.28Zm24.83,2.9c0-.1,0-.59-.18-.59s-.18,.49-.18,.59,0,.59,.18,.59,.18-.49,.18-.59Zm-.11,0c0,.25-.04,.41-.06,.46-.03-.06-.06-.22-.06-.46s.04-.41,.06-.46c.03,.06,.06,.22,.06,.46Zm-22.88-59.01c-.79,0-1.43-.64-1.43-1.43s.64-1.43,1.43-1.43,1.43,.64,1.43,1.43-.64,1.43-1.43,1.43Zm0-2.36c-.51,0-.93,.42-.93,.93s.42,.93,.93,.93,.93-.42,.93-.93-.42-.93-.93-.93Zm15.61,1.47h-14.64v-1.08h14.64v1.08Zm-14.14-.5h13.64v-.08h-13.64v.08Zm21.35,60.88l-23.98-.85v.11s23.97,.85,23.97,.85v-.11Zm0-1.14l-23.72-.93v.11s23.71,.93,23.71,.93v-.11Zm-23.65-.91l-.05-1.02h-.11s.05,1.03,.05,1.03h.11Zm-1.79,2.1l-.18-2.96h-.11s.18,2.97,.18,2.97h.11Zm1.98-.86h-.11v.72h.11v-.72Zm-1.04,1.26c-.56,0-.99-.21-.99-.5s.42-.5,.99-.5,.99,.21,.99,.5-.42,.5-.99,.5Zm0-.74c-.48,0-.74,.17-.74,.25s.26,.25,.74,.25,.74-.17,.74-.25-.26-.25-.74-.25Zm-.37-2.17c-.58,0-.98-.21-1.01-.51,0-.1,.03-.21,.11-.3,.17-.2,.54-.34,.97-.36,.65-.04,1.14,.17,1.16,.51,0,.1-.03,.21-.11,.3-.17,.2-.54,.34-.97,.36h-.16Zm.23-.92h-.14c-.35,.03-.68,.14-.8,.28l-.05,.11c.01,.15,.38,.31,.9,.28h0c.35-.02,.67-.14,.8-.28l.05-.11c0-.13-.3-.28-.76-.28Zm24.83,2.9c0-.1,0-.59-.18-.59s-.18,.49-.18,.59,0,.59,.18,.59,.18-.49,.18-.59Zm-.11,0c0,.25-.04,.41-.06,.46-.03-.06-.06-.22-.06-.46s.04-.41,.06-.46c.03,.06,.06,.22,.06,.46ZM113.15,352.12h-7.8v-2.86h7.8v2.86Zm-7.3-.5h6.8v-1.86h-6.8v1.86Zm2.83,61.96l-5.84-7.33-.08,.07,5.84,7.33,.08-.07Zm0,.86l-5.86-7.48-.08,.07,5.86,7.48,.08-.07Zm-5.84-8.17h-.11v.71h.11v-.71Zm5.85,7.38h-.11v.86h.11v-.86Zm0,0h-.11v.64h.11v-.64Zm5.13-1.41l-.03-.1-5.14,1.42,.03,.1,5.14-1.42Zm0,.75l-.03-.1-5.14,1.52,.03,.1,5.14-1.52Zm.03-.83h-.11s0,.75,0,.75h.11s0-.75,0-.75Zm0-.04l-6.71-6.83-.08,.08,6.71,6.83,.08-.08Zm-6.75-6.73l-.02-.11-4.31,.91,.02,.11,4.31-.92Zm.96-19.7c3.16,0,5.72-2.56,5.72-5.72s-2.56-5.72-5.72-5.72-5.72,2.56-5.72,5.72,2.56,5.72,5.72,5.72M8.72,262.14c3.16,0,5.72-2.56,5.72-5.72s-2.56-5.72-5.72-5.72-5.72,2.56-5.72,5.72,2.56,5.72,5.72,5.72M44.58,108.51c3.16,0,5.72-2.56,5.72-5.72s-2.56-5.72-5.72-5.72-5.72,2.56-5.72,5.72,2.56,5.72,5.72,5.72m-.07-40.1c-.92,0-1.66-.75-1.66-1.66s.74-1.66,1.66-1.66,1.66,.75,1.66,1.66-.74,1.66-1.66,1.66Zm0-3.13c-.8,0-1.46,.66-1.46,1.46s.65,1.46,1.46,1.46,1.46-.66,1.46-1.46-.65-1.46-1.46-1.46Zm0,2.45c-.54,0-.98-.44-.98-.98s.44-.98,.98-.98,.98,.44,.98,.98-.44,.98-.98,.98Zm0-1.77c-.43,0-.78,.35-.78,.78s.35,.78,.78,.78,.78-.35,.78-.78-.35-.78-.78-.78Zm3.07,71.9h-.13c0,.85-1.32,1.54-2.94,1.54s-2.94-.69-2.94-1.54h-.13c0,.92,1.38,1.66,3.07,1.66s3.07-.75,3.07-1.66Zm-3.07-1.16c-.67,0-1.39,.17-1.39,.49h.13c0-.15,.48-.36,1.26-.36s1.26,.21,1.26,.36h.13c0-.32-.72-.49-1.39-.49Zm0,1.92c-1.74,0-3.16-.81-3.16-1.81s1.42-1.81,3.16-1.81,3.16,.81,3.16,1.81-1.42,1.81-3.16,1.81Zm0-3.41c-1.63,0-2.96,.72-2.96,1.61s1.33,1.61,2.96,1.61,2.96-.72,2.96-1.61-1.33-1.61-2.96-1.61Zm0,2.55c-.96,0-1.71-.44-1.71-1.01s.75-1.01,1.71-1.01,1.71,.44,1.71,1.01-.75,1.01-1.71,1.01Zm0-1.82c-.83,0-1.51,.36-1.51,.81s.68,.81,1.51,.81,1.51-.36,1.51-.81-.68-.81-1.51-.81Zm-2.94,.87h-.13v1.04h.13v-1.04Zm6.01,1.04l-.03-.99h-.13s.03,.99,.03,.99h.13ZM9.33,293.03h-.12c0,.2-.36,.37-.78,.37s-.78-.17-.78-.37h-.12c0,.27,.39,.49,.89,.49s.89-.21,.89-.49Zm-1.67-9.92h-.12v9.94h.12v-9.94Zm1.67,.01h-.12v9.91h.12v-9.91Zm-.12,0c0,.05-.26,.18-.78,.18s-.78-.13-.78-.18,.26-.18,.78-.18,.78,.13,.78,.18Zm.22-56.48c-.66,0-1.19-.53-1.19-1.19s.53-1.19,1.19-1.19,1.19,.53,1.19,1.19-.53,1.19-1.19,1.19Zm0-1.88c-.38,0-.69,.31-.69,.69s.31,.69,.69,.69,.69-.31,.69-.69-.31-.69-.69-.69Zm-.1,68.26h-.12c0,.2-.36,.37-.78,.37s-.78-.17-.78-.37h-.12c0,.27,.39,.49,.89,.49s.89-.21,.89-.49Zm-1.67-9.92h-.12v9.94h.12v-9.94Zm1.67,.01h-.12v9.91h.12v-9.91Zm.13,0c0-.41-.85-.43-1.02-.43s-1.03,.02-1.03,.43,.85,.43,1.03,.43,1.02-.02,1.02-.43Zm-.13,9.91h-.12c0,.2-.36,.37-.78,.37s-.78-.17-.78-.37h-.12c0,.27,.39,.49,.89,.49s.89-.21,.89-.49Zm-1.67-9.92h-.12v9.94h.12v-9.94Zm1.67,.01h-.12v9.91h.12v-9.91ZM184.95,36.99c-.02,.08-.07,.13-.13,.16-.07,.03-.13,.04-.2,.02-.07-.02-.12-.06-.16-.13-.04-.07-.04-.13-.02-.2l1.85-6.16c.02-.07,.07-.12,.13-.16,.07-.04,.14-.04,.21-.02,.07,.02,.12,.07,.16,.13s.04,.14,.02,.21l-1.85,6.15Zm3.02-2.4c.07,0,.14,.03,.19,.08,.05,.05,.08,.12,.08,.19s-.03,.14-.08,.19c-.05,.05-.12,.08-.19,.08h-2.05c-.07,0-.14-.03-.19-.08-.05-.05-.08-.12-.08-.19s.03-.14,.08-.19c.05-.05,.12-.08,.19-.08h2.05Zm1.17,2.59s-.09-.03-.12-.06c-.04-.03-.06-.08-.08-.12l-1.84-6.15c-.02-.05-.02-.1,0-.14,.01-.04,.03-.08,.07-.12s.07-.06,.12-.08c.07-.02,.15-.01,.21,.02,.07,.04,.11,.09,.13,.16l1.85,6.16c.02,.07,.01,.14-.02,.2-.04,.07-.09,.11-.16,.13-.05,.01-.09,.01-.14,0Zm137.94,62.43c.05,.05,.08,.12,.08,.19v6.18s0,.07-.02,.1c-.01,.03-.03,.06-.06,.08-.03,.02-.06,.04-.09,.06-.03,.02-.07,.02-.1,.02-.07,0-.14-.03-.19-.08-.05-.05-.08-.12-.08-.19v-6.18s.01-.09,.04-.14c.02-.04,.06-.08,.1-.1,.04-.02,.09-.04,.14-.04,.07,0,.14,.03,.19,.08Zm1.86,3.01h.1s.06,0,.1,0c.28-.01,.53-.12,.75-.31,.26-.23,.41-.53,.44-.88v-.08c0-.35-.12-.65-.38-.9-.25-.25-.55-.38-.9-.38-.03,0-.05,0-.08,0h-1.25c-.07,0-.14-.03-.19-.08-.05-.05-.08-.12-.08-.19,0-.03,0-.06,.02-.09,.01-.03,.02-.05,.04-.08,.02-.02,.03-.04,.06-.06,.02-.02,.05-.03,.08-.04s.06-.01,.08-.01h1.23s.03,0,.05,0c.02,0,.04,0,.05,0,.5,0,.93,.18,1.29,.53s.54,.79,.54,1.29c0,.04,0,.08,0,.12-.03,.5-.24,.91-.61,1.24-.08,.07-.16,.13-.24,.18,.11,.07,.22,.16,.32,.26,.36,.35,.54,.78,.54,1.28,0,.04,0,.07,0,.11-.03,.5-.23,.92-.61,1.25-.38,.33-.81,.49-1.31,.46h-1.23c-.07,0-.14-.03-.19-.08-.05-.05-.08-.12-.08-.19s.03-.14,.08-.19c.05-.05,.12-.08,.19-.08h1.25c.35,.02,.66-.08,.92-.32,.26-.23,.41-.52,.44-.88v-.09c0-.35-.12-.65-.38-.9-.23-.23-.5-.35-.81-.37-.07,0-.13,0-.2,0h-1.22c-.07,0-.14-.03-.19-.08-.05-.05-.08-.12-.08-.19s.03-.14,.08-.19c.05-.05,.12-.08,.19-.08h1.23Zm33.49,151.34c.47-.39,1.02-.58,1.63-.58,.4,0,.78,.09,1.14,.26,.36,.18,.66,.42,.9,.74,.24,.31,.4,.67,.48,1.06,.02,.08,0,.14-.04,.2-.04,.06-.1,.1-.17,.12-.05,.01-.09,0-.14,0-.05-.02-.09-.04-.12-.08-.03-.04-.05-.08-.06-.13-.1-.47-.33-.86-.71-1.16-.38-.31-.8-.46-1.29-.46s-.91,.15-1.28,.46c-.37,.31-.61,.69-.7,1.16-.02,.07-.05,.13-.12,.18s-.13,.06-.2,.04-.13-.05-.17-.12c-.04-.06-.05-.13-.04-.2,.12-.6,.42-1.1,.9-1.48Zm-.35,3.94c.01,.55,.21,1.02,.59,1.4s.85,.58,1.39,.58c.49,.01,.92-.14,1.29-.44s.61-.7,.7-1.18c0-.05,.02-.09,.06-.12,.03-.04,.07-.06,.12-.08,.05-.02,.09-.02,.14-.01,.08,.02,.13,.05,.18,.12,.04,.06,.06,.13,.04,.2-.11,.6-.4,1.08-.87,1.44-.47,.36-1.03,.54-1.66,.53-.7-.01-1.29-.25-1.78-.7-.48-.46-.73-1.03-.74-1.72v-1.59c0-.08,.03-.14,.08-.19,.05-.05,.12-.08,.19-.08s.14,.03,.19,.08c.05,.05,.08,.12,.08,.19v1.58Zm-97,118.7c.05,.05,.08,.12,.08,.19v6.19c0,.07-.03,.14-.08,.19-.05,.05-.12,.08-.19,.08s-.14-.03-.19-.08c-.05-.05-.08-.12-.08-.19v-6.19s.01-.09,.04-.13c.02-.04,.06-.07,.1-.1,.04-.03,.09-.04,.14-.04,.07,0,.14,.03,.19,.08Zm2.24,.45c.48,.31,.86,.71,1.14,1.21,.27,.5,.41,1.04,.41,1.62s-.14,1.12-.41,1.62c-.27,.5-.65,.91-1.14,1.22-.48,.31-1.01,.48-1.59,.52-.07,0-.14-.02-.2-.06-.06-.05-.09-.11-.1-.18,0-.07,.02-.14,.07-.2,.05-.06,.11-.09,.19-.09,.74-.05,1.36-.35,1.87-.9,.51-.54,.76-1.19,.76-1.93s-.25-1.38-.76-1.93-1.13-.84-1.87-.9c-.07,0-.14-.04-.19-.09s-.07-.12-.07-.2c0-.07,.04-.14,.1-.18s.13-.07,.2-.06c.58,.04,1.1,.21,1.59,.52Zm-161.24-.44c.05,.05,.08,.12,.08,.19v6.19c0,.07-.03,.14-.08,.19-.05,.05-.12,.08-.19,.08s-.14-.03-.19-.08c-.05-.05-.08-.12-.08-.19v-6.19s.01-.09,.04-.13,.06-.07,.1-.1c.04-.03,.09-.04,.14-.04,.07,0,.14,.03,.19,.08Zm.4,.06s.06-.07,.1-.1c.04-.03,.09-.04,.14-.04h2.89c.07,0,.14,.03,.19,.08,.05,.05,.08,.12,.08,.19s-.03,.14-.08,.19c-.05,.05-.12,.08-.19,.08h-2.89s-.07,0-.1-.02c-.03-.01-.06-.03-.08-.06-.02-.02-.04-.05-.06-.09-.02-.03-.02-.07-.02-.11,0-.05,.01-.09,.04-.13Zm3.12,2.95c.07,0,.14,.03,.19,.08,.05,.05,.08,.12,.08,.19s-.03,.14-.08,.19c-.05,.05-.12,.08-.19,.08h-2.89c-.07,0-.14-.03-.19-.08-.05-.05-.08-.12-.08-.19s.03-.14,.08-.19c.05-.05,.12-.08,.19-.08h2.89Zm.19,3.56c-.05,.05-.12,.08-.19,.08h-2.89c-.07,0-.14-.03-.19-.08-.05-.05-.08-.12-.08-.19s.03-.14,.08-.19c.05-.05,.12-.08,.19-.08h2.89s.09,.01,.14,.04c.04,.02,.08,.06,.1,.1s.04,.09,.04,.14c0,.07-.03,.14-.08,.19ZM7.17,259.95c0,.08-.03,.14-.08,.19-.05,.05-.12,.08-.19,.08s-.14-.03-.19-.08c-.05-.05-.08-.12-.08-.19v-6.18c0-.07,.03-.14,.08-.19,.05-.05,.12-.08,.19-.08s.14,.03,.19,.08c.05,.05,.08,.12,.08,.19v6.18Zm3.44-6.45s.09,.01,.14,.04c.04,.02,.08,.06,.1,.1s.04,.09,.04,.14c0,.08-.03,.14-.08,.19-.05,.05-.12,.08-.19,.08h-2.89c-.07,0-.14-.03-.19-.08-.05-.05-.08-.12-.08-.19s.03-.14,.08-.19c.05-.05,.12-.08,.19-.08h2.89Zm-3.15,3.29s.02-.04,.03-.06c.01-.02,.02-.04,.04-.06,.02-.02,.03-.03,.06-.04,.02-.01,.04-.02,.07-.02,.02,0,.05,0,.07,0h2.89c.07,0,.14,.03,.19,.08,.05,.05,.08,.12,.08,.19s-.03,.14-.08,.19c-.05,.05-.12,.08-.19,.08h-2.89s-.09-.01-.14-.04c-.04-.03-.08-.06-.1-.1-.02-.04-.04-.08-.04-.13,0-.03,0-.05,.01-.08ZM42.74,101.7s-.06-.04-.08-.07c-.02-.03-.03-.06-.04-.1,0-.04,0-.07,0-.1,.08-.4,.24-.76,.48-1.07,.24-.31,.54-.56,.9-.74,.36-.18,.74-.27,1.14-.27,.61,0,1.16,.19,1.63,.58,.47,.39,.77,.88,.9,1.49,.01,.07,0,.14-.04,.2-.04,.06-.1,.1-.17,.12-.03,0-.05,0-.08,0-.03,0-.06-.01-.08-.02-.03-.01-.05-.03-.07-.04s-.04-.04-.05-.07c-.02-.03-.03-.05-.03-.08-.1-.47-.33-.86-.7-1.17s-.8-.46-1.28-.46-.91,.15-1.29,.46c-.38,.31-.61,.7-.71,1.17-.01,.08-.05,.13-.11,.17-.06,.04-.13,.05-.21,.04-.03-.01-.06-.03-.1-.05Zm5.48,1.82c.07,0,.14,.03,.19,.08,.05,.05,.08,.12,.08,.19s-.03,.14-.08,.19c-.05,.05-.12,.08-.19,.08h-.56c-.07,.63-.34,1.17-.81,1.6-.48,.44-1.06,.66-1.71,.66-.7,0-1.29-.25-1.78-.74s-.74-1.08-.74-1.78v-1.49c0-.07,.03-.14,.08-.19s.12-.08,.19-.08,.14,.03,.19,.08,.08,.12,.08,.19v1.49c0,.54,.2,1.01,.59,1.4,.39,.39,.85,.58,1.4,.59,.52,0,.97-.17,1.35-.51,.36-.33,.57-.73,.63-1.2h-1.77c-.07,0-.14-.03-.19-.08-.05-.05-.08-.12-.08-.19s.03-.14,.08-.19c.05-.05,.12-.08,.19-.08h2.87Zm631.19,122.76l-.29-.21,.29-.41,.29,.21-.29,.41Zm-108.83-80.65l-.16-.47c-.58,.19-1.74,.29-2.55,.22l-1.65-.39-.12,.49,1.69,.4c.19,.02,.4,.03,.62,.03,.74,0,1.62-.08,2.18-.27Zm-11.47-8l-.03-1.89h-.5s.03,1.9,.03,1.9h.5Zm1.7-.4l-.02-1.53h-.5s.02,1.54,.02,1.54h.5Zm-18.63-4.15l-.08-2.08-.5,.02,.08,2.08,.5-.02Zm.6,.02l-.08-2.07-.5,.02,.08,2.07,.5-.02Zm28.47,2.64l-.39-.31c-.19,.17-1.8,.44-3.09,.33-.92-.04-1.57-.25-1.67-.35l.02,.11-.49-.11c-.02,.1,0,.21,.07,.3,.28,.37,1.41,.52,2.03,.55,.17,.02,.38,.02,.6,.02,1.1,0,2.63-.16,2.92-.54Zm-5.11,.6v-.88s-.51,0-.51,0v.88s.51,0,.51,0Zm5.26-.03v-.88s-.5,0-.5,0v.88s.5,0,.5,0Zm-15.09,1.59l.6-.22-.19-.46-.47,.19-.58,.02,.02,.5,.62-.02Zm4.48-.31c.02-.12-.04-.27-.23-.35l-.18,.47-.08-.14,.05-.15s-.14,.06-.29,.08l-1.12-.08-.04,.5,1.16,.08c.25-.02,.68-.11,.72-.41Zm5.12-1.63l-.06-.5-5.34,.63,.06,.5,5.34-.63Zm-7.04,.83l-.06-.5-2.04,.24,.06,.5,2.04-.24Zm-6.11,1.25l-.02-.76h-.5s.02,.77,.02,.77h.5Zm19.99-1.33l-.06-.5-17.69,2.18,.06,.5,17.69-2.18Zm0,.74l-.06-.5-17.67,2.22,.06,.5,17.67-2.22Zm-2.55-2.15l-.06-1.18h.05s.01-.15,.01-.15l-.06-.08v-.4s-.21,.25-.21,.25c-.32-.15-.84-.18-.96-.18-.49-.04-1.56,.01-1.88,.24-.16,.1-.2,.24-.17,.35,.09,.4,.97,.46,1.23,.47,.31,.03,1.04,.01,1.52-.1l.04,.81,.5-.02Zm-1.26-1.25c.12,0,.24,.02,.34,.03-.31,.04-.74,.07-1.1,.04-.12,0-.24-.01-.34-.03,.31-.04,.74-.07,1.1-.04Zm-1.51,1.46v-1.42s-.51,0-.51,0v1.42s.51,0,.51,0Zm80.07,18.79l-12.37-2.4-.09,.49,12.37,2.4,.09-.49Zm-.1,1.02l-12.35-2.43-.1,.49,12.35,2.43,.1-.49Zm-97.64-9.45l-.18-5.98-.5,.02,.18,5.98,.5-.02Zm-1.33-.73l-.18-5.9-.5,.02,.18,5.9,.5-.02Zm15.36-5.95l-.06-.5-12.98,1.65,.06,.5,12.98-1.65Zm.28,5.6l-.06-5.85h-.5s.06,5.85,.06,5.85h.5Zm-17.16-.48l-.19-5.8-.5,.02,.19,5.8,.5-.02Zm4.29,2.34l-.17-6.07h-.5s.17,6.08,.17,6.08h.5Zm12.66-1.63l-.07-.49-12.87,1.87,.07,.49,12.87-1.87Zm2.29-.33l-.07-.49-10.93,1.59,.07,.49,10.93-1.59Zm2.1,.43l-.07-.49-13.01,1.93,.07,.49,13.01-1.93Zm-26.03-14.35l-.44-.05-.06,.5,.44,.05,.06-.5Zm.05-.41c-.12-.01-.25-.15-.32-.32l-.47,.18c.14,.36,.42,.62,.74,.65l.05-.5Zm.25-.02l-.4-.07-.08,.49,.4,.07,.08-.49Zm-.58-.33c-.16-.31-.03-1.06,.22-1.29l.47-.19-.19-.46-.5,.2-.06,.04c-.45,.35-.65,1.38-.37,1.93l.45-.22Zm105.84,23.63l-.5-.05-.09,.9,.5,.05,.09-.9Zm-86.6-17.65l-.63-.06-.04,.5,.63,.06,.04-.5Zm4.72-.83l-23.41-3.93-.08,.49,23.41,3.93,.08-.49Zm4.31,10.66v-.35s-.5,0-.5,0v.35s.5,0,.5,0Zm-9.61-9.92l-.17-.47-.44,.16-1.09-.07-.03,.5,1.19,.08,.54-.2Zm-2.99,.52l-.78-.14-.09,.49,.78,.14,.09-.49Zm5.31-.52l-.23-.1,.46,.19,.04-.18-.08-.11c-.23-.33-1.29-.37-1.66-.36l-.97,.09,.04,.5,.95-.08c.58-.03,1.14,.1,1.24,.17l.19-.12Zm86.99,18.02l-1.5-.61-1.55,.26,1.49,.61,1.55-.26Zm-.38,.16l.08-.22v-.08s-.05-.1-.05-.1c-.16-.24-.74-.39-1.08-.43-.24-.03-.9-.07-1.12,.17l-.08,.12-.02,.18,.07,.11c.16,.27,.81,.41,1.08,.43,.08,.01,.22,.02,.37,.03,.28,0,.61-.04,.75-.19Zm-1.11-.34l.16,.02h-.12s-.16-.04-.16-.04h.11Zm1.19,.16l-.5-.05-.29,2.88,.5,.05,.29-2.88Zm-2.02,1.69l-.5-.05-.09,.94,.5,.05,.09-.94Zm1.65,1.39l.08-.28-.49,.11c-.02-.1,.03-.17,.07-.19-.07,.04-.37,.08-.71,.03-.34-.03-.66-.16-.72-.22l.02,.18-.47-.18-.03,.17,.07,.11c.15,.25,.73,.41,1.08,.44,.1,.02,.23,.03,.36,.03,.29,0,.62-.05,.75-.19Zm-91.72-21.35l-1.98-.13-.56,.2,.15,.41v.14s1.2,.08,1.2,.08l1.19-.71Zm1.82,.17l1.08,.07,.03-.5-1.18-.08-.54,.2,.17,.47,.45-.16Zm-3.58-.97h.04c.56-.02,1.07,.09,1.16,.15l.19-.12,.23,.09,.04-.17-.08-.11c-.26-.36-1.54-.34-1.55-.34-.49-.02-1.47,.09-1.7,.36l-.08,.24,.49-.07-.06,.17c.1-.08,.7-.21,1.31-.2Zm26.64,5.55c.47,0,1.38-.07,1.64-.41,.07-.09,.09-.19,.07-.29l-.11-.2c-.29-.28-1.32-.4-1.89-.38-.53-.01-1.43,.1-1.65,.4-.06,.08-.08,.18-.06,.27l.1,.22c.25,.27,1.15,.4,1.75,.4h.15Zm-.28-.79c.51-.02,1.04,.07,1.33,.16-.22,.07-.61,.15-1.05,.13-.52,.02-1.06-.07-1.34-.16,.23-.07,.62-.14,1.07-.13Zm-6.98-.56h.03c.53,0,1.42-.11,1.64-.41l.06-.25-.08-.2c-.24-.28-1.21-.4-1.8-.38-.42,0-1.45,.08-1.68,.41l-.05,.25v.09s.07,.1,.07,.1c.23,.29,1.14,.39,1.68,.4h.14Zm-.14-.74c.45-.02,.9,.05,1.18,.12-.23,.06-.6,.12-1,.12h-.03c-.46,.02-.91-.05-1.18-.13,.24-.06,.64-.12,1.04-.12Zm-19.38-2.84c.49,.02,1.49-.1,1.71-.37l.06-.26-.49,.12c-.02-.1,.03-.17,.05-.19-.11,.08-.71,.23-1.34,.2-.56,.01-1.07-.09-1.16-.15l-.19,.12,.23,.09-.47-.18-.04,.17,.08,.11c.22,.31,1.18,.34,1.47,.34h.08Zm11.61-.26l-.14-.48-1.18,.33,.14,.48,1.18-.33Zm-12.1,3.25l-2.54-1.36-.24,.44,2.54,1.36,.24-.44Zm-12.92-7.63c-.2-.02-.4-.22-.5-.5l-.47,.17c.17,.46,.53,.78,.92,.82l.05-.5Zm21.63,7.91l-1.14-.46-.19,.46,1.14,.46,.19-.46Zm7.05-3.32l.5,.06c.06-.49-.86-.69-1.42-.76l-.06,.5c.64,.08,.95,.23,1,.29l-.02-.09Zm1.91,.85l-1.57-.65-.19,.46,1.57,.65,.19-.46Zm-17.68,.98l-.06-.5-2.62,.31,.06,.5,2.62-.31Zm.16,2.2l-.02-.78h-.5s.02,.79,.02,.79h.5Zm17.67-2.22v-.74s-.5,0-.5,0v.74s.5,0,.5,0Zm-17.8,2l-2.53-1.39-.24,.44,2.53,1.39,.24-.44Zm14.98,6.87l-.4-.29c-.12,.1-.89,.25-1.5,.18-.41-.02-.72-.13-.77-.19l.03,.12-.49-.08c-.02,.1,.01,.19,.08,.28,.19,.24,.73,.35,1.12,.37,.09,.01,.21,.02,.33,.02,.6,0,1.43-.12,1.62-.4Zm-2.64-.22v-.34s-.5,0-.5,0v.34s.5,0,.5,0Zm-16.61-5.5l-1.45-.7-.22,.45,1.45,.7,.22-.45Zm-1.4,4.81l-1.26-.28-.11,.49,1.26,.28,.11-.49Zm.2-5.63l-.31-.29-1.3-.25-1.49-.72-.22,.45,1.52,.73,1.26,.25,.21,.19,.34-.37Zm-1.39,5.37l-1.52-.83-.24,.44,1.52,.83,.24-.44Zm4.24-6.88l-.06-.5-6.04,.72,.06,.5,6.04-.72Zm-1.46,8.39l-1.44-.79-.24,.44,1.44,.79,.24-.44Zm4.37-.39h-.5s0,.31,0,.31l-.6-.39-.27,.42,1.39,.89-.03-1.24Zm-12.06-16.38l-.06-.87v-.07c-.15-.37-.44-.63-.76-.66l-.05,.5c.11,.01,.24,.13,.31,.3l.06,.83,.5-.03Zm-1.67,.6c-.24-.47-.04-1.54,.32-1.87l.65-.26-.19-.46-.68,.28-.06,.04c-.57,.45-.84,1.81-.49,2.51l.45-.23Zm1.24-.65l-.06-.94-.37-.48-.4,.3,.28,.36,.06,.79,.5-.03Zm-1.68,.6c-.24-.47-.04-1.54,.32-1.87l.65-.26-.19-.46-.68,.27-.06,.04c-.58,.45-.84,1.81-.49,2.51l.45-.23Zm1.34-2.56l-.44-.05-.06,.5,.44,.05,.06-.5Zm1.02,2.13l-.07-1.23-.02-.07c-.17-.47-.54-.8-.94-.84l-.04,.5c.19,.02,.39,.21,.5,.48l.07,1.19,.5-.03Zm-.88,1.21v-.41s-.51,.02-.51,.02v.41s.51-.02,.51-.02Zm.41-1.56l-.43-.05-.06,.5,.43,.05,.06-.5Zm-1.37,1.3c-.2-.02-.4-.22-.51-.5l-.47,.18c.17,.46,.54,.78,.92,.82l.05-.5ZM715.77,2.72l-.04-.89-.02-.09c-.2-.48-.75-.83-1.28-.82v.5c.33-.03,.68,.23,.8,.47l.03,.84,.5-.02Zm-1.22,1.01v-.5c-.36,.03-.71-.26-.82-.51l-.46,.19c.2,.47,.73,.81,1.24,.82h.04Zm1.54-2.16c-.25-.61-.96-1.07-1.65-1.05v.5s.05,0,.05,0c.52,0,.99,.38,1.15,.76,.15,.31,.16,.72,.03,1.05l.46,.19c.19-.46,.18-1.02-.03-1.45Zm-1.35,1.91h-.5s0,.41,0,.41h.5s0-.41,0-.41Zm-18.27-.28h-.35s0,.5,0,.5h.35s0-.5,0-.5Zm18.41,.28h-.5s-.01,2.2-.01,2.2h.5s.01-2.2,.01-2.2Zm-8.27,.41l-4.69-.02v.5s4.69,.02,4.69,.02v-.5Zm-9.88-.71h-.5s0,1.65,0,1.65h.5s0-1.65,0-1.65Zm7.71,1.44l-12.03-.06v.5s12.03,.06,12.03,.06v-.5Zm3.97,.02l-3.96-.02v.5s3.96,.02,3.96,.02v-.5Zm-3.96,.66l-12.03-.06v.5s12.03,.06,12.03,.06v-.5Zm3.97,.02l-3.96-.02v.5s3.96,.02,3.96,.02v-.5Zm-3.99,5.77l-12.03-.06v.5s12.03,.06,12.03,.06v-.5Zm3.97,.02l-3.96-.02v.5s3.96,.02,3.96,.02v-.5Zm-3.96,.66l-12.03-.06v.5s12.03,.06,12.03,.06v-.5Zm3.97,.02l-3.96-.02v.5s3.96,.02,3.96,.02v-.5Zm-1.79,.07l-4.69-.02v.5s4.69,.02,4.69,.02v-.5Zm0,.81l-4.69-.02v.5s4.69,.02,4.69,.02v-.5Zm7.82-9.42c-.34,0-.65-.27-.76-.51l-.46,.2c.2,.46,.7,.8,1.2,.81v-.5Zm1.53-.75h-.37s0,.5,0,.5h.37s0-.5,0-.5Zm-2.67,.38c-.15-.24-.16-.62-.03-.98,.13-.36,.38-.64,.62-.73l.68-.15-.11-.49-.7,.16c-.42,.15-.77,.53-.96,1.04-.18,.5-.16,1.03,.07,1.41l.43-.26Zm2.98-1.3c-.26-.61-.99-1.07-1.65-1.05v.5s.05,0,.05,0c.52,0,.99,.38,1.15,.76,.13,.27,.16,.61,.08,.91l.48,.14c.12-.41,.08-.88-.1-1.25Zm-1.29,1.91h-.5s0,.41,0,.41h.5s0-.41,0-.41Zm-1.31-.79c-.1-.16-.1-.42-.02-.66,.09-.25,.26-.44,.41-.5l.5-.11-.11-.49-.53,.12c-.32,.11-.6,.42-.74,.81-.14,.39-.12,.8,.06,1.09l.43-.26Zm.12,0c-.1-.16-.1-.42-.02-.66,.09-.25,.26-.44,.42-.5l.44-.11-.12-.49-.46,.12c-.32,.11-.6,.42-.74,.81-.14,.39-.12,.8,.06,1.09l.43-.26Zm.47,.93c-.47-.08-.82-.43-.95-.73l-.46,.2c.23,.52,.76,.93,1.33,1.02l.08-.49Zm-9.51,1.25h-.5s0,.67,0,.67h.5s0-.67,0-.67Zm-23.45,2.33h-.5s0,2.01,0,2.01h.5s0-2.01,0-2.01Zm14.92-3.75h-.5s0,1.37,0,1.37h.5s0-1.37,0-1.37Zm6.01,.66h-.5s0,.74,0,.74h.5s0-.74,0-.74Zm.99-1.25h-.5s0,1.25,0,1.25h.5s0-1.25,0-1.25Zm11.25,1h-.5s0,1.81,0,1.81h.5s0-1.81,0-1.81Zm-7.55,.27h-.5s0,.74,0,.74h.5s0-.74,0-.74Zm-9.13-1.2h-1.03s0,.49,0,.49h1.03s0-.49,0-.49Zm.45,.25h-.5s0,1.65,0,1.65h.5s0-1.65,0-1.65Zm-5.53,1.62h-.5s0,.67,0,.67h.5s0-.67,0-.67Zm15.99,.08h-.5s0,.67,0,.67h.5s0-.67,0-.67Zm-16.02,6.39h-.5s0,.67,0,.67h.5s0-.67,0-.67Zm12.03,.06h-.5s0,.67,0,.67h.5s0-.67,0-.67Zm3.96,.02h-.5s0,.67,0,.67h.5s0-.67,0-.67Zm-27.65-2.39h-1.12s0,.49,0,.49h1.12s0-.49,0-.49Zm0-2.01h-1.12s0,.49,0,.49h1.12s0-.49,0-.49Zm-.87,.25h-.5s0,2.01,0,2.01h.5s0-2.01,0-2.01Zm25.47,5.7h-.5s0,.85,0,.85h.5s0-.85,0-.85Zm-3.45-.83h-.5s0,.81,0,.81h.5s0-.81,0-.81Zm4.69,.02h-.5s0,.81,0,.81h.5s0-.81,0-.81Zm-2.64-9.47h-1.27s0,.49,0,.49h1.27s0-.49,0-.49Zm-.05,10.87h-1.27s0,.49,0,.49h1.27s0-.49,0-.49Zm1.5-10.61h-.5s0,1.25,0,1.25h.5s0-1.25,0-1.25Zm-2.52,10h-.5s0,.85,0,.85h.5s0-.85,0-.85Zm2.27-10.25h-1.2s0,.49,0,.49h1.2s0-.49,0-.49Zm-.05,10.87h-1.2s0,.49,0,.49h1.2s0-.49,0-.49Zm-115.34-9.44l-15.89-.08v.5s15.89,.08,15.89,.08v-.5Zm0,.68l-15.89-.08v.5s15.89,.08,15.89,.08v-.5Zm-.03,5.79l-15.89-.08v.5s15.89,.08,15.89,.08v-.5Zm0,.68l-15.89-.08v.5s15.89,.08,15.89,.08v-.5Zm18.83-7.82h-.5s0,1.79,0,1.79h.5s0-1.79,0-1.79Zm.65-.41h-.5s-.01,2.2-.01,2.2h.5s.01-2.2,.01-2.2Zm-29.16,8.26l-4.69-.02v.5s4.69,.02,4.69,.02v-.5Zm0,.81l-4.69-.02v.5s4.69,.02,4.69,.02v-.5Zm.04-8.76l-4.69-.02v.5s4.69,.02,4.69,.02v-.5Zm28.7-.88l-.47-.17-.23,.66,.47,.17,.23-.66Zm.07,.33h-.53s0,.5,0,.5h.53s0-.5,0-.5Zm.22,.24h-.5s0,.41,0,.41h.5s0-.41,0-.41Zm-.25,.25v-.5s-.52,0-.52,0v.5s.52,0,.52,0Zm-32.15-.96h-.5s0,1.25,0,1.25h.5s0-1.25,0-1.25Zm-61.87,5.47h-.5s0,.68,0,.68h.5s0-.68,0-.68Zm68.13-5.09h-.5s0,1.65,0,1.65h.5s0-1.65,0-1.65Zm3.23,.29h-.5s0,1.37,0,1.37h.5s0-1.37,0-1.37Zm-10.52,.58h-.5s0,.74,0,.74h.5s0-.74,0-.74Zm-55.96,3.32l-5.13-.02v.5s5.12,.02,5.12,.02v-.5Zm89.64-4.43l-.47-.16-.22,.65,.47,.16,.22-.65Zm-19.3,1.92h-.5s0,.67,0,.67h.5s0-.67,0-.67Zm-15.89-.08h-.5s0,.67,0,.67h.5s0-.67,0-.67Zm15.86,6.54h-.5s0,.67,0,.67h.5s0-.67,0-.67Zm-15.89-.08h-.5s0,.67,0,.67h.5s0-.67,0-.67Zm4.99,1.58h-.5s0,.85,0,.85h.5s0-.85,0-.85Zm-3.49-.83h-.5s0,.81,0,.81h.5s0-.81,0-.81Zm4.69,.02h-.5s0,.81,0,.81h.5s0-.81,0-.81Zm-65.74-5.34h-1.12s0,.49,0,.49h1.12s0-.49,0-.49Zm0,2.01h-1.12s0,.49,0,.49h1.12s0-.49,0-.49Zm.26-1.76h-.5s0,.65,0,.65h.5s0-.65,0-.65Zm-1.13,0h-.5s0,2.01,0,2.01h.5s0-2.01,0-2.01Zm65.46-4.12h-.5s0,1.25,0,1.25h.5s0-1.25,0-1.25Zm-2.52,10h-.5s0,.85,0,.85h.5s0-.85,0-.85Zm2.27-10.25h-2.47s0,.49,0,.49h2.47s0-.49,0-.49Zm-.05,10.87h-2.47s0,.49,0,.49h2.47s0-.49,0-.49Zm-59.16-5.39l-5.13-.02v.5s5.12,.02,5.12,.02v-.5Zm60.66-3.97h-.5s0,.74,0,.74h.5s0-.74,0-.74Zm3.61-1.14h-1.03s0,.49,0,.49h1.03s0-.49,0-.49Zm.45,.25h-.5s0,1.65,0,1.65h.5s0-1.65,0-1.65Zm2.77,.04h-1.03s0,.49,0,.49h1.03s0-.49,0-.49Zm.45,.25h-.5s0,1.37,0,1.37h.5s0-1.37,0-1.37Zm21.24-.71v-.85s.23-.62,.23-.62l-.21-.08c.03-.12,.06-.19,.09-.22l-.11-.21-.04,.25,.07-.49h-.16s-.09,.07-.09,.07c-.24,.19-.33,.79-.35,1.09l.07,1.07h.5Zm.36-1.95l-.43,.26c.11,.18,.21,1.26,.12,1.92l.5,.07c.09-.61,.03-1.89-.19-2.25Zm-.36-.27h-.53s0,.5,0,.5h.53s0-.5,0-.5Zm-.6,1.16c.04-.4,.13-.66,.17-.71l-.11-.21-.04,.25,.07-.49h-.16s-.09,.07-.09,.07c-.24,.19-.33,.79-.35,1.07v1.26s.49,0,.49,0V1.17Zm.3,1.8h-.5s0,.41,0,.41h.5s0-.41,0-.41Zm.05-.5l-.16-.47-.32,.11,.16,.47,.32-.11Zm.73-.17l-.11-1.54-.5,.04,.11,1.54,.5-.04Zm.07,.26l-.49-.12-.2,.81,.49,.12,.2-.81Zm92.12,151.69l-.38-.33-5.55,6.45,.38,.33,5.55-6.45Zm-5.27,3.41c.29,0,.55-.12,.67-.28,.19-.16,.3-.42,.29-.72,0-.29-.12-.55-.28-.67-.16-.19-.4-.29-.72-.29-.28,0-.53,.11-.69,.29-.17,.16-.28,.42-.27,.7,0,.29,.12,.55,.28,.67,.15,.18,.41,.29,.69,.29h.02Zm.34-1.3c.07,.06,.12,.18,.12,.32,0,.14-.04,.27-.15,.36-.06,.07-.18,.12-.32,.12-.17,0-.27-.04-.36-.15-.07-.06-.12-.18-.12-.32,0-.14,.04-.26,.11-.32l.04-.04c.06-.07,.18-.12,.32-.12h.01c.13,0,.26,.05,.35,.15Zm-.9-1.93c.29,0,.55-.12,.67-.28,.19-.16,.3-.42,.29-.71,0-.29-.12-.55-.28-.67-.16-.19-.44-.29-.71-.29-.28,0-.54,.11-.69,.29-.17,.16-.28,.42-.27,.7,0,.29,.12,.55,.28,.67,.15,.18,.41,.29,.69,.29h.02Zm.34-1.3c.07,.06,.12,.18,.12,.32,0,.14-.04,.26-.15,.36-.06,.07-.18,.12-.32,.12-.14,0-.26-.04-.36-.15-.07-.06-.12-.18-.12-.32,0-.14,.04-.26,.11-.32l.03-.04c.06-.07,.18-.12,.32-.12h.01c.13,0,.26,.05,.35,.15Zm7.14,10.84c.35,.02,.74-.15,1.03-.46,.3-.32,.46-.72,.41-1.03,.03-.36-.14-.76-.46-1.06-.32-.3-.72-.46-1.03-.41-.37-.03-.76,.15-1.06,.46-.3,.32-.46,.72-.41,1.03-.03,.36,.15,.76,.46,1.06,.28,.27,.63,.42,.95,.42h.1Zm-.03-2.47c.21-.03,.47,.08,.67,.28,.21,.2,.33,.45,.31,.71,.03,.21-.08,.47-.28,.67-.2,.21-.45,.33-.66,.31h-.03s-.03,0-.03,0c-.2,.03-.47-.08-.67-.28-.21-.2-.33-.45-.31-.71-.03-.21,.08-.46,.28-.67,.19-.2,.42-.31,.67-.31h.04Zm-23.51,65.15c.19-.15,.31-.36,.3-.51v-.1s.09,.02,.09,.02l-.07-.07c0-.16-.07-.33-.18-.47-.15-.19-.36-.31-.56-.31v.13c-.14-.07-.3-.07-.46,0-.25,.1-.42,.36-.42,.56-.05,.2,.02,.43,.16,.62,.15,.19,.35,.3,.51,.3h0s.13,.01,.13,.01c.17,0,.34-.06,.49-.18Zm-.53-.81l.08,.02,.07,.15-.18,.08-.1-.16,.13-.09h0Zm28.48-63.75l-11.97-11.94-.35,.35,11.97,11.94,.35-.35Zm-3.98,3.99l-11.97-11.94-.35,.35,11.97,11.94,.35-.35Zm3.98-3.63l-.35-.35-3.98,3.99,.35,.35,3.98-3.99Zm-2.84-.06c.03-.36-.15-.76-.46-1.06-.32-.3-.73-.45-1.08-.41l.06,.5c.21-.02,.47,.08,.67,.28,.21,.2,.33,.45,.31,.69,.02,.28-.16,.67-.47,.85l.25,.43c.45-.26,.75-.81,.72-1.28Zm10.31-30.44l-2.99-.67-.11,.49,2.99,.67,.11-.49Zm.12-.53l-2.99-.67-.11,.49,2.99,.67,.11-.49Zm-10.93,30.1l-.21-.34-.43,.26,.21,.34,.43-.26Zm-8.14-7.17l-.24-.44c-.17,.1-.45,.04-.58-.11-.07-.06-.12-.18-.12-.31,0-.14,.05-.26,.12-.32l-.31-.39c-.19,.16-.31,.42-.31,.71,0,.29,.11,.55,.28,.68,.17,.19,.44,.29,.71,.29,.16,0,.32-.03,.46-.11Zm-.26,2.66c-.07-.06-.12-.18-.12-.31,0-.14,.05-.26,.16-.36,.06-.07,.19-.12,.34-.12h0c.14,0,.27,.05,.35,.14,.11,.09,.17,.32,.1,.48l.46,.2c.15-.34,.05-.81-.2-1.03-.15-.18-.42-.29-.71-.29h0c-.29,0-.57,.11-.69,.27-.19,.16-.31,.42-.31,.71,0,.29,.11,.55,.31,.7l.31-.39Zm-13.42,61.97l-.46-.18-2.67,6.73,.46,.18,2.67-6.73Zm-.66-.24l-.46-.18-2.74,6.91,.46,.18,2.74-6.91Zm11.4-72.82l-.38-.33-2.02,2.35,.38,.33,2.02-2.35Zm-2.51,3.73c.42-.46,.73-1.23,.53-1.66l-.45,.22c.07,.14-.07,.7-.45,1.11-.35,.43-.83,.6-.94,.55l-.21,.45,.25,.05c.42,0,.96-.34,1.28-.73Zm5.28,10.71l-8.33-8.34-.35,.35,8.33,8.34,.35-.35Zm5.55-6.45l-8.33-8.34-.35,.35,8.33,8.34,.35-.35Zm-12.07-3.65l-.38-.33-1.81,2.1,.38,.33,1.81-2.1Zm16.84,6.04c.37-.09,.71-.39,.92-.81,.21-.42,.24-.89,.1-1.2-.09-.38-.39-.73-.82-.94-.42-.21-.89-.24-1.2-.1-.38,.09-.73,.39-.94,.82-.21,.42-.24,.89-.1,1.2,.09,.38,.39,.73,.81,.94,.24,.12,.5,.18,.74,.18,.17,0,.34-.03,.48-.09Zm-.02-2.5c.29,.14,.5,.37,.57,.65,.1,.21,.07,.53-.07,.81-.14,.29-.37,.5-.61,.55l-.05,.02c-.22,.1-.53,.07-.82-.07-.29-.14-.5-.37-.57-.65-.1-.21-.07-.53,.07-.82,.14-.29,.37-.5,.65-.57,.09-.04,.19-.06,.3-.06,.16,0,.34,.05,.52,.13Zm2.69-4.22c.37-.09,.71-.39,.92-.81,.21-.43,.24-.89,.1-1.2-.09-.38-.39-.73-.82-.94-.43-.21-.89-.24-1.2-.1-.38,.09-.73,.39-.94,.82-.21,.43-.24,.89-.1,1.2,.09,.38,.39,.73,.82,.94,.24,.12,.5,.18,.74,.18,.17,0,.34-.03,.48-.09Zm-.02-2.5c.29,.14,.5,.37,.57,.65,.1,.22,.07,.53-.07,.82-.14,.29-.37,.5-.6,.55l-.05,.02c-.22,.1-.53,.07-.82-.07-.29-.14-.5-.38-.57-.65-.1-.22-.07-.53,.07-.82,.14-.29,.37-.5,.65-.57,.09-.04,.19-.06,.3-.06,.16,0,.35,.05,.52,.13Zm-11.06,30.87c.37-.09,.71-.39,.92-.81,.21-.43,.24-.89,.1-1.2-.09-.38-.39-.73-.82-.94-.43-.21-.89-.24-1.2-.1-.38,.09-.73,.39-.94,.81-.21,.43-.24,.89-.1,1.2,.09,.38,.39,.73,.82,.94,.24,.12,.5,.18,.74,.18,.17,0,.34-.03,.48-.09Zm-.02-2.5c.29,.14,.5,.37,.57,.65,.1,.22,.07,.53-.07,.82-.14,.29-.37,.5-.61,.55l-.05,.02c-.21,.1-.53,.07-.81-.07-.29-.14-.5-.37-.57-.65-.1-.22-.07-.53,.07-.82,.14-.29,.37-.5,.65-.57,.09-.04,.19-.06,.3-.06,.16,0,.35,.05,.52,.13Zm2.83-4.56c.37-.09,.71-.39,.92-.81,.21-.43,.24-.89,.1-1.2-.09-.38-.39-.73-.82-.94-.43-.21-.89-.24-1.2-.1-.38,.09-.73,.39-.94,.81-.21,.43-.24,.89-.1,1.2,.09,.38,.39,.73,.82,.94,.24,.12,.5,.18,.74,.18,.17,0,.34-.03,.48-.09Zm-.02-2.5c.29,.14,.5,.37,.57,.65,.1,.22,.07,.53-.07,.82-.14,.29-.37,.5-.61,.55l-.05,.02c-.22,.1-.53,.07-.81-.07-.29-.14-.5-.37-.57-.65-.1-.22-.07-.53,.07-.82,.14-.29,.37-.5,.65-.57,.09-.04,.19-.06,.3-.06,.16,0,.35,.05,.52,.13Zm-65.38-17.72l-.5-.04-.65,7.94,.5,.04,.65-7.94Zm-.85,7.67l-70.74-14.56-.1,.49,70.74,14.56,.1-.49Zm.65-7.94l-69.67-12.5-.09,.49,69.67,12.5,.09-.49Zm3.26,3.43l-.5-.04-.12,1.42,.5,.04,.12-1.42Zm-96.61-22.64l-22.46-3.77-.08,.49,22.46,3.77,.08-.49Zm13.23,4.84l-42.06-7.55-.09,.49,42.06,7.55,.09-.49Zm83.18,19.39l-.34-.36-3.58,3.36,.34,.36,3.58-3.36Zm-91.73-15.19l-33.13-6.82-.1,.49,33.13,6.82,.1-.49Zm-32.93-6.59l-.37-4.92-.5,.04,.37,4.92,.5-.04Zm125.39,14.09l-.5-.04-.44,5.12,.5,.04,.44-5.12Zm-.09,.17l-.32-.39-3.58,2.95,.32,.39,3.58-2.95Zm-119.51-19.98l-.08-.49-6.37,1.06,.08,.49,6.37-1.06Zm119.39,19.54l-66.02-11.08-.08,.49,66.02,11.08,.08-.49ZM733.05,11.16l-45.56-.22v.5s45.55,.22,45.55,.22v-.5Zm.03-5.64l-45.56-.22v.5s45.55,.22,45.55,.22v-.5Zm-45.58,5.41l-7.96-.04v.5s7.96,.04,7.96,.04v-.5Zm-7.68-5.42h-.5s-.03,5.63-.03,5.63h.5s.03-5.63,.03-5.63Zm53.52,.26h-.5s-.03,5.63-.03,5.63h.5s.03-5.63,.03-5.63Zm-45.56-.22h-.5s-.03,5.63-.03,5.63h.5s.03-5.63,.03-5.63Zm-.25-.25l-7.96-.04v.5s7.96,.04,7.96,.04v-.5Zm-40.28,5.44l-127.36-.62v.5s127.36,.62,127.36,.62v-.5Zm-127.08-6h-.5s-.03,5.63-.03,5.63h.5s.03-5.63,.03-5.63Zm127.11,.37l-127.36-.62v.5s127.36,.62,127.36,.62v-.5Zm3.1,.27h-.5s-.03,5.63-.03,5.63h.5s.03-5.63,.03-5.63Zm-.28,5.38h-2.85s0,.49,0,.49h2.85s0-.49,0-.49Zm.03-5.64h-2.85s0,.49,0,.49h2.85s0-.49,0-.49Zm36.45,214.98l-7.95-2.89-.17,.47,7.95,2.89,.17-.47Zm12.54-58.55l-.47-.17-20.33,55.98,.47,.17,20.33-55.98Zm33.79-68.27l-.47-.17-25.06,69.01,.47,.17,25.06-69.01Zm-7.95-2.89l-.47-.17-23.72,65.31,.47,.17,23.72-65.31Zm7.8,2.57l-7.95-2.89-.17,.47,7.95,2.89,.17-.47Zm-24.96,69.45l-.47-.17-21.07,58.01,.47,.17,21.07-58.01Zm-4.24-1.03l-.17-.47-.73,.26,.17,.47,.73-.26Zm-7.71-10.9l-.35-.35-3.98,3.99,.35,.35,3.98-3.99Zm7.69,14.49c.63,.05,1.3-.26,1.83-.81,.53-.56,.8-1.26,.72-1.82,.05-.62-.26-1.3-.81-1.83-.55-.52-1.24-.79-1.85-.73-.64-.05-1.29,.27-1.81,.81-.53,.56-.8,1.26-.72,1.82-.05,.62,.26,1.3,.81,1.83,.49,.47,1.1,.74,1.62,.74h.2Zm-.11-4.71h.03s.03,0,.03,0c.47-.06,1.01,.16,1.46,.59,.45,.43,.7,.96,.66,1.48,.06,.47-.16,1.01-.59,1.46-.43,.45-.97,.7-1.48,.66-.47,.06-1.01-.16-1.46-.59s-.7-.96-.66-1.48c-.06-.47,.16-1.01,.59-1.46,.4-.42,.9-.66,1.35-.66h.09Zm9.19-29.25l-.49-.11-.12,.53,.49,.11,.12-.53Zm3.14,.71l-.49-.11-.12,.53,.49,.11,.12-.53Zm-160.37,5.25l-.02-1.05h-.5s.02,1.06,.02,1.06h.5Zm1.71,.47l-.03-1.56h-.5s.03,1.57,.03,1.57h.5Zm-14.89-4.39l-.08-2.08-.5,.02,.08,2.08,.5-.02Zm.6,.02l-.08-2.07-.5,.02,.08,2.07,.5-.02Zm-.5-2.7c-.12-.01-.25-.15-.32-.32l-.47,.18c.14,.36,.42,.62,.74,.65l.05-.5Zm.25-.02l-.4-.07-.08,.49,.4,.07,.08-.49Zm-.58-.33c-.16-.31-.03-1.06,.22-1.29l.47-.19-.19-.46-.5,.2-.06,.04c-.45,.35-.65,1.38-.37,1.93l.45-.22Zm.27,.76c-.2-.02-.4-.22-.5-.5l-.47,.17c.17,.46,.53,.78,.92,.82l.05-.5Zm1.16-1.12l-.06-.87v-.07c-.15-.37-.44-.63-.76-.66l-.05,.5c.11,.01,.24,.13,.31,.3l.06,.83,.5-.03Zm-1.67,.6c-.24-.47-.04-1.54,.32-1.87l.65-.26-.19-.46-.68,.28-.06,.04c-.57,.45-.84,1.81-.49,2.51l.45-.23Zm1.24-.65l-.06-.94-.37-.48-.4,.3,.28,.36,.06,.79,.5-.03Zm-1.68,.6c-.24-.47-.04-1.54,.32-1.87l.65-.26-.19-.46-.68,.27-.06,.04c-.58,.45-.84,1.81-.49,2.51l.45-.23Zm1.34-2.56l-.44-.05-.06,.5,.44,.05,.06-.5Zm1.02,2.13l-.07-1.23-.02-.07c-.17-.47-.54-.8-.94-.84l-.04,.5c.19,.02,.39,.21,.5,.48l.07,1.19,.5-.03Zm-.88,1.21v-.41s-.51,.02-.51,.02v.41s.51-.02,.51-.02Zm.41-1.56l-.43-.05-.06,.5,.43,.05,.06-.5Zm-1.37,1.3c-.2-.02-.4-.22-.51-.5l-.47,.18c.17,.46,.54,.78,.92,.82l.05-.5ZM715.77,2.72l-.04-.89-.02-.09c-.2-.48-.75-.83-1.28-.82v.5c.33-.03,.68,.23,.8,.47l.03,.84,.5-.02Zm-1.22,1.01v-.5c-.36,.03-.71-.26-.82-.51l-.46,.19c.2,.47,.73,.81,1.24,.82h.04Zm1.54-2.16c-.25-.61-.96-1.07-1.65-1.05v.5s.05,0,.05,0c.52,0,.99,.38,1.15,.76,.15,.31,.16,.72,.03,1.05l.46,.19c.19-.46,.18-1.02-.03-1.45Zm-1.35,1.91h-.5s0,.41,0,.41h.5s0-.41,0-.41Zm.13,0h-.5s-.01,2.2-.01,2.2h.5s.01-2.2,.01-2.2Zm-.5-.25c-.34,0-.65-.27-.76-.51l-.46,.2c.2,.46,.7,.8,1.2,.81v-.5Zm1.53-.75h-.37s0,.5,0,.5h.37s0-.5,0-.5Zm-2.67,.38c-.15-.24-.16-.62-.03-.98,.13-.36,.38-.64,.62-.73l.68-.15-.11-.49-.7,.16c-.42,.15-.77,.53-.96,1.04-.18,.5-.16,1.03,.07,1.41l.43-.26Zm2.98-1.3c-.26-.61-.99-1.07-1.65-1.05v.5s.05,0,.05,0c.52,0,.99,.38,1.15,.76,.13,.27,.16,.61,.08,.91l.48,.14c.12-.41,.08-.88-.1-1.25Zm-1.29,1.91h-.5s0,.41,0,.41h.5s0-.41,0-.41Zm-1.31-.79c-.1-.16-.1-.42-.02-.66,.09-.25,.26-.44,.41-.5l.5-.11-.11-.49-.53,.12c-.32,.11-.6,.42-.74,.81-.14,.39-.12,.8,.06,1.09l.43-.26Zm.12,0c-.1-.16-.1-.42-.02-.66,.09-.25,.26-.44,.42-.5l.44-.11-.12-.49-.46,.12c-.32,.11-.6,.42-.74,.81-.14,.39-.12,.8,.06,1.09l.43-.26Zm.47,.93c-.47-.08-.82-.43-.95-.73l-.46,.2c.23,.52,.76,.93,1.33,1.02l.08-.49Zm.21,.25h-.5s0,1.81,0,1.81h.5s0-1.81,0-1.81Zm-105.63-.49h-.5s0,1.79,0,1.79h.5s0-1.79,0-1.79Zm.65-.41h-.5s-.01,2.2-.01,2.2h.5s.01-2.2,.01-2.2Zm-.43-.58l-.47-.17-.23,.66,.47,.17,.23-.66Zm.07,.33h-.53s0,.5,0,.5h.53s0-.5,0-.5Zm.22,.24h-.5s0,.41,0,.41h.5s0-.41,0-.41Zm-.25,.25v-.5s-.52,0-.52,0v.5s.52,0,.52,0Zm.49-.82l-.47-.16-.22,.65,.47,.16,.22-.65Zm-.45-.18v-.85s.23-.62,.23-.62l-.21-.08c.03-.12,.06-.19,.09-.22l-.11-.21-.04,.25,.07-.49h-.16s-.09,.07-.09,.07c-.24,.19-.33,.79-.35,1.09l.07,1.07h.5Zm.36-1.95l-.43,.26c.11,.18,.21,1.26,.12,1.92l.5,.07c.09-.61,.03-1.89-.19-2.25Zm-.36-.27h-.53s0,.5,0,.5h.53s0-.5,0-.5Zm-.6,1.16c.04-.4,.13-.66,.17-.71l-.11-.21-.04,.25,.07-.49h-.16s-.09,.07-.09,.07c-.24,.19-.33,.79-.35,1.07v1.26s.49,0,.49,0V1.17Zm.3,1.8h-.5s0,.41,0,.41h.5s0-.41,0-.41Zm.05-.5l-.16-.47-.32,.11,.16,.47,.32-.11Zm.73-.17l-.11-1.54-.5,.04,.11,1.54,.5-.04Zm.07,.26l-.49-.12-.2,.81,.49,.12,.2-.81Zm105.67,129.38l-2.99-.67-.11,.49,2.99,.67,.11-.49Zm.12-.53l-2.99-.67-.11,.49,2.99,.67,.11-.49Zm-2.8-.37l-.49-.11-.12,.53,.49,.11,.12-.53Zm3.14,.71l-.49-.11-.12,.53,.49,.11,.12-.53Z"/>
</svg>