<?xml version="1.0" encoding="UTF-8"?>
<svg id="p1" xmlns="http://www.w3.org/2000/svg" viewBox="0 0 1403.77 455.06">
  <defs>
    <style>
      .cls-1 {
        stroke: #313b47;
        stroke-miterlimit: 10;
      }

      .cls-1, .cls-2 {
        fill: none;
        stroke-width: .1px;
      }

      .cls-2 {
        stroke: #394047;
      }
    </style>
  </defs>
  <rect class="cls-2" x="873.17" y="173.33" width="54.85" height="5.04"/>
  <line class="cls-2" x1="926.67" y1="278.75" x2="873.2" y2="270.03"/>
  <line class="cls-2" x1="928.02" y1="277.06" x2="875.54" y2="268.61"/>
  <line class="cls-2" x1="928.04" y1="277.03" x2="926.63" y2="278.75"/>
  <line class="cls-2" x1="928.02" y1="277.03" x2="927.94" y2="281.22"/>
  <line class="cls-2" x1="927.98" y1="281.17" x2="926.61" y2="283"/>
  <line class="cls-2" x1="926.67" y1="278.75" x2="926.59" y2="283"/>
  <line class="cls-2" x1="926.67" y1="283" x2="873.19" y2="274.11"/>
  <line class="cls-2" x1="873.2" y1="274.15" x2="873.2" y2="270.03"/>
  <line class="cls-2" x1="873.08" y1="270.08" x2="875.54" y2="268.61"/>
  <path class="cls-2" d="M901.86,233.13c-3.16,0-5.72-2.56-5.72-5.72s2.56-5.72,5.72-5.72,5.72,2.56,5.72,5.72-2.56,5.72-5.72,5.72"/>
  <path d="M899.86,230.57c-.02,.08-.07,.13-.13,.16-.07,.03-.13,.04-.2,.02-.07-.02-.12-.06-.16-.13-.04-.07-.04-.13-.02-.2l1.85-6.16c.02-.07,.07-.12,.13-.16,.07-.04,.14-.04,.21-.02,.07,.02,.12,.07,.16,.13s.04,.14,.02,.21l-1.85,6.15Zm3.02-2.4c.07,0,.14,.03,.19,.08,.05,.05,.08,.12,.08,.19s-.03,.14-.08,.19c-.05,.05-.12,.08-.19,.08h-2.05c-.07,0-.14-.03-.19-.08-.05-.05-.08-.12-.08-.19s.03-.14,.08-.19c.05-.05,.12-.08,.19-.08h2.05Zm1.17,2.59s-.09-.03-.12-.06c-.04-.03-.06-.08-.08-.12l-1.84-6.15c-.02-.05-.02-.1,0-.14,.01-.04,.03-.08,.07-.12s.07-.06,.12-.08c.07-.02,.15-.01,.21,.02,.07,.04,.11,.09,.13,.16l1.85,6.16c.02,.07,.01,.14-.02,.2-.04,.07-.09,.11-.16,.13-.05,.01-.09,.01-.14,0Z"/>
  <line class="cls-1" x1="1333.39" y1="167.75" x2="1397.28" y2="167.75"/>
  <line class="cls-1" x1="1397.28" y1="161.79" x2="1333.39" y2="161.79"/>
  <polyline class="cls-1" points="1397.28 167.75 1403.24 167.75 1403.24 161.79 1397.28 161.79"/>
  <line class="cls-1" x1="1327.43" y1="122.63" x2="1327.43" y2="128.6"/>
  <line class="cls-1" x1="1333.39" y1="122.63" x2="1327.43" y2="122.63"/>
  <line class="cls-1" x1="1327.43" y1="206.97" x2="1333.39" y2="206.97"/>
  <line class="cls-1" x1="1327.43" y1="201.01" x2="1327.43" y2="206.97"/>
  <line class="cls-1" x1="1333.39" y1="128.6" x2="1333.39" y2="122.63"/>
  <line class="cls-1" x1="1327.43" y1="128.6" x2="1333.39" y2="128.6"/>
  <line class="cls-1" x1="1333.39" y1="206.97" x2="1333.39" y2="201.01"/>
  <line class="cls-1" x1="1333.39" y1="167.75" x2="1397.28" y2="167.75"/>
  <line class="cls-1" x1="1397.28" y1="161.79" x2="1333.39" y2="161.79"/>
  <polyline class="cls-1" points="1397.28 167.75 1403.24 167.75 1403.24 161.79 1397.28 161.79"/>
  <line class="cls-1" x1="1333.39" y1="161.79" x2="1333.39" y2="167.75"/>
  <line class="cls-1" x1="1327.43" y1="122.63" x2="1327.43" y2="128.6"/>
  <line class="cls-1" x1="1333.39" y1="122.63" x2="1327.43" y2="122.63"/>
  <line class="cls-1" x1="1327.43" y1="206.97" x2="1333.39" y2="206.97"/>
  <line class="cls-1" x1="1327.43" y1="201.01" x2="1327.43" y2="206.97"/>
  <line class="cls-1" x1="1327.43" y1="201" x2="1333.39" y2="201"/>
  <line class="cls-1" x1="1397.28" y1="161.79" x2="1397.28" y2="167.75"/>
  <line class="cls-1" x1="1275.11" y1="127.05" x2="1275.13" y2="110.73"/>
  <line class="cls-1" x1="1291.13" y1="192.04" x2="1291.82" y2="152.44"/>
  <line class="cls-1" x1="1250.58" y1="165.72" x2="1291.29" y2="183"/>
  <line class="cls-1" x1="1291.35" y1="179.64" x2="1254.51" y2="164.34"/>
  <line class="cls-1" x1="1271.59" y1="109.88" x2="1271.61" y2="115.67"/>
  <line class="cls-1" x1="1278.71" y1="119.59" x2="1278.76" y2="109.91"/>
  <line class="cls-1" x1="1275.09" y1="150.97" x2="1275.09" y2="157.13"/>
  <line class="cls-1" x1="1275.1" y1="134.98" x2="1275.1" y2="138.13"/>
  <line class="cls-1" x1="1271.7" y1="155.88" x2="1271.69" y2="150.67"/>
  <line class="cls-1" x1="1271.66" y1="137.86" x2="1271.65" y2="133.91"/>
  <line class="cls-1" x1="1278.63" y1="138.41" x2="1278.64" y2="136.07"/>
  <line class="cls-1" x1="1223.07" y1="184.2" x2="1221.11" y2="146.22"/>
  <line class="cls-1" x1="1219.93" y1="123.3" x2="1224.69" y2="122.22"/>
  <line class="cls-1" x1="1219.81" y1="182.49" x2="1223.07" y2="184.2"/>
  <line class="cls-1" x1="1216.51" y1="122.19" x2="1219.81" y2="182.49"/>
  <line class="cls-1" x1="1221.25" y1="121.13" x2="1224.69" y2="122.22"/>
  <line class="cls-1" x1="1227.52" y1="182.54" x2="1223.07" y2="184.2"/>
  <line class="cls-1" x1="1275.13" y1="110.73" x2="1278.76" y2="109.91"/>
  <line class="cls-1" x1="1271.59" y1="109.88" x2="1275.13" y2="110.73"/>
  <line class="cls-1" x1="1275.22" y1="109.07" x2="1271.59" y2="109.88"/>
  <line class="cls-1" x1="1278.76" y1="109.91" x2="1275.22" y2="109.07"/>
  <line class="cls-1" x1="1278.53" y1="163.62" x2="1278.58" y2="151.27"/>
  <line class="cls-1" x1="1292.2" y1="130.35" x2="1296.77" y2="131.06"/>
  <line class="cls-1" x1="1295.41" y1="193.96" x2="1296.77" y2="131.06"/>
  <line class="cls-1" x1="1296.17" y1="129.42" x2="1292.08" y2="130.39"/>
  <line class="cls-1" x1="1299.34" y1="192.32" x2="1300.96" y2="130.13"/>
  <line class="cls-1" x1="1250.69" y1="170.52" x2="1291.2" y2="188.3"/>
  <line class="cls-1" x1="1225.25" y1="134.19" x2="1224.69" y2="122.22"/>
  <line class="cls-1" x1="1227.52" y1="182.54" x2="1225.83" y2="146.64"/>
  <line class="cls-1" x1="1275.11" y1="127.05" x2="1275.13" y2="110.73"/>
  <line class="cls-1" x1="1291.13" y1="192.04" x2="1291.82" y2="152.44"/>
  <line class="cls-1" x1="1250.58" y1="165.72" x2="1291.29" y2="183"/>
  <line class="cls-1" x1="1254.51" y1="164.34" x2="1250.58" y2="165.72"/>
  <line class="cls-1" x1="1291.35" y1="179.64" x2="1254.51" y2="164.34"/>
  <line class="cls-1" x1="1271.59" y1="109.88" x2="1271.61" y2="115.67"/>
  <line class="cls-1" x1="1278.71" y1="119.59" x2="1278.76" y2="109.91"/>
  <line class="cls-1" x1="1220.51" y1="134.49" x2="1219.93" y2="123.3"/>
  <line class="cls-1" x1="1275.09" y1="150.97" x2="1275.09" y2="157.13"/>
  <line class="cls-1" x1="1275.1" y1="134.98" x2="1275.1" y2="138.13"/>
  <line class="cls-1" x1="1271.7" y1="155.88" x2="1271.69" y2="150.67"/>
  <line class="cls-1" x1="1271.66" y1="137.86" x2="1271.65" y2="133.91"/>
  <line class="cls-1" x1="1278.63" y1="138.41" x2="1278.64" y2="136.07"/>
  <line class="cls-1" x1="1223.07" y1="184.2" x2="1221.11" y2="146.22"/>
  <line class="cls-1" x1="1219.93" y1="123.3" x2="1224.69" y2="122.22"/>
  <line class="cls-1" x1="1216.51" y1="122.19" x2="1219.93" y2="123.3"/>
  <line class="cls-1" x1="1219.81" y1="182.49" x2="1223.07" y2="184.2"/>
  <line class="cls-1" x1="1216.51" y1="122.19" x2="1221.25" y2="121.13"/>
  <line class="cls-1" x1="1216.51" y1="122.19" x2="1219.81" y2="182.49"/>
  <line class="cls-1" x1="1221.25" y1="121.13" x2="1224.69" y2="122.22"/>
  <line class="cls-1" x1="1227.52" y1="182.54" x2="1223.07" y2="184.2"/>
  <line class="cls-1" x1="1275.13" y1="110.73" x2="1278.76" y2="109.91"/>
  <line class="cls-1" x1="1271.59" y1="109.88" x2="1275.13" y2="110.73"/>
  <line class="cls-1" x1="1271.72" y1="163.58" x2="1275.08" y2="164.9"/>
  <line class="cls-1" x1="1275.22" y1="109.07" x2="1271.59" y2="109.88"/>
  <line class="cls-1" x1="1278.76" y1="109.91" x2="1275.22" y2="109.07"/>
  <line class="cls-1" x1="1278.53" y1="163.62" x2="1278.58" y2="151.27"/>
  <line class="cls-1" x1="1275.08" y1="164.9" x2="1278.53" y2="163.62"/>
  <line class="cls-1" x1="1300.97" y1="130.13" x2="1296.17" y2="129.42"/>
  <line class="cls-1" x1="1295.41" y1="193.96" x2="1296.77" y2="131.06"/>
  <line class="cls-1" x1="1300.96" y1="130.13" x2="1296.77" y2="131.06"/>
  <line class="cls-1" x1="1295.41" y1="193.96" x2="1291.13" y2="192.04"/>
  <line class="cls-1" x1="1299.34" y1="192.32" x2="1300.96" y2="130.13"/>
  <line class="cls-1" x1="1295.41" y1="193.96" x2="1299.34" y2="192.1"/>
  <line class="cls-1" x1="1250.69" y1="170.52" x2="1291.2" y2="188.3"/>
  <line class="cls-1" x1="1250.69" y1="170.52" x2="1250.58" y2="165.72"/>
  <line class="cls-1" x1="1225.25" y1="134.19" x2="1224.69" y2="122.22"/>
  <line class="cls-1" x1="1227.52" y1="182.54" x2="1225.83" y2="146.64"/>
  <line class="cls-1" x1="1249.68" y1="127.11" x2="1288.79" y2="139.21"/>
  <line class="cls-1" x1="1292.13" y1="134.39" x2="1249.55" y2="121.89"/>
  <line class="cls-1" x1="1249.68" y1="127.11" x2="1292.03" y2="140.18"/>
  <line class="cls-1" x1="1253.67" y1="120.9" x2="1292.17" y2="131.95"/>
  <line class="cls-1" x1="1253.67" y1="120.9" x2="1249.55" y2="121.89"/>
  <line class="cls-1" x1="1249.68" y1="127.11" x2="1249.55" y2="121.89"/>
  <line class="cls-1" x1="1294.89" y1="96.06" x2="1294.89" y2="52.46"/>
  <line class="cls-1" x1="1255.74" y1="96.06" x2="1255.74" y2="28.49"/>
  <line class="cls-1" x1="1261.7" y1="96.06" x2="1261.7" y2="28.26"/>
  <line class="cls-1" x1="1216.51" y1="96.06" x2="1216.51" y2="52.61"/>
  <line class="cls-1" x1="1222.47" y1="96.06" x2="1222.47" y2="52.61"/>
  <line class="cls-1" x1="1216.51" y1="96.06" x2="1222.47" y2="96.06"/>
  <line class="cls-1" x1="1294.89" y1="39.68" x2="1294.89" y2="27.91"/>
  <line class="cls-1" x1="1300.85" y1="39.68" x2="1300.85" y2="27.91"/>
  <line class="cls-1" x1="1294.89" y1="27.91" x2="1300.85" y2="27.91"/>
  <line class="cls-1" x1="1300.85" y1="96.06" x2="1300.85" y2="52.46"/>
  <line class="cls-1" x1="1294.89" y1="96.06" x2="1300.85" y2="96.06"/>
  <line class="cls-1" x1="1255.74" y1="96.06" x2="1261.7" y2="96.06"/>
  <line class="cls-1" x1="1294.89" y1="96.06" x2="1294.89" y2="52.46"/>
  <line class="cls-1" x1="1255.74" y1="96.06" x2="1255.74" y2="27.86"/>
  <line class="cls-1" x1="1261.7" y1="96.06" x2="1261.7" y2="27.91"/>
  <line class="cls-1" x1="1216.51" y1="39.83" x2="1216.51" y2="27.91"/>
  <line class="cls-1" x1="1222.47" y1="39.83" x2="1222.47" y2="27.91"/>
  <line class="cls-1" x1="1216.51" y1="96.06" x2="1216.51" y2="52.61"/>
  <line class="cls-1" x1="1216.51" y1="27.91" x2="1222.47" y2="27.91"/>
  <line class="cls-1" x1="1222.47" y1="96.06" x2="1222.47" y2="52.61"/>
  <line class="cls-1" x1="1216.51" y1="96.06" x2="1222.47" y2="96.06"/>
  <line class="cls-1" x1="1294.89" y1="39.68" x2="1294.89" y2="27.91"/>
  <line class="cls-1" x1="1300.85" y1="39.68" x2="1300.85" y2="27.91"/>
  <line class="cls-1" x1="1294.89" y1="27.91" x2="1300.85" y2="27.91"/>
  <line class="cls-1" x1="1255.7" y1="27.91" x2="1261.75" y2="27.91"/>
  <line class="cls-1" x1="1300.85" y1="96.06" x2="1300.85" y2="52.46"/>
  <line class="cls-1" x1="1294.89" y1="96.06" x2="1300.85" y2="96.06"/>
  <line class="cls-1" x1="1255.74" y1="96.06" x2="1261.7" y2="96.06"/>
  <line class="cls-1" x1="1397.28" y1="96.06" x2="1403.24" y2="96.06"/>
  <line class="cls-1" x1="1397.28" y1="96.06" x2="1397.28" y2="91.8"/>
  <line class="cls-1" x1="1403.24" y1="96.06" x2="1403.24" y2="28.49"/>
  <line class="cls-1" x1="1327.43" y1="96.06" x2="1333.39" y2="96.06"/>
  <line class="cls-1" x1="1327.43" y1="96.06" x2="1327.43" y2="27.91"/>
  <line class="cls-1" x1="1333.39" y1="39.83" x2="1333.39" y2="27.91"/>
  <line class="cls-1" x1="1333.39" y1="96.06" x2="1333.39" y2="52.61"/>
  <line class="cls-1" x1="1397.28" y1="85.83" x2="1397.28" y2="52.61"/>
  <line class="cls-1" x1="1397.28" y1="33.9" x2="1397.28" y2="27.97"/>
  <line class="cls-1" x1="1397.28" y1="96.06" x2="1403.24" y2="96.06"/>
  <line class="cls-1" x1="1397.28" y1="96.06" x2="1397.28" y2="91.8"/>
  <line class="cls-1" x1="1403.24" y1="96.06" x2="1403.24" y2="28.49"/>
  <line class="cls-1" x1="1397.28" y1="39.83" x2="1397.28" y2="52.61"/>
  <line class="cls-1" x1="1333.39" y1="39.83" x2="1333.39" y2="52.61"/>
  <line class="cls-1" x1="1397.28" y1="39.83" x2="1397.28" y2="33.9"/>
  <line class="cls-1" x1="1327.43" y1="27.91" x2="1333.39" y2="27.91"/>
  <line class="cls-1" x1="1397.28" y1="28.49" x2="1403.77" y2="28.49"/>
  <line class="cls-1" x1="1327.43" y1="96.06" x2="1333.39" y2="96.06"/>
  <line class="cls-1" x1="1327.43" y1="96.06" x2="1327.43" y2="27.91"/>
  <line class="cls-1" x1="1397.28" y1="91.8" x2="1397.28" y2="85.83"/>
  <rect class="cls-2" x="1216.57" y="355.08" width="8.2" height=".75"/>
  <line class="cls-2" x1="1216.58" y1="369.54" x2="1224.57" y2="370.84"/>
  <line class="cls-2" x1="1224.77" y1="370.59" x2="1216.93" y2="369.33"/>
  <line class="cls-2" x1="1224.78" y1="370.58" x2="1224.57" y2="370.84"/>
  <line class="cls-2" x1="1224.77" y1="370.58" x2="1224.76" y2="371.21"/>
  <line class="cls-2" x1="1224.77" y1="371.2" x2="1224.56" y2="371.48"/>
  <line class="cls-2" x1="1224.56" y1="371.48" x2="1224.57" y2="370.84"/>
  <line class="cls-2" x1="1216.58" y1="370.15" x2="1224.57" y2="371.48"/>
  <line class="cls-2" x1="1216.58" y1="370.15" x2="1216.58" y2="369.54"/>
  <line class="cls-2" x1="1216.56" y1="369.55" x2="1216.93" y2="369.33"/>
</svg>