<?xml version="1.0" encoding="UTF-8"?>
<svg id="E1" xmlns="http://www.w3.org/2000/svg" viewBox="0 0 556.26 365.44">
  <defs>
    <style>
      .cls-1 {
        fill: none;
        stroke: #000;
        stroke-miterlimit: 10;
      }
    </style>
  </defs>
  <path class="cls-1" d="M0,321.09H205.15m-44-45l45,45m-1,0l-43,43m187.13-42h205.15m-44-45l45,45m-1,0l-43,43M.48,45.35H205.63M161.63,.35l45,45m-1,0l-43,43m187.13-42h205.15M510.9,1.35l45,45m-1,0l-43,43M0,185.81H205.15m-44-45l45,45m-1,0l-43,43m187.13-42h205.15m-44-45l45,45m-1,0l-43,43"/>
</svg>