<?xml version="1.0" encoding="UTF-8"?>
<svg id="Calque_1" data-name="Calque 1" xmlns="http://www.w3.org/2000/svg" viewBox="0 0 2158.5 839.37">
  <defs>
    <style>
      .cls-1 {
        fill: #313b47;
      }
    </style>
  </defs>
  <g id="Calque_1-2" data-name="Calque 1">
    <g id="Calque_10" data-name="Calque 10">
      <g id="E3">
        <path class="cls-1" d="M1646.2,623.99c3.1,0,5.6,2.5,5.6,5.6s-2.5,5.6-5.6,5.6-5.6-2.5-5.6-5.6,2.5-5.6,5.6-5.6Zm0,0c-3.1,0-5.6,2.5-5.6,5.6s2.5,5.6,5.6,5.6,5.6-2.5,5.6-5.6c.1-3.1-2.5-5.6-5.6-5.6Zm0,9.1h-.1c-.5,0-.9-.2-1.3-.5s-.7-.7-.8-1.2v-.2c0-.1,.1-.1,.2-.1h.2c.1,0,.1,.1,.1,.2,.1,.2,.2,.4,.3,.6,.2,.2,.3,.3,.6,.4,.2,.1,.5,.2,.7,.2h.1c.4,0,.7-.1,1-.3s.5-.5,.5-.9c0-.3-.1-.6-.3-.9-.2-.3-.5-.4-.8-.4h-1.4q-.1,0-.2-.1t-.1-.2,.1-.2,.2-.1h1.4c.5,0,.9,.3,1.2,.6,.3,.4,.4,.8,.4,1.3-.1,.5-.3,.9-.7,1.2-.3,.5-.8,.6-1.3,.6Zm-1.9-2s-.1,0,0,0c-.1,0-.2,.1-.2,.1v.2c.1,.5,.4,.9,.8,1.1,.4,.3,.8,.5,1.3,.5h.1c.5,0,.9-.1,1.3-.4s.7-.7,.7-1.2c.1-.5-.1-.9-.4-1.3s-.7-.6-1.2-.6h-1.4q-.1,0-.2,.1t-.1,.2,.1,.2,.2,.1h1.4c.3,0,.6,.2,.8,.4,.2,.3,.3,.6,.3,.9,0,.4-.2,.7-.5,.9s-.6,.3-1,.3h-.1c-.2,0-.5-.1-.7-.2s-.4-.3-.6-.4c-.2-.2-.3-.4-.3-.6,0-.1-.1-.1-.1-.2-.1-.1-.2-.1-.2-.1Zm3.1-1.5s-.1,0,0,0c-.1,0-.2-.1-.2-.1,0-.1-.1-.1,0-.2,0-.1,.1-.1,.1-.2,.2-.1,.3-.2,.4-.4,.1-.2,.1-.4,.1-.6,0-.4-.2-.7-.5-.9s-.7-.3-1.1-.3c-.3,0-.6,.2-.9,.4-.3,.2-.4,.5-.5,.8,0,.1-.1,.1-.1,.2-.1,0-.1,.1-.2,0-.1,0-.1-.1-.2-.1,0-.1-.1-.1,0-.2,.1-.3,.2-.6,.4-.8s.4-.4,.7-.6c.3-.1,.5-.2,.9-.3h.2c.5,0,.9,.1,1.2,.4,.4,.3,.7,.8,.7,1.3,0,.3,0,.6-.2,.8s-.3,.5-.6,.6c-.1,.2-.2,.2-.2,.2Zm-1.1-2.7c.3,0,.6,.1,.9,.3,.3,.2,.5,.5,.5,.9,0,.2,0,.4-.1,.6s-.2,.3-.4,.4c-.1,0-.1,.1-.1,.2v.2c0,.1,.1,.1,.2,.1h.2l.6-.6c.1-.3,.2-.5,.2-.8,0-.5-.3-1-.7-1.3s-.9-.5-1.4-.4c-.3,0-.6,.1-.8,.3-.3,.1-.5,.3-.7,.6h0c-.2,.2-.3,.5-.4,.8v.2c0,.1,.1,.1,.2,.1h.2c.1,0,.1-.1,.1-.2,.1-.3,.2-.6,.5-.8s.6-.4,.9-.4c0-.2,.1-.2,.1-.2Zm325.5,176.4h8.1v.8h-8.1v-.8Zm8.1,.3c0-2.2-1.8-4-4-4s-4,1.8-4,4,1.8,4,4,4c2.2,.1,4-1.7,4-4Zm-4-.2c.1,0,.2,.1,.2,.2s-.1,.2-.2,.2-.2-.1-.2-.2,.1-.2,.2-.2Zm-.8,1.1q0-.1,0,0c-.1-.1-.1,0,0,0q-.1,0,0,0h0Zm0-.9h0c-.1-.1-.1,0,0,0q-.1,.1,0,0,0,.1,0,0Zm1.7,.9q0-.1,0,0c-.1-.1-.1,0,0,0q-.1,0,0,0h0Zm-1.4-.9h0c-.1-.1-.1,0,0,0q-.1,.1,0,0,0,.1,0,0Zm1.1,0h0c-.1-.1-.1,0,0,0-.1,0-.1,.1,0,0q0,.1,0,0Zm-.5,.9c0-.1-.1-.1,0,0-.1-.1-.1,0,0,0-.2,0-.1,0,0,0-.1,0,0,0,0,0Zm0-1.7s-.1,0,0,0c-.1-.1-.1,0,0,0-.2,.1-.1,.1,0,0-.1,.1,0,.1,0,0Zm.8,.8h0c-.1-.1-.1,0,0,0-.1,0-.1,.1,0,0q0,.1,0,0Zm0-.8h0c-.1-.1-.1,0,0,0-.1,0-.1,.1,0,0,0,.1,0,0,0,0Zm-1.7,0h0c-.1-.1-.1,0,0,0-.1,0-.1,.1,0,0,0,.1,0,0,0,0Zm1.6-4.2v9.9m0-8.8v3m0,1.8v3m0-3.9v-.4m0,0v-.4m0,1.6v-.7m3.7-.9h-9.1m9.1,.8h-9.1m9.1,.9h-9.1m5.1-5.9v9.9m-.5-9.9v9.9m.5-4.8v3.9m-.5-3.8v3.9m-.8-4.1v3.9m.2-8.9v9.9m-.2-9.9v9.9m1.3-4.9v-3.9m-.5,3.8v-3.8m-.6,4v3.9m0-3.9v3.9m-.2-3.1v3.1m-.1-3.1h-3m4.7,0h-1.5m4.7,0h-3.1m3.1-.9h-3.1m3-.8h-3m-.1,.8h-.2m-.1,0h-.3m.6-.8h-.7m-.3,.8h-.3m-.1,0h-.2m.7-.8h-.7m-.1,.8h-3.1m3.1,0h-3.1m3.1-.8h-3m3.3,.8v-3.9m-.2,4.7v-.7m0-.1v-.7m0-.1v-3m1,13.6c2.3,0,4.1,1.3,4.1,2.8s-1.8,2.8-4.1,2.8-4.1-1.3-4.1-2.8,1.8-2.8,4.1-2.8Zm-4.2,2.7c0,1.5,1.9,2.8,4.1,2.8s4.1-1.2,4.1-2.8m-5,.4q.1,0,0,0,.1-.1,0,0c0-.1-.1-.1,0,0-.1,0,0,0,0,0m0,0q.1,0,0,0,.1-.1,0,0c0-.1-.1-.1,0,0-.1,0,0,0,0,0Zm1,0h0q0-.1,0,0-.1-.1,0,0-.1,0,0,0m0,0h0q0-.1,0,0-.1-.1,0,0-.1,0,0,0Zm.9,0s.1,0,0,0c.1-.1,0-.1,0,0,0-.1-.1-.1,0,0-.1,0,0,0,0,0m0,0s.1,0,0,0c.1-.1,0-.1,0,0,0-.1-.1-.1,0,0-.1,0,0,0,0,0Zm0-.6h0q0-.1,0,0-.1-.1,0,0-.1,0,0,0m0,0h0q0-.1,0,0-.1-.1,0,0-.1,0,0,0Zm-.5,0s.1,0,0,0c.1-.1,0-.1,0,0,0-.1-.1-.1,0,0-.1,0,0,0,0,0m0,0s.1,0,0,0c.1-.1,0-.1,0,0,0-.1-.1-.1,0,0-.1,0,0,0,0,0Zm-.9,0s.1,0,0,0c.1-.1,0-.1,0,0,0-.1-.1-.1,0,0-.1,0,0,0,0,0m0,0s.1,0,0,0c.1-.1,0-.1,0,0,0-.1-.1-.1,0,0-.1,0,0,0,0,0Zm.4,.1c.1,0,.2,0,.2-.1s-.1-.1-.2-.1-.2,0-.2,.1c.1,0,.1,.1,.2,.1m0,0c.1,0,.2,0,.2-.1s-.1-.1-.2-.1-.2,0-.2,.1c.1,0,.1,.1,.2,.1Zm-.9-.1q.1,0,0,0c.1,0,.1-.1,0,0,0-.1-.1,0,0,0-.1,0,0,0,0,0m0,0q.1,0,0,0c.1,0,.1-.1,0,0,0-.1-.1,0,0,0-.1,0,0,0,0,0Zm0-.5c.1,0,.1-.1,0,0q.1-.1,0,0c0-.1-.1-.1,0,0-.1-.1,0,0,0,0m0,0c.1,0,.1-.1,0,0q.1-.1,0,0c0-.1-.1-.1,0,0-.1-.1,0,0,0,0Zm1.8-.1s.1,0,0,0c.1-.1,0-.1,0,0,0-.1-.1-.1,0,0-.1,0,0,0,0,0m0,0s.1,0,0,0c.1-.1,0-.1,0,0,0-.1-.1-.1,0,0-.1,0,0,0,0,0Zm-331.4-140.5c16.7,0,30.2,9.2,30.2,20.6s-13.5,20.6-30.2,20.6-30.2-9.2-30.2-20.6,13.5-20.6,30.2-20.6Zm-30.2,21.6c0,11.3,14,21.2,30.2,21.2s30.2-9.1,30.2-21.2m-30.2-164.5c16.2,0,29.4,13.2,29.4,29.4s-13.2,29.4-29.4,29.4-29.4-13.2-29.4-29.4,13.2-29.4,29.4-29.4Zm0,27.9c.8,0,1.5,.7,1.5,1.5s-.7,1.5-1.5,1.5-1.5-.7-1.5-1.5,.7-1.5,1.5-1.5Zm0,0c.8,0,1.5,.7,1.5,1.5s-.7,1.5-1.5,1.5-1.5-.7-1.5-1.5,.7-1.5,1.5-1.5Zm5.9-36.1v72.9m27.2-41.2h-67m67,5.9h-67m67,5.9h-67m37.6-43.5v72.9m-3.7-72.9v72.9m-6.5-35.3v35.3m2.1-72.9v72.9m-2.2-29.4h-22.1m22.2-2.2v-41.3m0,31.3c.2,0,.4,.2,.4,.4s-.2,.4-.4,.4-.4-.2-.4-.4,.2-.4,.4-.4Zm12.4,0c.2,0,.4,.2,.4,.4s-.2,.4-.4,.4-.4-.2-.4-.4,.2-.4,.4-.4Zm-2.2,5.9c.2,0,.4,.2,.4,.4s-.2,.4-.4,.4-.4-.2-.4-.4,.2-.4,.4-.4Zm-3.7,5.9c.2,0,.4,.2,.4,.4s-.2,.4-.4,.4-.4-.2-.4-.4,.2-.4,.4-.4Zm-6.6,0c.2,0,.4,.2,.4,.4s-.2,.4-.4,.4-.4-.2-.4-.4,.2-.4,.4-.4Zm12.5,0c.2,0,.4,.2,.4,.4s-.2,.4-.4,.4-.4-.2-.4-.4,.2-.4,.4-.4Zm0-5.9c.2,0,.4,.2,.4,.4s-.2,.4-.4,.4-.4-.2-.4-.4,.2-.4,.4-.4Zm-10.3,0c.2,0,.4,.2,.4,.4s-.2,.4-.4,.4-.4-.2-.4-.4,.2-.4,.4-.4Zm-2.1,0c.2,0,.4,.2,.4,.4s-.2,.4-.4,.4-.4-.2-.4-.4,.2-.4,.4-.4Zm.7,128.5c.4,0,.7,.2,.7,.4s-.3,.4-.7,.4-.7-.2-.7-.4,.3-.4,.7-.4Zm2.9,3.7c.4,0,.7,.2,.7,.4s-.3,.4-.7,.4-.7-.2-.7-.4,.3-.4,.7-.4Zm-3.1,.1c.4,0,.7,.2,.7,.4s-.3,.4-.7,.4-.7-.2-.7-.4,.3-.4,.7-.4Zm0,4.2c.4,0,.7,.2,.7,.4s-.3,.4-.7,.4-.7-.2-.7-.4,.3-.4,.7-.4Zm6.1-.3c.4,0,.7,.2,.7,.4s-.3,.4-.7,.4-.7-.2-.7-.4,.3-.4,.7-.4Zm6.7-.1c.4,0,.7,.2,.7,.4s-.3,.4-.7,.4-.7-.2-.7-.4,.3-.4,.7-.4Zm-1-7.8c.4,0,.7,.2,.7,.4s-.3,.4-.7,.4-.7-.2-.7-.4,.3-.4,.7-.4Zm.4,3.6c.4,0,.7,.2,.7,.4s-.3,.4-.7,.4-.7-.2-.7-.4,.3-.4,.7-.4Zm-3.1,.1c.4,0,.7,.2,.7,.4s-.3,.4-.7,.4-.7-.2-.7-.4,.3-.4,.7-.4Zm-2.8-.1c.7,0,1.2,.3,1.2,.7s-.5,.7-1.2,.7-1.2-.3-1.2-.7,.5-.7,1.2-.7Zm474.2-172.6c-17.4,0-31.5,14.1-31.5,31.5s14.1,31.5,31.5,31.5,31.5-14.1,31.5-31.5-14.1-31.5-31.5-31.5Zm32.4-70.9h-39.4l-25,.1m0,0v-1.3m64.4,0v1.2m-109.1,0l-64.4,.3m0,0v-1.5m64.4-.2v1.4m76.7,70.9c-17.4,0-31.5,14.1-31.5,31.5s14.1,31.5,31.5,31.5,31.5-14.1,31.5-31.5-14.1-31.5-31.5-31.5Zm-141.1-71.9v1m64.4-1v1m-64.4-1.2l28.7-.1m6.1,.1l29.5-.2m45.6,107.9v-6.2m62.4,6.2v-6.2m-34.1,33.6l6.3,.1m-6.3-63h6.2m-35.3-72v.9m64.4-.9v.8m-64.4-1l28.7-.1m6,0l29.6-.1m-173.4,.4v1m64.4-1v1m-64.4-1.2l28.7-.1m6.1,.1l29.5-.2m45.6,107.9v-6.2m62.4,6.2v-6.2m-107.9-101.7l-37.94,.15m111.74,135.15l6.3,.1m-6.3-63h6.2m-35.3-72v.9m64.4-1.3v1.4m-64.42-1.19l36.31-.13m-1.59,.01l29.7-.1m-141.5,88.9c17.6,0,31.8,7.8,31.8,17.4s-14.2,17.4-31.8,17.4-31.8-7.8-31.8-17.4,14.2-17.4,31.8-17.4Zm31.8,18.2c0,10.1-14.2,18.2-31.7,18.2s-31.7-8.2-31.7-18.2m26.1-10.5c0-.2-.3-.3-.6-.3m0,.1c-.3,0-.5,.2-.5,.3m110.9,6.8c-.3,0-.6,.3-.6,.6s.3,.6,.6,.6,.6-.3,.6-.6-.3-.6-.6-.6Zm-3.1,0c-.3,0-.6,.3-.6,.6s.3,.6,.6,.6,.6-.3,.6-.6-.3-.6-.6-.6Zm.1-7.2c-.3,0-.6,.3-.6,.6s.3,.6,.6,.6,.6-.3,.6-.6-.3-.6-.6-.6Zm14.9,0c-.3,0-.6,.3-.6,.6s.3,.6,.6,.6,.6-.3,.6-.6-.3-.6-.6-.6Zm-7.5,6.7c-.6,0-1.1,.5-1.1,1.1s.5,1.1,1.1,1.1,1.1-.5,1.1-1.1c.1-.6-.4-1.1-1.1-1.1Zm-7.4,6.7c-.3,0-.6,.3-.6,.6s.3,.6,.6,.6,.6-.3,.6-.6-.3-.6-.6-.6Zm7.6,.1c-.3,0-.6,.3-.6,.6s.3,.6,.6,.6,.6-.3,.6-.6-.2-.6-.6-.6Zm7.1,0c-.3,0-.6,.3-.6,.6s.3,.6,.6,.6,.6-.3,.6-.6-.2-.6-.6-.6Zm-2.9-6.3c-.3,0-.6,.3-.6,.6s.3,.6,.6,.6,.6-.3,.6-.6-.3-.6-.6-.6Zm2.9,0c-.3,0-.6,.3-.6,.6s.3,.6,.6,.6,.6-.3,.6-.6-.2-.6-.6-.6Zm-121,.5c0,.2,.3,.3,.6,.3s.5-.2,.5-.3m-1.9-3.8c0,.2,.3,.3,.6,.3s.5-.2,.5-.3m.2,3.5c-.3,0-.5,.2-.5,.3m-.3-4.1c-.3,0-.5,.2-.5,.3m14.3,2.4c0,.2,.3,.3,.6,.3s.5-.2,.5-.4-.3-.3-.6-.3c-.4,.1-.6,.3-.5,.4Zm-12.4,1.3c0-.2-.3-.3-.6-.3m-.2-3.4c0-.2-.3-.3-.6-.3m2.8,0c0,.2,.3,.3,.6,.3s.5-.2,.5-.3m-.6-.3c-.3,0-.5,.2-.5,.3m1.1-.1c0-.2-.3-.3-.6-.3m-.5,.4c0,.2,.3,.3,.6,.3s.5-.2,.5-.3m-.6-.3c-.3,0-.5,.2-.5,.3m1.1-.1c0-.2-.3-.3-.6-.3m2.1,.1c.1,.4,.6,.6,1.3,.5,.6,0,1.1-.4,1.1-.7m-1.3-.5c-.6,0-1.1,.4-1.1,.7m2.3-.2c-.1-.4-.6-.6-1.3-.5m.7,4.4c0,.2,.3,.3,.6,.3s.5-.2,.5-.3m-.6-.3c-.3,0-.5,.2-.5,.3m1.1-.1c0-.2-.3-.3-.6-.3m1.8-3.6c0,.2,.3,.3,.6,.3s.5-.2,.5-.3m-.6-.4c-.3,0-.5,.2-.5,.3m1.1,0c0-.2-.3-.3-.6-.3m2.7,.1c0,.2,.3,.3,.6,.3s.5-.2,.5-.3m-.6-.4c-.3,0-.5,.2-.5,.3m1.1,0c0-.2-.3-.3-.6-.3m-1.6-3.1c0,.2,.3,.3,.6,.3s.5-.2,.5-.3m-.6-.4c-.3,0-.5,.2-.5,.3m1.1,0c0-.2-.3-.3-.6-.3m-13.2,1.6c0,.2,.3,.3,.6,.3s.5-.2,.5-.3"/>
      </g>
    </g>
  </g>
</svg>