<?xml version="1.0" encoding="UTF-8"?>
<svg id="Calque_1" data-name="Calque 1" xmlns="http://www.w3.org/2000/svg" xmlns:xlink="http://www.w3.org/1999/xlink" viewBox="0 0 1244.32 999.46">
  <defs>
    <style>
      .cls-1 {
        fill: #fff;
      }

      .cls-2 {
        stroke: #e1b8a1;
      }

      .cls-2, .cls-3 {
        stroke-miterlimit: 10;
      }

      .cls-2, .cls-4 {
        fill: none;
      }

      .cls-5, .cls-3 {
        fill: #da4331;
      }

      .cls-3 {
        stroke: #fff;
      }

      .cls-6 {
        fill: #b0c5ca;
      }
    </style>
  </defs>
  <image width="564" height="376" transform="translate(0 163.37)" xlink:href="graphiste1.png"/>
  <path class="cls-4" d="M592.35,0V999.46h651.97V0H592.35Zm651.47,841.39H649.54V.5h594.28V841.39Z"/>
  <rect class="cls-2" x="1243.81" y=".5" width="0" height="840.89"/>
  <path class="cls-6" d="M950.76,746.49c1.64,.3,3.29,.6,4.93,.9,1.54-.25,3.08-.51,4.62-.76,.61-.3,1.22-.6,1.83-.9,.29-.47,.59-.93,.88-1.39,.1-.48,.21-.96,.31-1.44,0-.17,0-.35,0-.52l-17.17-.07c.48,.61,.95,1.22,1.43,1.83,1.05,.79,2.11,1.58,3.16,2.37Z"/>
  <path class="cls-6" d="M1014.86,746.38c.23,1.54,.54,2.04,.64,2.2,.53,.81,1.25,1.19,1.57,1.36,1.12,.58,2.18,.52,2.7,.48,1.95-.14,3.28-1.22,3.7-1.59,1.5-1.33,1.92-2.98,2.22-4.17,.1-.4,.25-1.11,.29-2.01l-11.09-.05c-.09,.36-.16,.74-.2,1.15-.08,.91,.02,1.6,.18,2.64Z"/>
  <path class="cls-6" d="M792.42,58.25c-.14-.28-.67-1.28-1.76-1.78-1.02-.47-2-.27-2.94-.05-1.29,.29-3.4,.77-4.62,2.76-1.09,1.78-.79,3.67-.68,4.25,.05,.71,.1,1.42,.16,2.14l9.93,.04c.12-1.81,.25-3.62,.37-5.43,0-.39-.05-1.13-.46-1.93Z"/>
  <path class="cls-6" d="M806.69,59.35c-.07-.68-.12-1.02-.31-1.37-.51-.91-1.53-1.17-1.74-1.22-.68-.16-1.21,0-1.86,.17-1.16,.32-1.94,.93-2.42,1.3-.17,.14-.4,.31-.65,.56,0,0-.14,.14-.27,.28-.52,.59-1.1,1.77-1.13,1.84-.6,1.57-1.19,3.14-1.78,4.71l9.79,.04c.12-1.31,.25-2.71,.4-4.44,0-.08,.07-.86-.04-1.88Z"/>
  <path class="cls-6" d="M983.44,62.09c-.55-.42-1.16-.42-1.63-.42-1.4,0-2.4,.72-2.69,.92-.47,.33-1.23,.9-1.52,1.94-.08,.3-.22,.98,.03,1.73,.02,.05,.04,.1,.07,.15l7.68,.03c-.38-1.07-.77-2.13-1.15-3.2-.07-.25-.27-.77-.77-1.16Z"/>
  <path class="cls-6" d="M758.42,60.58c-.8-1.57-1.7-2.76-2.41-3.57-.22-.22-1.27-1.23-2.87-1.24-1.35,0-2.27,.71-2.64,.99-.2,.15-.91,.73-1.43,1.78-.38,.77-.57,1.63-.41,4.41,.1,1.84,.17,3.03,.5,4.74,.5,2.58,1.23,4.36,1.41,4.8,.82,1.99,1.34,3.17,2.63,4.12,.42,.31,1.35,.98,2.71,1.06,.29,.02,1.89,.11,3.06-.95,.75-.69,.99-1.56,1.16-2.36,.85-4.04,.17-7.74,.05-8.36-.28-1.43-.64-3.25-1.75-5.42Z"/>
  <path class="cls-6" d="M860.83,60.12c-.55-.42-1.16-.42-1.63-.42-1.4,0-2.4,.72-2.69,.92-.47,.33-1.23,.9-1.52,1.94-.08,.3-.22,.98,.03,1.73,.26,.76,.82,1.27,1.29,1.59l6.97,.03c-.55-1.54-1.11-3.09-1.66-4.63-.07-.25-.27-.77-.77-1.16Z"/>
  <path class="cls-6" d="M916.04,62.78c.15-.98-.27-1.98-1.06-2.54-1.83-1.91-4.55-2.49-6.89-1.46-2.34,1.03-3.85,3.48-3.8,6.18-.06,.4,0,.78,.1,1.14l6.44,.03c1.16-.44,2.32-.87,3.47-1.31,.91-.25,1.58-1.05,1.73-2.03Z"/>
  <path class="cls-6" d="M1047.58,747.76c.29,.52,.84,1.49,1.95,2.32,.31,.23,.71,.52,1.3,.75,1.15,.44,2.17,.29,2.94,.18,.2-.03,1.13-.17,2.25-.67,1.17-.52,1.93-1.16,2.09-1.3,1.29-1.1,1.88-2.33,2.17-2.94,.4-.85,.56-1.55,.87-2.95,.02-.11,.05-.24,.08-.36l-14.41-.06c-.03,.76-.06,1.62-.12,2.57,.21,1.1,.6,1.93,.89,2.45Z"/>
  <path class="cls-6" d="M1183.04,740.18c.76,.53,1.59,.36,1.77,.32,2.71-1,5.43-1.99,8.14-2.99,.99-.27,1.74-1.13,1.9-2.2,.17-1.07-.27-2.16-1.13-2.78-1.97-2.1-4.94-2.75-7.5-1.66-2.56,1.1-4.23,3.76-4.2,6.7-.16,1.04,.24,2.07,1.01,2.6Z"/>
  <path class="cls-1" d="M974.52,419.02c.5,.32,1.03,.2,1.15,.17,1.73-.7,3.45-1.41,5.17-2.11,.63-.2,1.09-.77,1.18-1.46,.08-.7-.22-1.39-.79-1.77-1.32-1.31-3.24-1.67-4.86-.9-1.62,.77-2.64,2.52-2.56,4.42-.08,.68,.2,1.33,.71,1.66Z"/>
  <path class="cls-1" d="M1004.89,70.34c.72-.02,1.15-.74,1.18-.79,.88-1,1.76-2,2.65-3l-5.28-.02c-.01,.73-.03,1.46-.04,2.19,.05,.96,.78,1.64,1.49,1.62Z"/>
  <path class="cls-1" d="M1093.21,730.44c-1.19-1.5-3.2-1.54-5.38-1.6-1.47-.03-3.13-.05-4.7,1-.39,.26-1.23,.84-1.76,1.9-.63,1.27-.46,2.54-.38,3.12,.41,2.78,.83,5.41,1.25,8.02l11.8,.05c0-3.12,0-6.24,0-9.36,.04-.69,.02-2.04-.85-3.13Z"/>
  <path class="cls-1" d="M937.61,79.12c1.1,.25,2.5-.67,2.85-2.3,1.84-4.98,3.02-8.68,3.17-9.49h-.01c.05-.25,.11-.62,.14-1.06l-8.77-.04c.36,3.77,.71,7.54,1.07,11.31,.03,.1,.49,1.35,1.55,1.59Z"/>
  <path class="cls-1" d="M822.97,420.22c.5,.32,1.03,.2,1.15,.17,1.72-.7,3.45-1.41,5.17-2.11,.63-.2,1.09-.77,1.18-1.46,.08-.7-.23-1.39-.79-1.77-1.32-1.31-3.24-1.67-4.86-.9-1.62,.77-2.64,2.52-2.56,4.42-.08,.68,.2,1.33,.71,1.66Z"/>
  <path class="cls-1" d="M947.96,67.41c.12,.82,1.17,4.56,2.84,9.6,.29,1.64,1.65,2.61,2.76,2.4,1.08-.2,1.57-1.44,1.61-1.53,.5-3.85,1-7.7,1.5-11.55l-8.81-.04c0,.47,.06,.86,.11,1.12h-.01Z"/>
  <path class="cls-1" d="M797.76,359.01c-.15,.07-.48,.23-.8,.61-1.95,2.34-.34,8.73,2.05,9.44,.41,.12,.95,.11,1.66-.29,.96-.64,1.91-1.27,2.87-1.9,.62-.81,.79-1.53,.82-2.04,.19-3.15-4.19-6.86-6.6-5.82Z"/>
  <path class="cls-1" d="M809.5,412.24c-.66-1.57-1.4-3.36-3.23-4.56-.25-.16-1.4-.89-3.05-1.07-1.04-.11-2.79-.31-3.93,.86-.85,.87-.92,2.06-.92,2.56-.01,4.64-.02,9.28-.03,13.93-.02,.23-.21,2.87,1.61,4.21,1.28,.94,2.83,.73,3.88,.59,.49-.07,1.79-.26,3.08-1.13,2.7-1.83,3.27-5.13,3.59-7.05,.48-2.85-.03-5.12-.24-6.01-.26-1.11-.58-1.94-.75-2.33Z"/>
  <path class="cls-1" d="M880.82,430.78c-1.06-.55-2.04-.49-3.06-.43-.67,.04-2.02,.13-3.41,.98-.56,.34-1.4,.85-1.96,1.9-.2,.37-.7,1.31-.46,2.46,.23,1.1,1,1.74,1.29,1.98,1.63,1.37,4.13,1.29,5.91,.61,1.5-.57,4.18-2.23,3.99-4.48-.16-1.86-2.17-2.96-2.3-3.02Z"/>
  <path class="cls-1" d="M917.28,419.4c.5,.32,1.03,.2,1.15,.17,1.73-.7,3.45-1.41,5.17-2.11,.63-.2,1.09-.77,1.18-1.46,.08-.7-.22-1.39-.79-1.77-1.32-1.31-3.24-1.67-4.86-.9-1.62,.77-2.64,2.52-2.56,4.42-.08,.68,.2,1.33,.71,1.66Z"/>
  <path class="cls-1" d="M826.11,75.85c.23,1.41,.51,1.87,.61,2.01,.49,.74,1.15,1.08,1.45,1.23,1.03,.52,2,.46,2.48,.42,1.78-.14,3-1.14,3.38-1.49,1.37-1.23,1.74-2.75,2-3.85,.14-.59,.4-1.92,.13-3.56-.16-.99-.3-1.84-1.01-2.56-.73-.74-1.64-.9-2.18-.99-1.78-.31-3.18,.46-3.59,.69-.95,.54-1.5,1.21-1.84,1.63-.32,.4-1.44,1.88-1.62,4.04-.07,.84,.03,1.47,.18,2.42Z"/>
  <path class="cls-1" d="M1061.76,739.19c.05-.74,0-1.84-.1-4.06-.11-2.36-.18-2.83-.41-3.44-.2-.53-.62-1.61-1.69-2.43-.59-.45-1.17-.66-1.53-.79-.96-.35-1.76-.38-2-.39-1.15-.03-2.07,.28-2.61,.52-.84,.18-2.17,.6-3.49,1.62-.61,.48-1.86,1.48-2.5,3.21-.08,.21-.24,.68-.4,2.57-.17,1.98-.16,3.41-.17,4.65,0,.57-.02,1.27-.05,2.08l14.41,.06c.2-.91,.43-2.08,.53-3.6Z"/>
  <path class="cls-1" d="M1158.12,733.8c-.39-.47-.88-.63-1.07-.69-1-.39-1.6-1.35-1.48-2.27,.12-.97,.98-1.48,1.08-1.54,.96-.25,1.92-.49,2.88-.74,.36-.08,.95-.28,1.43-.78,.41-.43,.57-.89,.66-1.18,.53-1.64,.91-3.58,1.04-4.26,.16-.47,.47-.79,.79-.8,.41-.01,.82,.48,.83,.76,.07,1.13,.13,2.26,.19,3.38,.07,1.13,.13,2.26,.19,3.38,.02,.14,.08,.53,.4,.87,.2,.21,.43,.3,.56,.35,1.29,.03,2.57,.07,3.86,.1,.51,.17,.82,.66,.74,1.15-.06,.4-.38,.73-.8,.84-1.64,.55-3.28,1.11-4.93,1.66-.22,.05-.71,.2-1.15,.65-.36,.37-.51,.76-.58,.97-.5,2.52-1.01,5.05-1.51,7.57l14.03,.06,2.95-676-146.34-.64c-.13,5.19-.25,10.38-.38,15.57-.02,.2-.12,1.18-.95,1.89-.9,.76-2,.65-2.27,.61-.05,0-.09-.01-.11-.02,0,0-1.03-.19-1.75-1-.7-.78-.88-2.34-.13-3.79,1.16-3.04,2.31-6.08,3.47-9.12,.02-1.38,.05-2.76,.07-4.14l-18.58-.08c-.86,1.01-1.72,2.01-2.58,3.02-.13,.11-.48,.46-.61,1.03-.1,.46,0,.83,.06,1,2.54,2.45,5.08,4.9,7.62,7.35,1.33,.91,1.82,2.5,1.28,3.7-.35,.78-1.15,1.43-2.05,1.51-1.2,.11-2.32-.67-2.86-1.56-2.6-4.32-4.44-7.39-4.9-8.31-.06-.13-.28-.59-.77-.91-.17-.11-.68-.47-1.3-.34-.58,.11-1.05,.6-1.24,1.24,.25,2.24,.5,4.49,.74,6.73,.13,1.62-1.17,3.01-2.76,3.02-1.58,0-2.89-1.38-2.77-3,.32-2.29,.78-4.65,1.42-7.07,.06-.24,.13-.49,.2-.73,.01-1.46,.02-2.91,.04-4.37,0-.78,.02-1.58,.02-2.36l-13.14-.06c.07,.3,.14,.59,.21,.89,.04,.43-.15,.85-.49,1.05-.44,.27-1.07,.16-1.43-.3-.2-.55-.39-1.1-.59-1.65l-7.68-.03c.41,1.01,1.35,1.54,1.77,1.78,1.69,.96,4.46,2.72,8.09,5,.31,.24,.8,.7,1.17,1.42,.42,.84,.44,1.6,.45,1.99,.03,1.23-.4,3.85-2.58,5.63-2.92,2.38-6.58,1.28-7,1.15-2.21-.71-3.72-2.1-4.61-3.71-.82-1.48-1.64-2.96-2.46-4.44-.09-.4,.05-.79,.34-.98,.39-.25,1.01-.11,1.29,.41,.86,1.35,1.72,2.71,2.58,4.06,.27,.51,.93,1.55,2.19,2.23,.79,.43,1.5,.55,1.8,.59,.49,.06,1.59,.2,2.73-.42,1.07-.58,1.55-1.5,1.77-1.95,.27-.54,.93-1.86,.38-3.27-.34-.86-.99-1.36-1.31-1.58-4.71-2.2-8.13-3.79-9.15-4.22-.12-.05-.49-.21-.9-.51-.76-.57-1.14-1.25-1.28-1.51-.25-.46-.4-1.04-.47-1.68l-11.98-.05-.82,1.67c-.97,4.19-1.93,8.37-2.9,12.56-.27,1.69-1.73,2.9-3.33,2.87-1.42-.03-2.7-1.05-3.1-2.5-1.34-4.28-2.68-8.56-4.02-12.83,0-.04-.04-.06-.05-.09-.02-.03-.07-.09-.12-.14-.01,0-.02-.02-.03-.03-.08-.05-.18-.11-.33-.12-.14,0-.24,.06-.33,.11-.02,0-.02,.02-.04,.03-.05,.05-.11,.1-.12,.14-.02,.03-.05,.05-.06,.09-1.49,4.23-2.98,8.46-4.47,12.69-.44,1.43-1.76,2.41-3.18,2.39-1.6-.02-3.02-1.28-3.23-2.98-.82-4.22-1.64-8.44-2.46-12.65-.2-.44-.39-.87-.59-1.31l-11.83-.05c-.73,.61-1.66,1.06-2.71,1.29-3.25,.78-6.51,1.56-9.76,2.34-.61,.08-1.43,.3-1.98,.95-1.34,1.59-.06,4.67,1.21,6.31,2.14,2.76,5.5,3.05,5.94,3.08,4.98,.35,8.11-4.05,8.3-4.31,.33-.31,.82-.32,1.11-.08,.35,.29,.38,.91-.02,1.28-.28,.43-3.72,5.48-9.76,5.49-.66,0-4.32-.05-7.36-2.79-3.77-3.39-3.7-8.3-3.67-10.52,0-.74,.02-1.86,.19-3.12l-12.14-.05c-4.27,5.47-7.19,9.29-7.92,10.35-.27,.39-.79,1.2-.52,1.9,.2,.54,.74,.85,.98,.88,4.07,.46,8.15,.91,12.22,1.37,.37,.14,.62,.46,.62,.8,0,.28-.17,.49-.2,.52-.19,.22-.43,.26-.5,.27-5.36-.09-10.71-.19-16.07-.28-.79-.1-1.49-.43-2.04-.91-.2-.18-.88-.8-1.12-1.83-.38-1.67,.7-2.99,.84-3.16,3.28-3.31,6.57-6.62,9.85-9.92l-19.76-.09c-.08,.21-.22,.39-.41,.51-.44,.27-1.07,.16-1.43-.3-.03-.07-.05-.14-.08-.22l-6.97-.03c.21,.15,.41,.26,.55,.34,1.69,.96,4.46,2.72,8.09,5,.31,.24,.8,.7,1.17,1.42,.42,.84,.44,1.6,.45,1.99,.03,1.23-.4,3.85-2.58,5.63-2.92,2.38-6.58,1.28-7,1.15-2.21-.71-3.72-2.1-4.61-3.71-.82-1.48-1.64-2.96-2.46-4.44-.09-.4,.05-.79,.34-.98,.39-.25,1.01-.11,1.29,.41,.86,1.35,1.72,2.71,2.58,4.06,.27,.51,.93,1.54,2.19,2.23,.79,.43,1.5,.55,1.8,.59,.49,.06,1.59,.2,2.73-.42,1.07-.58,1.55-1.5,1.77-1.95,.27-.54,.93-1.86,.38-3.27-.34-.86-.99-1.36-1.31-1.58-4.71-2.2-8.13-3.79-9.15-4.22-.12-.05-.49-.21-.9-.51-.76-.57-1.14-1.25-1.28-1.51-.04-.08-.07-.16-.11-.25l-9.44-.04c-.04,2.3-.08,4.61-.13,6.91,0,.31,0,.85,.12,1.55,.23,1.31,.64,1.63,.85,2.6,.11,.48,.48,2.15-.52,3.35-.64,.78-1.72,1.21-2.64,1.1-.42-.05-.83-.2-1.23-.37-.94-.39-.89-.51-1.37-.66-.77-.23-1.46-.1-1.94,0-.73,.14-1.17,.38-1.54,.54-1.67,.7-3.42,.34-4.04,.21-1.71-.33-2.86-1.22-3.51-1.72-.6-.47-1.61-1.26-2.38-2.68-.69-1.26-.88-2.44-.94-3.14-.1-.58-.22-1.84,.32-3.26,.11-.29,.53-1.31,1.52-2.28,1.32-1.28,2.83-1.67,3.51-1.79,.92-.13,1.83-.27,2.75-.4l-19.5-.09c-.26,1-.52,2-.78,3,.5,2.96,1,5.91,1.5,8.87-.13,1.87-1.67,3.16-3.1,3.08-1.6-.1-3.09-1.93-2.6-4.02,.1-.81,.2-1.62,.29-2.43,.1-.84,.17-1.46,.19-1.63,.32-2.79,.51-4.72,.71-6.89l-9.79-.04c-.25,.67-.51,1.34-.76,2.02,.43,3.29,.86,6.58,1.29,9.87-.02,1.77-1.49,3.05-2.91,2.96-1.51-.1-2.85-1.77-2.43-3.6,.26-3.75,.52-7.5,.78-11.26l-9.93-.04c.29,3.96,.58,7.93,.86,11.89-.15,1.69-1.68,2.92-3.27,2.72-1.49-.18-2.65-1.55-2.56-3.12,.45-3.83,.9-7.67,1.35-11.5l-10.72-.05-2.95,676,174.33,.76c-.68-1.47-1.35-2.94-2.03-4.41-.39-1.56-.78-3.12-1.17-4.68-.06-1.11-.12-2.22-.18-3.33,.22-1.55,.44-3.11,.67-4.66,.36-1.07,.73-2.14,1.09-3.21,1.06-2,2.12-4,3.18-5.99,1.45-1.28,2.89-2.55,4.34-3.83,1.65-.64,3.29-1.27,4.94-1.91,1.6-.21,3.19-.41,4.79-.62,1.88,.16,3.76,.32,5.64,.47,1.36,.75,2.71,1.5,4.07,2.25,1.01,.78,2.01,1.57,3.01,2.35,.42,.55,.85,1.1,1.27,1.65,.14,.64,.29,1.28,.43,1.93-.05,.52-.09,1.05-.14,1.57-.25,.45-.51,.91-.76,1.37-.4,.34-.81,.67-1.21,1.01-.59,.19-1.17,.39-1.76,.58-.82-.01-1.64-.02-2.46-.04-.35-.27-.69-.54-1.04-.82-.11-.45-.23-.9-.34-1.35,.03-1.35,.06-2.71,.09-4.06-.51-.79-1.03-1.57-1.54-2.36-.62-.37-1.25-.74-1.88-1.11-.84-.08-1.68-.17-2.52-.25-1.13,.19-2.26,.37-3.39,.56-1.46,.93-2.91,1.87-4.36,2.8-.85,.94-1.7,1.88-2.55,2.82-.51,1.02-1.02,2.04-1.52,3.06-.42,1.55-.85,3.11-1.27,4.66-.11,1.3-.22,2.61-.33,3.91,.09,1.37,.19,2.74,.28,4.1,.3,1.1,.6,2.19,.9,3.28,.49,1.05,.98,2.11,1.47,3.16,.29,.37,.57,.73,.86,1.1l17.17,.07c.03-1.67,.06-3.34,.09-5.01-.08-.39-.16-.78-.25-1.16-.24-.32-.48-.64-.72-.96-.31-.64-.62-1.27-.93-1.91,0-.78,0-1.56,0-2.35,.42-.57,.85-1.14,1.27-1.71,.45-.2,.9-.39,1.35-.59l3.43,.09,2.1,.05c.52,.19,1.04,.37,1.57,.56,.26,.34,.53,.67,.79,1.01,.09,.32,.19,.64,.28,.96-.13,.4-.26,.79-.39,1.19-.38,.3-.76,.6-1.14,.9-.33,.11-.66,.22-.99,.33-.13,.16-.26,.32-.4,.48-.03,.5-.06,1-.09,1.5,0,.32-.01,.64-.02,.97-.06,1.9-.12,3.79-.18,5.69l17.43,.08c.41-1.29,.83-2.58,1.24-3.86,.04-1.88,.08-3.76,.12-5.63-.14-.82-.38-1.75-.8-2.75-.14-.33-.28-.64-.43-.93-1.21-1.41-1.23-3.47-.1-4.85,1.21-1.48,3.43-1.8,5.07-.68,.19,.15,.75,.59,.94,.74,.19,.15,.75,.59,.94,.74,.44,.14,1.12,.28,1.9,.17,.86-.12,1.01-.42,2.29-.76,.98-.26,1.75-.29,2.22-.29,.66,0,1.19,.02,1.78,.32,.63,.31,.98,.76,1.13,.95,.78,1.01,.78,2.17,.78,2.7,0,.91-.24,1.68-.49,2.22-1.4,1.9-2.81,3.79-4.21,5.69-.55,.49-1.25,.51-1.6,.19-.26-.24-.26-.61-.26-.73,.59-1.34,1.19-2.68,1.79-4.02,.14-.32,.31-.78,.66-1.66,.08-.2,.15-.37,.19-.48,.16-.42,.1-.87-.18-1.17-.24-.26-.56-.31-.66-.32-.45,0-.89,0-1.34,0l-1.55-.04-1.74-.05c-.14-.03-1.54-.24-2.61,.79-.99,.95-.92,2.21-.9,2.39-.01,.78-.02,1.57-.03,2.36-.05,3.01-.13,5.99-.2,8.97l19.28,.08c.01-.66,.12-1.47,.46-2.35,.12-.32,.59-1.43,1.68-2.47,1.45-1.39,3.1-1.79,3.84-1.92,2.48-.34,4.95-.68,7.43-1.02,.38-.14,1.56-.63,2.14-1.85,.48-1.01,.28-1.97,.08-2.96-.14-.66-.31-1.44-.93-2.22-.23-.29-.77-.95-1.68-1.26-.43-.15-.84-.15-1.67-.15-.98,0-1.49,0-2.06,.29-.48,.25-.8,.6-.97,.84-1.13,1.4-2.25,2.8-3.38,4.2-.43,.61-1.19,.66-1.54,.32-.25-.24-.3-.69-.11-1.1,1.43-1.84,2.87-3.69,4.3-5.53,.13-.15,.34-.36,.63-.57,.85-.62,1.8-.78,3.55-.82,2.11-.04,3.16-.07,4.14,.19,.99,.26,2.4,.63,3.61,1.86,1.48,1.51,1.73,3.38,1.79,4.09-.11,4.17-.23,8.33-.34,12.5l13.62,.06c0-2.28,0-4.56,0-6.85-.22-1.05-.65-1.67-1.01-2.04-.37-.39-.51-.35-1.18-.94-.65-.57-1.1-.96-1.41-1.63-.33-.7-.35-1.34-.33-1.67,.03-.71,.26-1.21,.48-1.68,.18-.39,.55-1.17,1.37-1.87,.34-.29,.78-.67,1.46-.87,.9-.27,1.68-.05,2.34,.13,1.54,.44,1.51,1,2.71,1.22,.78,.14,1.42,.02,2.54-.19,.96-.18,1.05-.32,2.11-.51,.52-.1,1.23-.22,2.15-.22,.33,0,1.27,.02,2.44,.31,.61,.15,1.9,.49,3.25,1.42,1.49,1.03,2.28,2.24,2.63,2.78,1.83,2.88,1.72,6.07,1.57,9.18-.06,1.29-.12,2.43-.26,3.52l12.43,.05c.48-3.52,.96-7.05,1.44-10.57,.03-2.1,.07-4.21,.11-6.31-1.37-5.46-2.74-10.92-4.1-16.38,.39-1.85,1.89-3.09,3.3-3.06,1.78,.04,3.58,2.11,3.09,4.63-.03,4.28-.07,8.55-.1,12.82,.41,.88,1.13,2.03,2.37,2.5,1.42,.54,2.51,.22,5.02-.49,.66-.19,2.61-.64,4.62,.31,2.42,1.14,3.92,3.86,3.82,6.9-.04,2.52-.08,5.05-.12,7.57,.3,.73,.61,1.45,.91,2.18l17.01,.07c.41-1.05,.82-2.11,1.24-3.16,.11-4.02,.21-8.04,.32-12.06,.1-.58,.62-1.01,1.19-.98,.54,.02,1.01,.43,1.1,.99-.17,5.08-.34,10.16-.5,15.23l20.88,.09c-2.78-1.32-4.74-2.24-5.49-2.57-.13-.06-.53-.23-.98-.57-.82-.62-1.23-1.38-1.38-1.66-.66-1.25-.72-3.38-.05-5.2,1.88-5.12,8.78-5.91,9.68-6.01,2.75-.31,3.76,.57,4.01,.81,.46,.45,.69,.97,.81,1.34,.62,2.8,1.25,5.6,1.87,8.4,.04,.47-.17,.92-.55,1.15-.48,.29-1.16,.16-1.56-.34-.62-1.77-1.24-3.53-1.85-5.3-.08-.27-.29-.85-.84-1.27-.6-.46-1.26-.47-1.77-.48-1.53-.02-2.63,.76-2.95,.98-.52,.36-1.35,.97-1.68,2.1-.09,.33-.25,1.07,.01,1.88,.4,1.22,1.51,1.85,1.98,2.12,1.61,.94,4.12,2.54,7.37,4.63l12.41,.05c.1-2.86,.19-5.72,.29-8.59-.05-.19-.16-.51-.42-.82Zm-255.92-401.21c.38-1,1.37-1.39,4.75-2.52,5.25-1.76,5.96-1.84,6.92-1.67,.29,.05,3.3,.63,3.75,2.43,.3,1.21-.69,2.41-.84,2.58-1.15,1.34-2.71,1.17-3.37,2.56-.21,.45-.23,.84-.24,1.16-.09,2.71,2.94,6.03,5.7,5.91,.46-.02,1.19-.34,2.63-.97,1.11-.49,1.24-.64,2.15-.99,1.47-.57,2.21-.86,3.03-.63,1.18,.33,1.73,1.46,1.81,1.64,.15,.31,.54,1.12,.21,1.93-.3,.75-1.07,1.2-1.71,1.56-.21,.12-.36,.18-.51,.26-1.5,.78-2.27,1.16-2.63,1.39-1.12,.71-2.12,1.35-2.62,2.47-.68,1.51-.1,3.05,.36,4.3,.35,.94,.73,1.96,1.8,2.81,.28,.23,1.74,1.39,3.36,1.11,.55-.1,.69-.28,2.38-1.53,2.36-1.75,3.05-2.09,3.84-2.3,.54-.14,1.19-.3,1.98-.13,.98,.21,1.99,.87,2.43,1.87,.49,1.13,.03,2.22-.22,2.8-.9,2.06-2.41,2.42-5.9,4.92-3.56,2.55-4.08,3.68-6.54,4.24-.89,.2-2.35,.52-3.81-.1-1.88-.79-2.68-2.66-3.19-3.93-2.82-7.07-2.2-9.57-4.43-14.02-1.87-3.73-4.57-6.74-4.73-6.92-1.7-1.87-3.07-4.02-4.91-5.77-.24-.23-.95-.9-1.34-1.98-.09-.26-.52-1.47-.14-2.49Zm-60.51,28.24c3.46,3.76,5.93,7.66,8.73,6.91,.16-.04,.29-.09,.38-.13,0,0,.78-.33,1.37-1.16,.79-1.1,.8-11.07-5.55-15.36-2.21-1.49-6.15-2.95-6.94-5.27-.08-.24-.32-.92-.11-1.73,.34-1.35,1.66-1.96,1.83-2.04,1.78-.79,3.42,.6,3.52,.68,.71,.4,1.71,1.03,2.82,1.94,1.04,.86,9.64,7.8,7.55,16.28-.83,3.36-2.66,6.12-5.13,7.89-3.33,2.38-6.73,2.01-9.53,1.73-3.33-.34-5.92-1.81-11.11-4.76-3.92-2.23-5.17-3.71-5.65-4.88-.16-.38-.23-.75-.25-.81-.41-1.77-.15-3.97,.94-5.32,1.68-2.1,5.01-1.78,5.81-1.71,4.26,.4,7.42,3.48,11.34,7.74Zm-51.91-13.7c-.33,.74-.78,1.86-1.17,3.27-1.12,4.07-.67,6.88-.26,12.08,.81,10.26,.15,12.97-.94,15.1-.47,.91-1.4,2.45-3.15,3.58-.23,.15-2.77,1.67-5.77,1.04-.59-.12-1.35-.29-2.07-.9-1.07-.91-1.31-2.18-1.42-2.78-.55-3.02,1.06-5.89,1.34-6.4,4.07-7.33,10.43-23.58,11.82-26.71,2.49-5.62,3.89-7.16,6.07-9.37,1.2-1.21,4.96-4.94,10.8-6.73,8.24-2.52,21.05-1.3,24.49,6.42,1.43,3.2,1.15,7.31-.71,10.32-3.79,6.14-14.1,7.6-21.39,5.32-6.92-2.17-11.29-7.76-15.67-5.76-.94,.43-1.58,1.07-1.96,1.53Zm23.86,73.93c-.11,.54-.32,1.54-.81,2.72-.32,.77-1,2.35-2.36,3.81-1.8,1.93-4.06,2.69-5.46,3-2.18,.08-4.36,.16-6.55,.24-1.15,.27-2.33-.14-3.04-1.03-.94-1.2-.5-2.64-.46-2.76,.44-1.99,.89-3.97,1.33-5.96,0-2.44,.02-4.88,.03-7.32-.6-1.46-1.21-2.91-1.81-4.37-.04-.12-.61-1.75,.42-3.13,.78-1.05,1.95-1.23,2.18-1.26,2.54-.02,5.08-.04,7.62-.07,1.08,.11,2.65,.45,4.21,1.47,2.38,1.55,3.36,3.8,3.78,4.76,.53,1.21,.76,2.31,.9,2.98,.14,.71,.34,1.87,.35,3.32,.02,1.76-.23,3.09-.33,3.6Zm-19.34-26.27c.12-.4,.23-.8,.35-1.2,.39-.16,.78-.32,1.16-.48-.13,.9-.64,1.45-1.51,1.67Zm21.31-19.64c-3.21-2.12-7.32-5.44-7.32-5.44-.88-.71-1.41-1.16-2.28-1.37-1.06-.26-1.98-.02-2.58,.21-.52,.36-1.04,.73-1.57,1.09-.29,.17-.69,.46-1.01,.96-.76,1.21-.57,2.82-.32,3.81,0,0,.39,2.34,.82,6.9,.22,2.27,.43,4.51-.39,6.89-.4,1.17-1.49,4.29-4.01,4.7-2.18,.35-3.98-1.56-4.29-1.89-.52-.86-1.23-2.26-1.56-4.1-1.03-5.81,3.32-7.72,4.24-14.86,.87-6.76-2.27-10.97,.28-14.06,.89-1.09,2.01-1.47,3.17-1.83,2.9-.91,5.81-.32,8.82,.92,8.32,3.43,18.06,12.13,19.67,13.58,1.52,1.99,2.18,4.43,1.48,6.12-1.18,2.84-5.61,2.19-5.98,2.06-1.58-.57-3.91-1.54-6.53-3.25-.17-.11-.34-.22-.66-.43Zm19,51.59c-.19,.31-2.51,3.92-6.76,4.04-.46,.01-3.03,.04-5.22-1.83-2.71-2.32-2.75-5.77-2.77-7.34-.03-1.55-.09-5.33,2.69-7.59,1.79-1.46,3.84-1.55,4.67-1.59,.78-.03,4.12-.19,5.87,2.1,.29,.38,1.18,1.54,.87,2.94-.28,1.25-1.4,2.26-2.89,2.61-2.27,.61-4.54,1.22-6.81,1.82-.43,.07-1,.24-1.37,.7-.91,1.15,.04,3.29,.96,4.42,1.55,1.91,3.92,2.05,4.23,2.06,3.51,.15,5.63-3,5.75-3.19,.23-.22,.57-.24,.78-.08,.25,.2,.28,.63,0,.91Zm15.17,2.73c-2,1.73-4.59,1.02-4.88,.93-1.56-.46-2.65-1.41-3.3-2.52-.6-1.03-1.21-2.05-1.81-3.08-.07-.28,.02-.56,.22-.7,.26-.18,.7-.09,.91,.26,.63,.94,1.26,1.87,1.88,2.81,.2,.35,.68,1.07,1.58,1.53,.56,.29,1.06,.36,1.27,.38,.34,.03,1.12,.11,1.9-.34,.74-.43,1.06-1.09,1.21-1.4,.18-.38,.62-1.33,.21-2.31-.26-.6-.72-.94-.95-1.09-3.34-1.46-5.77-2.51-6.49-2.8-.09-.03-.35-.14-.64-.34-.54-.38-.82-.86-.92-1.04-.46-.79-.54-2.16-.15-3.35,1.09-3.35,5.51-4.01,6.08-4.1,1.76-.26,2.42,.28,2.59,.43,.31,.28,.46,.61,.55,.84,.46,1.79,.93,3.59,1.39,5.38,.04,.3-.09,.6-.33,.75-.3,.2-.74,.13-1.01-.19-.44-1.13-.87-2.25-1.31-3.38-.06-.17-.2-.54-.57-.8-.4-.29-.82-.28-1.15-.27-.98,.02-1.67,.55-1.87,.7-.33,.24-.85,.66-1.03,1.39-.05,.21-.14,.7,.05,1.21,.28,.78,1.01,1.16,1.32,1.33,1.2,.65,3.18,1.83,5.76,3.37,.22,.16,.57,.47,.84,.98,.31,.58,.34,1.11,.35,1.39,.04,.86-.21,2.72-1.7,4.01Zm11.17,.62c-.61,.55-1.37,.49-1.56,.47-.04,0-.06,0-.08-.01,0,0-.72-.12-1.23-.67-.5-.54-.65-1.64-.16-2.67,.74-2.16,1.49-4.33,2.24-6.5-.02-2.6-.05-5.21-.07-7.81,.05-.38,.37-.66,.73-.66,.34,0,.65,.26,.72,.61,0,5.3,.02,10.59,.03,15.89,0,.14-.06,.84-.62,1.35Zm2.03-22.54c-.12,.83-.31,2.11-1.22,2.49-.33,.14-.63,.1-1.24,.01-.67-.1-1.93-.36-2.49-1.22-.17-.26-.09-.94-.01-1.24,.22-.85,.55-1.79,1.29-2.3,.32-.22,.78-.26,1.17-.2,.69,.1,2.12,.65,2.49,1.22,.2,.31,.1,.64,.01,1.24Zm-2.12-19.94c-2.6-1.17-3.9-1.76-4.55-2-1.08-.39-1.88-.79-3.48-1.6-.83-.42-1.4-.73-1.71-1.38-.13-.27-.38-.93-.02-2.1,.66-2.16,2.58-3.44,3.46-4.12,1.83-1.42,2.83-3.53,4.83-7.73,1-2.1,3.1-6.52,3.2-11.31,.21-10.34-9.03-15.41-6.44-20.5,.93-1.83,2.99-2.74,4.6-2.94,5.13-.65,8.27,7.42,8.6,8.31,2.41,6.41,.75,12.5-.62,16.8-3.2,10.07-9.55,16.87-14.01,20.74-.19,.16-.94,.81-.86,1.57,.06,.62,.65,1.02,.86,1.17,2.71,1.87,21.06-3.38,24.35,.75,.23,.29,.65,.96,.91,1.84,.08,.25,.77,2.74-.67,4.98-.24,.38-.78,1.19-1.79,1.74-.51,.28-.96,.39-1.58,.53,0,0-1.19,.29-2.34,.3-2.25,.04-4.7-1.08-5.16-1.29-3.64-1.69-3.87-2.07-7.59-3.75Zm24.64,47.52c-.21,.93-.59,1.55-.85,1.96-.32,.51-1.3,2.02-3.16,2.76-.18,.07-.32,.12-.48,.17-2.58,.82-6.21,.79-8.77-.93-.02-.01-.04-.03-.06-.04-.43-.3-2.23-1.64-2.38-3.77-.15-1.99,1.18-3.82,2.39-4.71,1.15-.85,2.88-1.37,2.78-1.95,0-.05-.04-.1-.1-.21-.28-.51-.59-.56-.83-.87-.32-.41-.41-1.16-.13-1.56,.1-.14,.26-.27,.39-.58,.1-.24,.09-.36,.08-.39-.04-.25-.27-.39-.43-.5-.37-.24-.69-.55-1.08-.74-.59-.29-2.54-1.7-3.19-3.82-.52-1.69-.15-3.63,.86-5.05,1.08-1.51,2.59-2.04,3.3-2.28,1.5-.51,2.95-.42,3.47-.37,.94,.09,1.68,.25,1.68,.25,.86,.13,1.1,.17,1.49,.16,.73-.03,.75-.2,1.37-.21,.34,0,1.11-.02,1.79,.5,.13,.1,.69,.55,.87,1.31,.14,.58-.06,.84-.22,1.74-.24,1.36,.09,1.47-.14,2.96-.15,1.03-.44,1.72-.5,1.86-.1,.24-.42,1-.98,1.66-1.15,1.35-2.82,1.76-3.64,1.95-1.74,.42-2.72,.12-3.18,.87-.02,.03-.39,.62-.14,1.09,.16,.31,.5,.45,.68,.52,1.75,.62,4.27,.85,6.12,1.87,.98,.54,1.56,1.19,1.75,1.42,.56,.69,1.01,1.52,1.22,2.39,.12,.49,.27,1.43,.02,2.56Zm-3.22-69.78c-2.14,3.5-3.21,5.25-4.1,6.12-5.04,4.95-12.16,5.65-12.88,4.62-.25-.36-.18-.57-.18-.57,.07-.35,.86-.17,.98-.15,1.28,.22,5.59-1.83,7.95-6.34,.67-1.28,2.4-4.6,1.71-9.29-.58-3.91-2.48-6.41-1.65-9.46,.38-1.37,1.14-2.26,1.75-2.8,.35-.19,2.77-1.45,5.56,.12,1.28,.72,2.09,1.72,2.39,2.11,1.9,2.43,2.07,5.15,2.12,6.22,.1,1.99-.3,3.93-3.66,9.42Zm25.09,64.28c-.94,.5-2.08,.2-2.69-.5-.44-.51-.5-1.1-.51-1.34-.09-3.65-.18-7.29-.27-10.93,.02-.44-.02-1.3-.59-1.99-.78-.94-2.06-.94-3.45-.93-.94,0-2,.01-2.98,.71-.25,.17-.77,.56-1.09,1.24-.38,.82-.25,1.63-.19,2,.58,3.34,1.16,6.35,1.79,9.57,.2,1.03-.28,2.06-1.15,2.52-.75,.39-1.75,.36-2.45-.25-.85-.74-.74-1.86-.73-1.95,.14-3.6,.24-6.41,.38-8.37,.15-2-.18-2.72-.4-3.24-.3-.71-.6-.98-.64-1.66,0-.06-.07-1.56,1.03-2.31,.48-.33,.98-.37,1.25-.39,.89-.06,1.54,.29,1.93,.45,.75,.31,1.93,.49,3.79-.15,.42-.13,1.66-.45,2.95,.12,1.56,.69,2.57,2.41,2.54,4.35,.01,1.61,.03,3.23,.04,4.84,.85,1.92,1.71,3.83,2.56,5.75,.2,1.01-.27,2.03-1.13,2.48Zm21.54-3.71c-.19,.31-2.51,3.92-6.76,4.04-.46,.01-3.03,.04-5.22-1.83-2.71-2.32-2.75-5.77-2.77-7.34-.03-1.55-.09-5.33,2.69-7.59,1.79-1.46,3.84-1.55,4.67-1.59,.78-.03,4.12-.19,5.87,2.1,.29,.38,1.18,1.54,.87,2.94-.28,1.25-1.41,2.26-2.9,2.61-2.27,.61-4.54,1.22-6.81,1.82-.43,.07-1,.24-1.37,.7-.91,1.15,.04,3.29,.96,4.42,1.55,1.91,3.92,2.05,4.23,2.06,3.51,.15,5.62-3,5.75-3.19,.23-.22,.57-.24,.78-.08,.25,.2,.29,.63,0,.91Zm-8.2-39.5c-.15,.18-.93,1.07-2.14,1.05-.79,0-1.36-.4-1.6-.59-20.77-33.28-28.83-46.16-28.85-46.15,0,0-.01,.01-.01,.01,0,.01-.02,.02-.03,.05-.67,1.47,6.44,19.04,10.36,28.54,.26,.7,1.87,5.27-.15,9.32-.4,.8-1.43,2.88-3.51,3.49-2.08,.62-4.43-.46-6.07-2.74-.55-1.22-1.24-3.08-1.53-5.45-.55-4.48,.67-8.02,1.06-9.33,3.57-11.94-6.05-25.27-1.15-31.46,1.93-2.44,5.07-2.42,5.7-2.41,13.4,.08,23.66,44.6,24.99,50.53,.54,2.63,1.14,3.19,1.57,3.25,1.62,.23,2.92-4.62,7.39-11.22,.19-.28,0,0,6.65-7.85,3.26-3.85,4.73-5.6,7.22-6.05,.79-.14,2.59-.44,4.17,.84,2.34,1.89,2.24,5.63,2.22,6-.27,.94-.79,2.41-1.77,3.91-3.42,5.25-8.68,5.06-14.71,8.15-2.53,1.3-6.08,3.63-9.83,8.11Zm27.43,42.98c-.48,.33-.98,.37-1.25,.39-.89,.07-1.54-.29-1.93-.45-.75-.31-1.93-.49-3.79,.15-.42,.13-1.66,.45-2.95-.12-1.56-.69-2.57-2.41-2.54-4.35-.01-1.61-.03-3.23-.04-4.84-.85-1.92-1.71-3.83-2.56-5.75-.2-1.01,.27-2.03,1.13-2.48,.94-.5,2.08-.2,2.69,.5,.44,.51,.5,1.1,.51,1.34,.09,3.65,.18,7.29,.27,10.93-.02,.44,.02,1.3,.59,1.99,.78,.94,2.06,.94,3.45,.93,.94,0,2-.01,2.98-.71,.25-.17,.77-.56,1.09-1.24,.38-.82,.25-1.63,.19-2-.58-3.34-1.16-6.35-1.79-9.57-.2-1.03,.28-2.06,1.15-2.52,.75-.39,1.75-.36,2.45,.25,.85,.74,.74,1.86,.73,1.95-.14,3.6-.24,6.41-.38,8.37-.15,2,.18,2.72,.4,3.24,.3,.71,.6,.98,.64,1.66,0,.06,.07,1.56-1.03,2.31Zm17.07-.81c-2,1.73-4.59,1.02-4.88,.93-1.56-.46-2.65-1.41-3.3-2.52-.6-1.03-1.21-2.05-1.81-3.08-.07-.28,.02-.56,.22-.7,.27-.18,.7-.09,.92,.26,.63,.94,1.26,1.87,1.88,2.81,.2,.35,.68,1.07,1.58,1.53,.56,.29,1.06,.36,1.27,.38,.34,.03,1.12,.11,1.91-.34,.74-.43,1.06-1.09,1.21-1.4,.18-.38,.62-1.33,.21-2.31-.26-.6-.72-.94-.95-1.09-3.34-1.46-5.77-2.51-6.49-2.8-.09-.03-.35-.14-.64-.34-.54-.38-.82-.86-.92-1.04-.46-.79-.54-2.16-.15-3.35,1.09-3.35,5.51-4.01,6.08-4.1,1.76-.26,2.42,.28,2.59,.43,.31,.28,.47,.61,.55,.84,.46,1.79,.93,3.59,1.39,5.38,.04,.3-.09,.6-.33,.75-.3,.2-.74,.13-1.01-.19-.44-1.13-.87-2.25-1.31-3.38-.06-.17-.2-.54-.57-.8-.4-.29-.82-.28-1.15-.27-.98,.02-1.67,.55-1.87,.7-.33,.24-.85,.66-1.03,1.39-.05,.21-.14,.7,.05,1.21,.28,.78,1.01,1.16,1.32,1.33,1.2,.65,3.18,1.83,5.76,3.37,.22,.16,.57,.47,.84,.98,.31,.58,.34,1.11,.35,1.39,.04,.86-.21,2.72-1.71,4.01Zm20.93-3.05c-.19,.31-2.51,3.92-6.76,4.04-.46,.01-3.03,.04-5.22-1.83-2.71-2.32-2.75-5.77-2.77-7.34-.03-1.55-.09-5.33,2.69-7.59,1.79-1.46,3.85-1.55,4.68-1.59,.78-.03,4.12-.19,5.87,2.1,.29,.38,1.18,1.54,.87,2.94-.28,1.25-1.41,2.26-2.9,2.61-2.27,.61-4.54,1.22-6.81,1.82-.43,.07-1,.24-1.37,.7-.91,1.15,.04,3.29,.96,4.42,1.55,1.91,3.92,2.05,4.23,2.06,3.51,.15,5.62-3,5.75-3.19,.23-.22,.57-.24,.78-.07,.25,.2,.29,.63,0,.9Zm135.25,294.17c-.24,1.27-.61,3.24-2.05,3.79-.53,.2-1.01,.12-1.95-.05-1.05-.19-3.03-.67-3.86-2.02-.26-.42-.09-1.46,.05-1.92,.39-1.29,.97-2.73,2.16-3.49,.51-.33,1.24-.35,1.85-.25,1.09,.19,3.31,1.12,3.85,2.02,.3,.49,.12,.99-.05,1.92Z"/>
  <path class="cls-1" d="M905.25,67.34c.7,.48,1.46,.32,1.62,.28,1.32-.5,2.64-1,3.97-1.5l-6.44-.03c.15,.51,.43,.96,.85,1.24Z"/>
  <path class="cls-1" d="M879.05,422.73c.61-.1,1.56-.25,2.39-1.03,.72-.67,1-1.45,1.09-1.79,.23-.84,.14-1.57,.05-1.99,0,0-.03-.14-.07-.28-.2-.7-1.55-3.21-4.29-3.71-1.96-.36-4.56,.33-5.57,2.36-.52,1.05-.59,2.41-.06,3.57,.62,1.36,1.84,1.9,2.79,2.33,.48,.22,1.89,.83,3.66,.54Z"/>
  <path class="cls-1" d="M1025.87,740.77c-.17-1.08-.31-2.01-1.08-2.8-.79-.81-1.78-.99-2.36-1.1-1.94-.35-3.47,.47-3.93,.72-1.05,.58-1.65,1.3-2.02,1.76-.29,.36-1.18,1.53-1.6,3.24l11.09,.05c.02-.56,0-1.19-.11-1.87Z"/>
  <path class="cls-3" d="M944.81,741.16c-.49-1.05-.98-2.1-1.47-3.16-.3-1.09-.6-2.19-.9-3.28-.09-1.37-.19-2.74-.28-4.1,.11-1.3,.22-2.61,.33-3.91,.42-1.55,.85-3.11,1.27-4.66,.51-1.02,1.02-2.04,1.52-3.06,.85-.94,1.7-1.88,2.55-2.82,1.45-.93,2.91-1.87,4.36-2.8,1.13-.19,2.26-.37,3.39-.56,.84,.08,1.68,.17,2.52,.25,.62,.37,1.25,.74,1.88,1.11,.51,.79,1.03,1.57,1.54,2.36-.03,1.35-.06,2.71-.09,4.06,.12,.45,.23,.9,.34,1.35,.35,.27,.7,.55,1.04,.82,.82,.01,1.64,.03,2.46,.04,.59-.19,1.17-.39,1.76-.58,.4-.34,.81-.67,1.21-1.01,.25-.45,.51-.91,.76-1.37,.05-.52,.09-1.05,.14-1.57-.14-.64-.29-1.28-.43-1.93-.42-.55-.85-1.1-1.27-1.65-1.01-.78-2.01-1.57-3.01-2.35-1.35-.75-2.71-1.5-4.07-2.25-1.88-.16-3.76-.32-5.64-.47-1.59,.21-3.19,.41-4.79,.62-1.65,.64-3.29,1.27-4.94,1.91-1.45,1.28-2.89,2.55-4.34,3.83-1.06,2-2.12,4-3.18,5.99-.36,1.07-.73,2.14-1.09,3.21-.22,1.55-.44,3.11-.67,4.66,.06,1.11,.12,2.22,.18,3.33,.39,1.56,.78,3.12,1.17,4.68,.68,1.47,1.35,2.94,2.03,4.41l6.56,.03c-.29-.37-.57-.73-.86-1.1Z"/>
  <path class="cls-3" d="M969.34,735.74c.03-.5,.06-1,.09-1.5,.13-.16,.26-.32,.4-.48,.33-.11,.66-.22,.99-.33,.38-.3,.76-.6,1.14-.9,.13-.4,.26-.79,.39-1.19-.09-.32-.19-.64-.28-.96-.26-.34-.52-.67-.79-1.01-.52-.19-1.04-.37-1.57-.56l-2.1-.05-3.43-.09c-.45,.2-.9,.4-1.35,.59-.42,.57-.85,1.14-1.27,1.71,0,.78,0,1.56,0,2.35,.31,.64,.62,1.27,.93,1.91,.24,.32,.48,.64,.72,.96,.08,.39,.17,.78,.25,1.16-.03,1.67-.06,3.34-.09,5.01l5.79,.03c.06-1.9,.12-3.79,.18-5.69,0-.32,.01-.64,.02-.97Z"/>
  <path class="cls-3" d="M990.75,731.15c-.01-.17-.09-1.43,.9-2.39,1.07-1.04,2.47-.82,2.61-.79l1.74,.05,1.55,.04c.45,0,.89,0,1.34,0,.1,.01,.42,.06,.66,.32,.27,.3,.34,.76,.18,1.17-.04,.11-.11,.28-.19,.48-.35,.88-.52,1.34-.66,1.66-.59,1.34-1.19,2.68-1.79,4.02,0,.12,0,.49,.26,.73,.35,.33,1.05,.3,1.6-.19,1.4-1.9,2.8-3.79,4.21-5.69,.25-.55,.49-1.31,.49-2.22,0-.54,0-1.69-.78-2.7-.15-.19-.5-.64-1.13-.95-.6-.29-1.12-.31-1.78-.32-.46,0-1.24,.02-2.22,.29-1.28,.34-1.42,.65-2.29,.76-.79,.11-1.46-.04-1.9-.17-.19-.15-.75-.59-.94-.74-.19-.15-.75-.59-.94-.74-1.64-1.12-3.86-.8-5.07,.68-1.13,1.38-1.11,3.44,.1,4.85,.15,.29,.29,.6,.43,.93,.41,1,.66,1.93,.8,2.75-.04,1.88-.08,3.76-.12,5.63-.41,1.29-.83,2.58-1.24,3.86l3.94,.02c.07-2.99,.16-5.96,.2-8.97,.01-.79,.02-1.57,.03-2.36Z"/>
  <path class="cls-3" d="M1063.91,730.11c-.35-.54-1.14-1.75-2.63-2.78-1.35-.93-2.64-1.26-3.25-1.42-1.17-.29-2.11-.31-2.44-.31-.92,0-1.63,.12-2.15,.22-1.06,.19-1.14,.33-2.11,.51-1.12,.21-1.76,.33-2.54,.19-1.2-.22-1.17-.79-2.71-1.22-.65-.18-1.44-.4-2.34-.13-.68,.2-1.12,.58-1.46,.87-.82,.71-1.19,1.49-1.37,1.87-.22,.48-.45,.97-.48,1.68-.01,.32,0,.97,.33,1.67,.32,.67,.76,1.06,1.41,1.63,.67,.59,.81,.55,1.18,.94,.36,.37,.79,.99,1.01,2.04,0,2.28,0,4.56,0,6.85h2.44c.03-.8,.04-1.5,.05-2.07,.01-1.24,0-2.67,.17-4.65,.16-1.89,.32-2.36,.4-2.57,.63-1.73,1.89-2.73,2.5-3.21,1.32-1.02,2.65-1.44,3.49-1.62,.54-.24,1.46-.55,2.61-.52,.24,0,1.04,.04,2,.39,.36,.13,.94,.34,1.53,.79,1.07,.82,1.49,1.9,1.69,2.43,.23,.61,.31,1.08,.41,3.44,.1,2.22,.15,3.32,.1,4.06-.1,1.52-.33,2.69-.53,3.6l3.99,.02c.14-1.08,.2-2.23,.26-3.52,.15-3.11,.26-6.3-1.57-9.18Z"/>
  <path class="cls-3" d="M1162.78,735.65c.07-.21,.22-.6,.58-.97,.44-.45,.93-.6,1.15-.65,1.64-.55,3.28-1.11,4.93-1.66,.42-.1,.73-.44,.8-.84,.08-.48-.23-.98-.74-1.15-1.29-.03-2.57-.07-3.86-.1-.13-.04-.35-.14-.56-.35-.33-.33-.39-.73-.4-.87-.07-1.13-.13-2.26-.19-3.38-.07-1.13-.13-2.26-.19-3.38-.02-.28-.42-.77-.83-.76-.32,.01-.62,.34-.79,.8-.13,.68-.51,2.61-1.04,4.26-.1,.3-.25,.76-.66,1.18-.48,.5-1.07,.69-1.43,.78-.96,.25-1.92,.49-2.88,.74-.11,.06-.96,.57-1.08,1.54-.12,.92,.48,1.88,1.48,2.27,.19,.05,.68,.22,1.07,.69,.26,.31,.37,.63,.42,.82-.1,2.86-.19,5.72-.29,8.59h3.02c.5-2.51,1.01-5.04,1.51-7.56Z"/>
  <path class="cls-3" d="M1097.2,733.2c.11-3.04-1.4-5.76-3.82-6.9-2-.95-3.96-.49-4.62-.31-2.52,.71-3.61,1.02-5.02,.49-1.24-.47-1.96-1.62-2.37-2.5,.03-4.27,.07-8.55,.1-12.82,.5-2.51-1.31-4.59-3.09-4.63-1.41-.03-2.91,1.21-3.3,3.06,1.37,5.46,2.73,10.92,4.1,16.38-.03,2.1-.07,4.21-.11,6.31-.48,3.52-.96,7.05-1.44,10.57l4.61,.02c-.43-2.61-.84-5.24-1.25-8.02-.09-.58-.25-1.84,.38-3.12,.52-1.06,1.36-1.64,1.76-1.9,1.57-1.06,3.23-1.04,4.7-1,2.18,.05,4.18,.1,5.38,1.6,.87,1.09,.89,2.44,.85,3.13,0,3.12,0,6.24,0,9.36l3.93,.02c-.3-.73-.61-1.45-.91-2.18,.04-2.52,.08-5.05,.12-7.57Z"/>
  <path class="cls-5" d="M1199.56,749.57c-.2,.29-3.66,5.05-9.09,4.62-.48-.04-4.14-.38-6.45-3.42-1.37-1.8-2.73-5.17-1.26-6.89,.6-.7,1.51-.93,2.17-1.02,3.56-.82,7.11-1.64,10.67-2.45,2.33-.47,4.14-1.97,4.63-3.89,.56-2.15-.75-3.99-1.19-4.6-2.58-3.63-7.78-3.58-8.99-3.57-1.29,.01-4.48,.05-7.34,2.21-4.44,3.36-4.54,9.21-4.59,11.61-.04,2.42-.17,7.77,3.91,11.51,3.29,3.01,7.29,3.11,8,3.11,6.59,.05,10.39-5.42,10.7-5.89,.45-.4,.41-1.08,.04-1.4-.32-.27-.85-.26-1.22,.07Zm-17.54-11.99c-.02-2.95,1.64-5.6,4.2-6.7,2.55-1.09,5.52-.44,7.5,1.66,.85,.62,1.3,1.71,1.13,2.78-.17,1.07-.91,1.93-1.9,2.2-2.71,1-5.43,1.99-8.14,2.99-.18,.04-1.01,.21-1.77-.32-.77-.53-1.17-1.56-1.01-2.6Z"/>
  <path class="cls-3" d="M1029.31,726.06c-1.21-1.24-2.61-1.6-3.61-1.86-.98-.26-2.04-.23-4.14-.19-1.76,.04-2.7,.2-3.55,.82-.29,.21-.5,.42-.63,.57-1.43,1.84-2.87,3.69-4.3,5.53-.18,.41-.13,.86,.11,1.1,.34,.33,1.1,.28,1.54-.32,1.13-1.4,2.25-2.8,3.38-4.2,.18-.24,.49-.59,.97-.84,.56-.29,1.08-.29,2.06-.29,.83,0,1.24,0,1.67,.15,.92,.32,1.45,.97,1.68,1.26,.63,.78,.8,1.57,.93,2.22,.2,.98,.4,1.95-.08,2.96-.58,1.22-1.75,1.71-2.14,1.85-2.48,.34-4.95,.68-7.43,1.02-.75,.13-2.4,.54-3.84,1.92-1.09,1.04-1.55,2.15-1.68,2.47-.34,.87-.45,1.69-.46,2.35l5.09,.02c.42-1.72,1.31-2.88,1.6-3.24,.37-.45,.97-1.18,2.02-1.76,.45-.25,1.99-1.07,3.93-.72,.58,.11,1.58,.29,2.36,1.1,.76,.78,.91,1.71,1.08,2.8,.11,.68,.13,1.31,.11,1.87l4.79,.02c.11-4.17,.23-8.33,.34-12.5-.06-.72-.32-2.58-1.79-4.09Z"/>
  <path class="cls-3" d="M1117.6,715.76c-.61-.11-1.34-.08-1.85,.25-1.19,.75-1.77,2.19-2.16,3.49-.14,.46-.31,1.5-.05,1.92,.83,1.35,2.81,1.84,3.86,2.02,.95,.17,1.42,.25,1.95,.05,1.44-.55,1.82-2.52,2.05-3.79,.17-.93,.35-1.43,.05-1.92-.55-.9-2.77-1.83-3.85-2.02Z"/>
  <path class="cls-3" d="M1117.75,726.82c-.57-.02-1.09,.4-1.19,.98-.11,4.02-.21,8.04-.32,12.06-.41,1.05-.82,2.11-1.24,3.16h3.34c.17-5.06,.34-10.14,.5-15.22-.09-.55-.56-.97-1.1-.99Z"/>
  <path class="cls-3" d="M1136.5,736.41c-.27-.81-.11-1.56-.01-1.88,.33-1.13,1.16-1.74,1.68-2.1,.32-.22,1.42-1,2.95-.98,.52,0,1.17,.01,1.77,.48,.55,.42,.76,1,.84,1.27,.62,1.77,1.23,3.53,1.85,5.3,.4,.5,1.08,.63,1.56,.34,.38-.22,.59-.67,.55-1.15-.62-2.8-1.25-5.6-1.87-8.4-.12-.37-.35-.89-.81-1.34-.25-.24-1.26-1.13-4.01-.81-.9,.1-7.8,.89-9.68,6.01-.67,1.82-.61,3.94,.05,5.2,.15,.28,.56,1.03,1.38,1.66,.45,.34,.85,.51,.98,.57,.75,.33,2.71,1.25,5.49,2.57l6.62,.03c-3.25-2.08-5.76-3.69-7.37-4.63-.47-.27-1.58-.91-1.98-2.12Z"/>
  <path class="cls-5" d="M904.3,64.96c-.05-2.7,1.46-5.15,3.8-6.18,2.33-1.03,5.06-.45,6.89,1.46,.79,.56,1.2,1.56,1.06,2.54-.15,.98-.82,1.78-1.73,2.03-1.16,.44-2.32,.87-3.47,1.31l8.64,.04c.75-.63,1.28-1.42,1.5-2.32,.49-1.98-.72-3.66-1.12-4.21-2.4-3.31-7.16-3.22-8.27-3.2-1.18,.02-4.11,.08-6.71,2.08-2.67,2.06-3.6,5.1-3.92,7.57h3.44c-.11-.34-.16-.73-.1-1.12Z"/>
  <path class="cls-5" d="M904.45,79.72c3.04,2.74,6.7,2.79,7.36,2.79,6.04,0,9.48-5.06,9.76-5.49,.4-.38,.37-.99,.02-1.28-.29-.24-.78-.23-1.11,.08-.18,.26-3.31,4.66-8.3,4.31-.44-.03-3.8-.32-5.94-3.08-1.27-1.64-2.54-4.72-1.21-6.31,.55-.65,1.37-.87,1.98-.95,3.25-.78,6.51-1.56,9.76-2.34,1.05-.22,1.98-.68,2.71-1.29l-8.64-.04c-1.32,.5-2.64,1-3.97,1.5-.17,.04-.92,.2-1.62-.28-.42-.28-.7-.73-.85-1.24h-3.44c-.17,1.25-.18,2.36-.19,3.1-.02,2.22-.1,7.13,3.67,10.52Z"/>
  <path class="cls-5" d="M840.87,60.84c-.06-.66-.31-2.37-1.67-3.74-1.12-1.12-2.41-1.45-3.32-1.68-.9-.23-1.87-.2-3.8-.14-1.61,.05-2.47,.2-3.25,.78-.26,.2-.45,.39-.57,.53-1.3,1.7-2.6,3.4-3.9,5.11-.16,.38-.11,.79,.11,1.01,.32,.3,1.01,.25,1.41-.31,1.02-1.29,2.04-2.59,3.07-3.88,.16-.22,.44-.55,.89-.78,.51-.27,.98-.28,1.88-.28,.76,0,1.14,0,1.53,.13,.84,.28,1.33,.87,1.55,1.14,.58,.71,.74,1.43,.87,2.03,.19,.9,.38,1.78-.05,2.71-.52,1.12-1.59,1.58-1.94,1.71-1.35,.2-2.7,.39-4.05,.59l11.16,.05c.03-1.66,.06-3.31,.09-4.97Z"/>
  <path class="cls-5" d="M823.36,67.96c-.99,.97-1.4,1.99-1.52,2.28-.54,1.42-.42,2.68-.32,3.26,.06,.7,.25,1.88,.94,3.14,.77,1.42,1.77,2.21,2.38,2.68,.65,.5,1.8,1.39,3.51,1.72,.62,.12,2.37,.49,4.04-.21,.38-.16,.81-.39,1.54-.54,.48-.09,1.17-.23,1.94,0,.49,.15,.43,.27,1.37,.66,.4,.17,.81,.32,1.23,.37,.92,.11,2-.33,2.64-1.1,1-1.21,.62-2.88,.52-3.35-.22-.97-.62-1.29-.85-2.6-.12-.7-.13-1.24-.12-1.55,.04-2.3,.08-4.61,.13-6.91l-11.16-.05c-.92,.13-1.83,.27-2.75,.4-.68,.13-2.19,.51-3.51,1.79Zm6.03-.2c.41-.23,1.81-1,3.59-.69,.53,.09,1.45,.25,2.18,.99,.71,.71,.84,1.56,1.01,2.56,.27,1.64,0,2.97-.13,3.56-.26,1.09-.63,2.61-2,3.85-.38,.34-1.6,1.35-3.38,1.49-.48,.04-1.45,.1-2.48-.42-.3-.15-.96-.49-1.45-1.23-.09-.14-.38-.6-.61-2.01-.15-.95-.25-1.58-.18-2.42,.17-2.16,1.29-3.64,1.62-4.04,.33-.42,.88-1.09,1.84-1.63Z"/>
  <path class="cls-5" d="M763.31,59.26c-.49-1.07-1-2.16-2.13-3.15-1.26-1.1-2.58-1.47-3.51-1.72-1.35-.36-6.26-1.4-9.38,1.4-1.01,.9-1.57,1.96-1.97,2.75-.82,1.64-1.13,3.03-1.42,4.42-.2,.95-.4,1.94-.45,3.28-.02,.64-.04,2.11,.33,3.95,.32,1.62,.79,2.77,1.12,3.56,.54,1.29,.86,2.08,1.61,2.98,.82,.98,1.67,1.53,2.05,1.76,2.72,1.68,6.46,1.8,9.26,.42,1.04-.51,1.73-1.12,1.92-1.29,1.15-1.06,1.66-2.15,2.33-3.55,.82-1.72,1.16-3.12,1.26-3.54,.12-.49,.4-1.82,.43-3.57,.03-1.66-.18-2.9-.31-3.66-.22-1.26-.43-2.53-1.14-4.05Zm-3.18,15.1c-.17,.8-.41,1.67-1.16,2.36-1.16,1.06-2.76,.97-3.06,.95-1.35-.08-2.28-.74-2.71-1.06-1.29-.95-1.81-2.14-2.63-4.12-.18-.43-.91-2.22-1.41-4.8-.33-1.71-.4-2.9-.5-4.74-.15-2.78,.03-3.64,.41-4.41,.52-1.05,1.23-1.63,1.43-1.78,.37-.28,1.29-.99,2.64-.99,1.59,0,2.64,1.01,2.87,1.24,.7,.82,1.61,2.01,2.41,3.57,1.11,2.17,1.48,3.99,1.75,5.42,.12,.62,.8,4.32-.05,8.36Z"/>
  <path class="cls-5" d="M782.42,63.43c-.12-.59-.41-2.47,.68-4.25,1.22-1.98,3.33-2.46,4.62-2.76,.94-.21,1.92-.42,2.94,.05,1.1,.51,1.62,1.5,1.76,1.78,.41,.79,.46,1.53,.46,1.93-.12,1.81-.25,3.62-.37,5.43l4.03,.02c.59-1.57,1.19-3.14,1.78-4.71,.03-.07,.61-1.25,1.13-1.84,.13-.15,.27-.28,.27-.28,.25-.25,.47-.42,.65-.56,.47-.37,1.26-.98,2.42-1.3,.64-.18,1.17-.33,1.86-.17,.21,.05,1.23,.31,1.74,1.22,.2,.35,.24,.7,.31,1.37,.11,1.02,.04,1.81,.04,1.88-.15,1.72-.28,3.12-.4,4.44l3.79,.02c.42-1.63,.84-3.26,1.27-4.9,.14-.42,.55-1.83-.11-3.27-.5-1.08-1.35-1.62-1.9-1.96-2.94-1.82-6.49-.66-7.25-.39-1.41,.51-2.37,1.24-2.8,1.6-1.18,.99-1.87,2.06-2.24,2.75-.07,.24-.3,.38-.5,.34-.16-.03-.29-.17-.33-.34,.02-.49,0-1.72-.82-2.82-.63-.84-1.44-1.22-1.99-1.47-.86-.4-1.59-.49-2.25-.58-.94-.13-1.68-.08-2.62-.01-3.88,.29-3.77,.6-5.02,.45-1.75-.22-2.04-.84-3.27-.58-.24,.05-1.64,.39-2.31,1.66-.67,1.27-.16,2.65,.04,3.2,.05,.15,.11,.27,.16,.37,.22,.45,.42,.76,.45,.81,.18,.28,.39,1.11,.51,3.58-.06,.48-.11,.96-.17,1.44l3.62,.02c-.05-.71-.1-1.42-.16-2.14Z"/>
  <path class="cls-5" d="M791.72,76.86c-.42,1.84,.92,3.5,2.43,3.6,1.42,.1,2.89-1.19,2.91-2.96-.43-3.29-.86-6.58-1.29-9.87,.25-.67,.51-1.34,.76-2.02l-4.03-.02c-.26,3.75-.52,7.5-.78,11.26Z"/>
  <path class="cls-5" d="M805.61,72.56c-.02,.17-.09,.78-.19,1.63-.09,.81-.19,1.63-.29,2.43-.49,2.08,1,3.92,2.6,4.02,1.42,.09,2.97-1.21,3.1-3.08-.5-2.96-1-5.91-1.5-8.87,.26-1,.52-2,.78-3l-3.79-.02c-.2,2.17-.4,4.1-.71,6.89Z"/>
  <path class="cls-5" d="M780.16,80.17c1.6,.19,3.13-1.03,3.27-2.72-.29-3.96-.58-7.93-.86-11.89l-3.62-.02c-.45,3.83-.9,7.67-1.35,11.5-.09,1.58,1.07,2.94,2.56,3.12Z"/>
  <path class="cls-5" d="M962.79,61.65c.62-1.47,.23-3.04-.81-3.78-1.04-.74-2.32-.35-2.46-.3-1.51,.49-1.95,1.99-1.98,2.11-.29,2.21-.58,4.43-.86,6.64l3.82,.02c.77-1.56,1.53-3.13,2.3-4.69Z"/>
  <path class="cls-5" d="M947.86,66.18c0-.5,.05-.62,0-.98-.04-.29-.11-.77-.48-1.2-.38-.44-.86-.57-1.03-.61-.33,0-.66-.01-.98-.02-.16,.03-.65,.15-1.05,.58-.38,.41-.47,.89-.52,1.18-.06,.35-.02,.48-.04,.98,0,.06-.01,.1-.01,.15l4.11,.02s0-.06,0-.1Z"/>
  <path class="cls-5" d="M934.32,59.27c-.03-.12-.42-1.64-1.91-2.18-.14-.05-1.4-.49-2.47,.21-1.07,.7-1.51,2.27-.95,3.75,.77,1.72,1.54,3.44,2.31,5.15l3.67,.02c-.22-2.32-.44-4.64-.66-6.95Z"/>
  <path class="cls-5" d="M934.36,80.18c.21,1.7,1.62,2.96,3.23,2.98,1.42,.02,2.74-.95,3.18-2.39,1.49-4.23,2.98-8.46,4.47-12.69,0-.04,.04-.06,.06-.09,.02-.03,.07-.09,.12-.14,.02,0,.02-.02,.04-.03,.09-.05,.19-.11,.33-.11,.14,0,.24,.07,.33,.12,.02,.01,.02,.02,.03,.03,.05,.05,.1,.11,.12,.14,.02,.03,.05,.05,.05,.09,1.34,4.28,2.68,8.56,4.02,12.83,.39,1.45,1.67,2.47,3.1,2.5,1.6,.04,3.06-1.18,3.33-2.87,.97-4.19,1.93-8.37,2.9-12.56l.82-1.67-3.82-.02c-.5,3.85-1,7.7-1.5,11.55-.04,.09-.53,1.33-1.61,1.53-1.11,.21-2.48-.76-2.76-2.4-1.67-5.04-2.72-8.78-2.84-9.6h.01c-.05-.26-.1-.65-.11-1.12l-4.11-.02c-.03,.44-.09,.82-.14,1.06h.01c-.15,.82-1.33,4.52-3.17,9.5-.34,1.63-1.74,2.55-2.85,2.3-1.07-.24-1.52-1.49-1.55-1.59-.36-3.77-.71-7.54-1.07-11.31l-3.67-.02c.2,.44,.39,.87,.59,1.31,.82,4.22,1.64,8.44,2.46,12.65Z"/>
  <path class="cls-5" d="M742.54,41.55c-1.44-.93-3.09-.35-3.31-.27-3.54,.72-7.09,1.43-10.64,2.15-1.08-.04-2.17-.08-3.25-.12-3.67-.91-7.33-1.83-11-2.74-.22-.07-1.51-.47-2.78,.27-.86,.5-1.23,1.24-1.36,1.52-.06,.14-.65,1.52,.09,2.91,.48,.9,1.25,1.3,1.55,1.45,1.16,.58,2.26,.38,2.61,.3,2.7-.24,5.4-.48,8.1-.72,.27-.02,1.03-.03,1.8,.44,.63,.39,.96,.91,1.09,1.16-.06,2.83-.13,5.67-.19,8.5-1.86,6.07-3.72,12.13-5.59,18.2-.08,.24-.63,1.94,.36,3.42,.44,.66,1.01,1.02,1.36,1.2,.92,.02,1.84,.05,2.76,.07,.38-.08,1.16-.31,1.86-.98,1.14-1.1,1.17-2.53,1.18-2.83,.26-9.21,.53-18.41,.8-27.62,.12-.24,.46-.79,1.13-1.18,.69-.39,1.37-.39,1.72-.38,3.92,.1,8.43,1.02,8.43,1.02,.86,.17,1.82,.37,2.79-.08,.92-.43,1.38-1.21,1.52-1.48,.11-.21,.74-1.47,.16-2.82-.06-.14-.39-.87-1.19-1.39Z"/>
  <path class="cls-5" d="M1030.73,55.7c.87,.15,1.3,.22,1.79,.03,1.32-.52,1.64-2.32,1.85-3.49,.15-.85,.31-1.32,.03-1.76-.51-.82-2.55-1.66-3.55-1.82-.56-.09-1.22-.06-1.69,.24-1.09,.7-1.6,2.03-1.95,3.22-.12,.42-.27,1.38-.03,1.76,.77,1.23,2.59,1.66,3.55,1.82Z"/>
  <path class="cls-5" d="M1032.08,59.7c-.09-.51-.52-.88-1.02-.9-.53-.02-1,.37-1.08,.91-.04,2.31-.08,4.62-.12,6.93h2.05c.06-2.31,.11-4.62,.17-6.94Z"/>
  <path class="cls-5" d="M1026.32,79.91c-.75,1.45-.57,3.01,.13,3.79,.72,.81,1.75,1,1.75,1,.03,0,.06,.01,.11,.02,.27,.04,1.38,.15,2.27-.61,.83-.7,.93-1.68,.95-1.89,.13-5.19,.25-10.38,.38-15.57h-2.05c-.02,1.37-.05,2.75-.07,4.14-1.16,3.04-2.31,6.08-3.47,9.12Z"/>
  <path class="cls-5" d="M855.01,64.29c-.25-.74-.11-1.43-.03-1.73,.29-1.04,1.05-1.6,1.52-1.94,.29-.21,1.29-.93,2.69-.92,.47,0,1.07,0,1.63,.42,.51,.38,.7,.91,.77,1.16,.55,1.54,1.11,3.09,1.66,4.63h1.92c.07-.16,.1-.35,.08-.54-.59-2.57-1.19-5.13-1.78-7.69-.11-.34-.32-.81-.75-1.22-.23-.22-1.17-1.02-3.68-.71-.82,.1-7.14,.88-8.82,5.59-.56,1.56-.53,3.36-.02,4.52l6.08,.03c-.47-.32-1.03-.83-1.29-1.59Z"/>
  <path class="cls-5" d="M863.35,66.13c.37,.46,.99,.57,1.43,.3,.19-.12,.33-.3,.41-.51h-1.92c.03,.06,.05,.14,.08,.21Z"/>
  <path class="cls-5" d="M851.61,67.61c.41,.31,.78,.46,.9,.51,1.02,.43,4.44,2.02,9.15,4.22,.32,.22,.97,.71,1.31,1.58,.55,1.41-.11,2.73-.38,3.27-.22,.45-.7,1.37-1.77,1.95-1.13,.62-2.24,.48-2.73,.42-.31-.04-1.01-.16-1.8-.59-1.26-.68-1.92-1.72-2.19-2.23-.86-1.35-1.72-2.71-2.58-4.06-.29-.52-.91-.66-1.29-.41-.29,.19-.43,.59-.34,.98,.82,1.48,1.64,2.96,2.46,4.44,.89,1.61,2.41,3,4.61,3.71,.42,.13,4.07,1.23,7-1.15,2.18-1.78,2.61-4.4,2.58-5.63,0-.39-.02-1.15-.45-1.99-.36-.72-.86-1.18-1.17-1.42-3.62-2.28-6.39-4.04-8.09-5-.14-.08-.33-.19-.55-.34l-6.08-.03c.04,.08,.07,.17,.11,.25,.14,.26,.52,.94,1.28,1.51Z"/>
  <path class="cls-5" d="M977.62,66.26c-.25-.74-.11-1.43-.03-1.73,.29-1.04,1.05-1.6,1.52-1.94,.29-.21,1.29-.93,2.69-.92,.47,0,1.07,0,1.63,.42,.51,.38,.7,.91,.77,1.16,.38,1.07,.77,2.13,1.15,3.2h2.32c-.52-2.26-1.05-4.53-1.58-6.8-.11-.34-.32-.81-.75-1.22-.23-.22-1.17-1.02-3.68-.72-.82,.1-7.14,.88-8.82,5.59-.36,1.01-.47,2.11-.37,3.08l5.21,.02c-.02-.05-.05-.1-.07-.15Z"/>
  <path class="cls-5" d="M985.95,68.1c.37,.46,.99,.57,1.43,.3,.34-.21,.54-.62,.49-1.05-.07-.3-.14-.59-.21-.89h-2.32c.2,.54,.4,1.09,.59,1.64Z"/>
  <path class="cls-5" d="M974.21,69.58c.41,.31,.78,.46,.9,.51,1.02,.43,4.44,2.02,9.15,4.22,.32,.22,.97,.71,1.31,1.58,.55,1.41-.11,2.73-.38,3.27-.22,.45-.7,1.37-1.77,1.95-1.13,.62-2.24,.48-2.73,.42-.31-.04-1.01-.16-1.8-.59-1.26-.68-1.92-1.72-2.19-2.23-.86-1.35-1.72-2.71-2.58-4.06-.29-.52-.91-.66-1.29-.41-.29,.19-.43,.59-.34,.98,.82,1.48,1.64,2.96,2.46,4.44,.89,1.61,2.41,3,4.61,3.71,.42,.13,4.07,1.23,7-1.15,2.18-1.78,2.61-4.4,2.58-5.63,0-.39-.02-1.15-.45-1.99-.36-.72-.86-1.18-1.17-1.42-3.62-2.28-6.39-4.04-8.09-5-.41-.24-1.35-.77-1.77-1.78l-5.21-.02c.06,.64,.22,1.23,.47,1.68,.14,.26,.52,.94,1.28,1.51Z"/>
  <path class="cls-5" d="M894.08,59.32c.08-.21,.28-.81-.01-1.28-.24-.38-.69-.54-1.03-.55-1.69-.04-3.38-.08-5.07-.12-1.88-.28-3.8-.54-5.74-.8-1.92-.25-3.82-.48-5.7-.7-1.09-.02-1.92,.88-1.87,1.8,.04,.76,.68,1.46,1.54,1.59,3.63,.06,7.26,.13,10.89,.19,.05,0,1.1,.11,1.55,1.06,.32,.66,.21,1.45-.27,2.03-1.14,1.15-2.29,2.31-3.44,3.46l3.87,.02c1.58-2.03,3.34-4.27,5.26-6.7Z"/>
  <path class="cls-5" d="M874.26,79.09c.24,1.03,.91,1.66,1.12,1.83,.55,.48,1.26,.81,2.04,.91,5.36,.09,10.71,.19,16.07,.28,.07-.01,.31-.05,.5-.27,.03-.03,.2-.24,.2-.52,0-.34-.25-.66-.62-.8-4.07-.46-8.15-.91-12.22-1.37-.24-.03-.78-.34-.98-.88-.27-.7,.25-1.5,.52-1.9,.73-1.06,3.66-4.89,7.92-10.35l-3.87-.02c-3.28,3.31-6.57,6.62-9.85,9.92-.14,.17-1.22,1.49-.84,3.16Z"/>
  <path class="cls-5" d="M1016.62,60.31s.15-.55-.18-.92c-.3-.34-.88-.4-1.33-.09-2.13,2.41-4.26,4.83-6.39,7.24h2.57c1.78-2.07,3.56-4.15,5.34-6.23Z"/>
  <path class="cls-5" d="M1003.79,46.71c-.1-1.26-.99-2.25-2.03-2.41-1.32-.21-2.78,.95-2.85,2.64,.64,6.47,1.27,12.93,1.91,19.4,0,.06,0,.12,0,.18h2.62c.12-6.59,.24-13.2,.35-19.8Z"/>
  <path class="cls-5" d="M1000.76,73.25c-.07,.24-.13,.48-.2,.73-.64,2.42-1.1,4.78-1.42,7.07-.11,1.62,1.19,3.01,2.77,3,1.58,0,2.88-1.4,2.76-3.02-.25-2.24-.5-4.49-.74-6.73,.19-.64,.66-1.13,1.24-1.24,.62-.12,1.13,.23,1.3,.34,.49,.32,.71,.78,.77,.91,.46,.91,2.3,3.99,4.9,8.31,.53,.89,1.66,1.67,2.86,1.56,.9-.08,1.7-.73,2.05-1.51,.54-1.2,.05-2.79-1.28-3.7-2.54-2.45-5.08-4.9-7.62-7.35-.06-.17-.16-.54-.06-1,.12-.58,.48-.92,.61-1.03,.86-1.01,1.72-2.01,2.58-3.02h-2.57c-.88,.99-1.76,1.99-2.65,2.99-.03,.05-.46,.77-1.18,.79-.71,.02-1.44-.66-1.49-1.62,.01-.73,.03-1.46,.04-2.19h-2.62c0,.77-.02,1.57-.02,2.35-.01,1.46-.03,2.92-.04,4.37Z"/>
  <path class="cls-5" d="M795.81,393.11c-.39,.16-.78,.32-1.16,.48-.12,.4-.23,.8-.35,1.2,.88-.22,1.38-.78,1.51-1.67Z"/>
  <path class="cls-5" d="M883.82,349.72c-.3-.39-1.11-1.39-2.39-2.11-2.79-1.57-5.21-.31-5.56-.12-.61,.54-1.37,1.42-1.75,2.8-.83,3.05,1.07,5.55,1.65,9.46,.69,4.7-1.04,8.02-1.71,9.29-2.36,4.51-6.67,6.56-7.95,6.34-.13-.02-.91-.2-.98,.15,0,0-.07,.21,.18,.57,.72,1.02,7.83,.33,12.88-4.62,.89-.87,1.96-2.62,4.1-6.12,3.35-5.49,3.76-7.43,3.66-9.42-.05-1.07-.22-3.79-2.12-6.22Z"/>
  <path class="cls-5" d="M903.68,337.06c1.84,1.75,3.21,3.89,4.91,5.77,.16,.18,2.86,3.19,4.73,6.92,2.23,4.45,1.61,6.95,4.43,14.02,.51,1.27,1.31,3.14,3.19,3.93,1.46,.61,2.92,.3,3.81,.1,2.45-.56,2.97-1.68,6.54-4.24,3.49-2.5,5-2.86,5.9-4.92,.25-.58,.71-1.67,.22-2.8-.43-1-1.45-1.66-2.43-1.87-.8-.17-1.44-.01-1.98,.13-.79,.21-1.48,.55-3.84,2.3-1.68,1.25-1.83,1.43-2.38,1.53-1.62,.28-3.08-.88-3.36-1.11-1.06-.85-1.44-1.87-1.8-2.81-.47-1.24-1.04-2.79-.36-4.3,.51-1.12,1.5-1.76,2.62-2.47,.36-.23,1.13-.62,2.63-1.39,.15-.08,.3-.14,.51-.26,.64-.37,1.41-.81,1.71-1.56,.32-.81-.06-1.62-.21-1.93-.09-.18-.63-1.31-1.81-1.64-.82-.23-1.55,.06-3.03,.63-.91,.35-1.05,.51-2.15,.99-1.44,.64-2.17,.95-2.63,.97-2.76,.12-5.79-3.2-5.7-5.91,.01-.32,.02-.71,.24-1.16,.66-1.39,2.22-1.22,3.37-2.56,.15-.17,1.14-1.37,.84-2.58-.45-1.8-3.46-2.38-3.75-2.43-.96-.17-1.67-.09-6.92,1.67-3.38,1.13-4.38,1.53-4.75,2.52-.39,1.02,.04,2.23,.14,2.49,.39,1.08,1.1,1.75,1.34,1.98Z"/>
  <path class="cls-5" d="M945.26,370.15c.98-1.5,1.49-2.97,1.77-3.91,.01-.37,.11-4.11-2.22-6-1.58-1.28-3.38-.98-4.17-.84-2.49,.45-3.97,2.21-7.22,6.05-6.65,7.85-6.46,7.57-6.65,7.85-4.47,6.59-5.78,11.45-7.39,11.22-.43-.06-1.03-.62-1.57-3.25-1.33-5.93-11.58-50.44-24.99-50.53-.63,0-3.77-.02-5.7,2.41-4.91,6.19,4.72,19.52,1.15,31.46-.39,1.31-1.61,4.85-1.06,9.33,.29,2.36,.98,4.23,1.53,5.45,1.64,2.28,3.99,3.36,6.07,2.74,2.08-.62,3.11-2.69,3.51-3.49,2.02-4.05,.4-8.62,.15-9.32-3.92-9.5-11.03-27.07-10.36-28.54,.01-.02,.02-.04,.03-.05,0,0,0,0,.01-.01,.02-.01,8.08,12.87,28.85,46.15,.24,.19,.81,.58,1.6,.59,1.2,.01,1.98-.87,2.14-1.05,3.74-4.48,7.29-6.81,9.83-8.11,6.03-3.09,11.29-2.9,14.71-8.15Z"/>
  <path class="cls-5" d="M824.55,354.8c-1.08,1.35-1.35,3.56-.94,5.32,.01,.06,.09,.43,.25,.81,.48,1.17,1.73,2.66,5.65,4.88,5.19,2.94,7.78,4.42,11.11,4.76,2.8,.28,6.2,.65,9.53-1.73,2.47-1.76,4.3-4.52,5.13-7.89,2.08-8.48-6.51-15.41-7.55-16.28-1.1-.92-2.11-1.54-2.82-1.94-.1-.08-1.74-1.47-3.52-.68-.17,.08-1.49,.68-1.83,2.04-.21,.8,.03,1.49,.11,1.73,.79,2.32,4.74,3.78,6.94,5.27,6.35,4.29,6.34,14.27,5.55,15.36-.59,.83-1.37,1.16-1.37,1.16-.08,.03-.21,.08-.38,.13-2.8,.75-5.27-3.15-8.73-6.91-3.91-4.26-7.08-7.34-11.34-7.74-.8-.07-4.13-.39-5.81,1.71Z"/>
  <path class="cls-5" d="M807.41,351.36c7.29,2.28,17.6,.82,21.39-5.32,1.86-3.01,2.14-7.12,.71-10.32-3.44-7.72-16.26-8.95-24.49-6.42-5.83,1.79-9.6,5.52-10.8,6.73-2.17,2.2-3.58,3.75-6.07,9.37-1.39,3.13-7.75,19.38-11.82,26.71-.28,.51-1.89,3.38-1.34,6.4,.11,.6,.36,1.88,1.42,2.78,.72,.61,1.48,.78,2.07,.9,3,.63,5.54-.89,5.77-1.04,1.75-1.13,2.68-2.67,3.15-3.58,1.09-2.13,1.75-4.83,.94-15.1-.41-5.2-.85-8.01,.26-12.08,.39-1.41,.84-2.53,1.17-3.27,.38-.46,1.02-1.1,1.96-1.53,4.38-2,8.75,3.59,15.67,5.76Z"/>
  <path class="cls-5" d="M875.96,392.35c.62-.15,1.07-.26,1.58-.53,1.01-.55,1.54-1.36,1.79-1.74,1.43-2.24,.74-4.73,.67-4.98-.26-.88-.68-1.55-.91-1.84-3.29-4.13-21.64,1.12-24.35-.75-.21-.14-.8-.55-.86-1.17-.08-.76,.67-1.4,.86-1.57,4.46-3.87,10.81-10.66,14.01-20.74,1.37-4.3,3.03-10.39,.62-16.8-.33-.89-3.47-8.95-8.6-8.31-1.62,.21-3.68,1.12-4.6,2.94-2.59,5.09,6.65,10.16,6.44,20.5-.1,4.8-2.2,9.22-3.2,11.31-2,4.21-3,6.31-4.83,7.73-.88,.68-2.8,1.97-3.46,4.12-.36,1.17-.11,1.83,.02,2.1,.31,.65,.88,.96,1.71,1.38,1.6,.81,2.4,1.21,3.48,1.6,.65,.23,1.95,.82,4.55,2,3.72,1.68,3.96,2.06,7.59,3.75,.46,.22,2.91,1.33,5.16,1.29,1.15-.02,2.34-.3,2.34-.3Z"/>
  <path class="cls-5" d="M828.78,376.77c.7-1.69,.04-4.12-1.48-6.12-1.61-1.45-11.36-10.16-19.67-13.58-3.02-1.24-5.92-1.83-8.82-.92-1.16,.36-2.27,.75-3.17,1.83-2.54,3.09,.59,7.31-.28,14.06-.92,7.14-5.28,9.05-4.24,14.86,.33,1.83,1.04,3.24,1.56,4.1,.31,.33,2.11,2.24,4.29,1.89,2.52-.41,3.6-3.53,4.01-4.7,.82-2.38,.6-4.62,.39-6.89-.43-4.57-.82-6.9-.82-6.9-.24-.99-.44-2.6,.32-3.81,.32-.5,.72-.79,1.01-.96,.52-.36,1.04-.73,1.57-1.09,.6-.23,1.53-.47,2.58-.21,.86,.21,1.39,.66,2.28,1.37,0,0,4.11,3.32,7.32,5.44,.32,.21,.48,.32,.66,.43,2.62,1.71,4.95,2.68,6.53,3.25,.37,.13,4.8,.78,5.98-2.06Zm-32.66,15.94c.18-.8,.65-1.38,1.34-1.8,0,.94-.46,1.52-1.34,1.8Zm7.43-25.84c-.96,.63-1.91,1.27-2.87,1.9-.71,.4-1.25,.41-1.66,.29-2.39-.72-4-7.11-2.05-9.44,.32-.38,.65-.54,.8-.61,2.41-1.03,6.79,2.67,6.6,5.82-.03,.51-.19,1.23-.82,2.04Z"/>
  <path class="cls-5" d="M796.12,392.72c.88-.28,1.34-.86,1.34-1.8-.69,.42-1.16,1-1.34,1.8Z"/>
  <path class="cls-5" d="M884.26,430.19c-.19-.23-.77-.88-1.75-1.42-1.85-1.02-4.36-1.25-6.12-1.87-.18-.06-.52-.21-.68-.52-.24-.47,.12-1.06,.14-1.09,.46-.75,1.45-.45,3.18-.87,.82-.2,2.49-.6,3.64-1.95,.56-.66,.88-1.42,.98-1.66,.06-.15,.34-.83,.5-1.86,.22-1.48-.1-1.6,.14-2.96,.16-.9,.36-1.16,.22-1.74-.18-.77-.74-1.22-.87-1.31-.68-.52-1.45-.51-1.79-.5-.62,0-.64,.18-1.37,.21-.39,.02-.63-.03-1.49-.16,0,0-.74-.17-1.68-.25-.52-.05-1.97-.14-3.47,.37-.71,.24-2.22,.76-3.3,2.28-1.02,1.42-1.38,3.36-.86,5.05,.65,2.12,2.6,3.53,3.19,3.82,.39,.19,.71,.51,1.08,.74,.16,.1,.39,.25,.43,.5,0,.03,.02,.15-.08,.39-.13,.31-.29,.44-.39,.58-.28,.41-.19,1.15,.13,1.56,.24,.31,.55,.36,.83,.87,.06,.11,.09,.17,.1,.21,.1,.58-1.63,1.1-2.78,1.95-1.21,.89-2.54,2.72-2.39,4.71,.16,2.13,1.95,3.47,2.38,3.77,.03,.02,.05,.03,.06,.04,2.55,1.72,6.19,1.75,8.77,.93,.16-.05,.29-.09,.48-.17,1.86-.74,2.84-2.25,3.16-2.76,.26-.41,.64-1.03,.85-1.96,.25-1.12,.1-2.07-.02-2.56-.21-.87-.66-1.7-1.22-2.39Zm-11.66-10.32c-.53-1.15-.46-2.51,.06-3.57,1.01-2.03,3.61-2.72,5.57-2.36,2.74,.5,4.08,3.01,4.29,3.71,.04,.14,.07,.28,.07,.28,.09,.42,.18,1.15-.05,1.99-.09,.34-.37,1.12-1.09,1.79-.84,.77-1.78,.93-2.39,1.03-1.77,.29-3.18-.32-3.66-.54-.95-.43-2.16-.97-2.79-2.33Zm6.53,18.41c-1.78,.68-4.28,.76-5.91-.61-.29-.24-1.06-.88-1.29-1.98-.24-1.15,.26-2.08,.46-2.46,.56-1.05,1.4-1.56,1.96-1.9,1.4-.85,2.74-.95,3.41-.98,1.02-.06,2-.12,3.06,.43,.12,.06,2.14,1.15,2.3,3.02,.19,2.25-2.49,3.9-3.99,4.48Z"/>
  <path class="cls-5" d="M948.56,425.41c-.22-.52-.55-1.24-.4-3.24,.15-1.96,.25-4.77,.38-8.37,.01-.1,.13-1.21-.73-1.95-.7-.61-1.7-.65-2.45-.25-.88,.46-1.36,1.49-1.15,2.52,.64,3.22,1.21,6.23,1.79,9.57,.06,.37,.19,1.17-.19,2-.32,.69-.84,1.07-1.09,1.24-.98,.7-2.04,.71-2.98,.71-1.39,0-2.67,0-3.45-.93-.57-.68-.61-1.54-.59-1.99-.09-3.64-.18-7.29-.27-10.93-.01-.24-.07-.83-.51-1.34-.61-.71-1.75-1-2.69-.5-.86,.45-1.34,1.47-1.13,2.48,.85,1.92,1.71,3.83,2.56,5.75,.01,1.61,.03,3.23,.04,4.84-.02,1.94,.98,3.65,2.54,4.35,1.29,.57,2.53,.25,2.95,.12,1.86-.64,3.04-.46,3.79-.15,.39,.16,1.04,.51,1.93,.45,.27-.02,.77-.06,1.25-.39,1.1-.75,1.04-2.25,1.03-2.31-.04-.69-.34-.95-.64-1.66Z"/>
  <path class="cls-5" d="M905.95,421.4c-.01-1.61-.03-3.23-.04-4.84,.02-1.94-.98-3.65-2.54-4.35-1.29-.57-2.53-.25-2.95-.12-1.86,.64-3.04,.46-3.79,.15-.39-.16-1.04-.51-1.93-.45-.27,.02-.77,.06-1.25,.39-1.1,.75-1.04,2.25-1.03,2.31,.04,.69,.34,.95,.64,1.66,.22,.52,.55,1.24,.4,3.24-.15,1.96-.25,4.77-.38,8.37-.01,.1-.13,1.21,.73,1.95,.7,.61,1.7,.65,2.45,.25,.88-.46,1.36-1.49,1.15-2.52-.64-3.22-1.21-6.23-1.79-9.57-.06-.37-.19-1.17,.19-2,.32-.69,.84-1.07,1.09-1.24,.98-.7,2.04-.71,2.98-.71,1.39,0,2.67,0,3.45,.93,.57,.68,.61,1.54,.59,1.99,.09,3.65,.18,7.29,.27,10.93,.01,.24,.07,.83,.51,1.34,.61,.71,1.75,1,2.69,.5,.86-.46,1.34-1.47,1.13-2.48-.85-1.92-1.71-3.83-2.56-5.75Z"/>
  <path class="cls-5" d="M812.73,411.16c-.42-.96-1.4-3.2-3.78-4.76-1.56-1.02-3.14-1.36-4.21-1.47-2.54,.02-5.08,.04-7.62,.07-.23,.03-1.4,.21-2.18,1.26-1.03,1.38-.46,3.01-.42,3.13,.6,1.46,1.21,2.91,1.81,4.37,0,2.44-.02,4.88-.03,7.32-.44,1.99-.89,3.97-1.33,5.96-.04,.12-.47,1.55,.46,2.76,.7,.9,1.89,1.3,3.04,1.03,2.18-.08,4.37-.16,6.55-.24,1.41-.32,3.66-1.07,5.46-3,1.36-1.46,2.04-3.04,2.36-3.81,.49-1.19,.7-2.19,.81-2.72,.1-.51,.35-1.84,.33-3.6-.02-1.45-.21-2.61-.35-3.32-.14-.67-.36-1.77-.9-2.98Zm-2.24,9.41c-.32,1.92-.89,5.23-3.59,7.05-1.3,.88-2.59,1.07-3.08,1.13-1.04,.14-2.6,.35-3.88-.59-1.83-1.35-1.63-3.99-1.61-4.21,.01-4.64,.02-9.29,.03-13.93,0-.51,.07-1.69,.92-2.56,1.14-1.17,2.89-.98,3.93-.86,1.66,.18,2.81,.91,3.05,1.07,1.83,1.2,2.58,3,3.23,4.56,.17,.39,.49,1.22,.75,2.33,.21,.89,.72,3.16,.24,6.01Z"/>
  <path class="cls-5" d="M833.82,425.91c-.12,.19-2.24,3.34-5.75,3.19-.31-.01-2.67-.15-4.23-2.06-.92-1.13-1.87-3.27-.96-4.42,.37-.47,.95-.64,1.37-.7,2.27-.61,4.54-1.22,6.81-1.82,1.49-.36,2.62-1.36,2.89-2.61,.31-1.4-.58-2.56-.87-2.94-1.74-2.29-5.09-2.14-5.87-2.1-.83,.04-2.89,.13-4.67,1.59-2.78,2.27-2.72,6.05-2.69,7.59,.03,1.56,.06,5.02,2.77,7.34,2.19,1.87,4.76,1.84,5.22,1.83,4.24-.12,6.57-3.73,6.76-4.04,.28-.27,.24-.71,0-.91-.21-.16-.55-.15-.78,.08Zm-9.01-11.76c1.62-.77,3.55-.41,4.86,.9,.56,.38,.87,1.08,.79,1.77-.08,.69-.55,1.27-1.18,1.46-1.73,.7-3.45,1.41-5.17,2.11-.12,.03-.64,.16-1.15-.17-.51-.33-.79-.98-.71-1.66-.08-1.9,.93-3.65,2.56-4.42Z"/>
  <path class="cls-5" d="M985.37,424.7c-.12,.19-2.24,3.34-5.75,3.19-.31-.01-2.68-.15-4.23-2.06-.92-1.13-1.87-3.27-.96-4.42,.37-.47,.95-.64,1.37-.7,2.27-.61,4.54-1.22,6.81-1.82,1.49-.36,2.62-1.36,2.9-2.61,.31-1.4-.58-2.56-.87-2.94-1.74-2.29-5.09-2.14-5.87-2.1-.83,.04-2.89,.13-4.68,1.59-2.78,2.27-2.72,6.05-2.69,7.59,.03,1.56,.06,5.02,2.77,7.34,2.19,1.87,4.76,1.84,5.22,1.83,4.24-.12,6.57-3.73,6.76-4.04,.28-.27,.24-.71,0-.9-.21-.17-.55-.15-.78,.07Zm-9.01-11.76c1.62-.77,3.55-.41,4.86,.9,.56,.38,.87,1.08,.79,1.77-.08,.69-.54,1.27-1.18,1.46-1.72,.7-3.45,1.41-5.17,2.11-.12,.03-.64,.16-1.15-.17-.51-.33-.79-.98-.71-1.66-.08-1.9,.93-3.65,2.56-4.42Z"/>
  <path class="cls-5" d="M928.14,425.08c-.12,.19-2.24,3.34-5.75,3.19-.31-.01-2.67-.15-4.23-2.06-.92-1.13-1.87-3.27-.96-4.42,.37-.47,.95-.64,1.37-.7,2.27-.61,4.54-1.22,6.81-1.82,1.49-.36,2.62-1.36,2.9-2.61,.31-1.4-.58-2.56-.87-2.94-1.74-2.29-5.09-2.14-5.87-2.1-.83,.04-2.89,.13-4.67,1.59-2.78,2.27-2.72,6.05-2.69,7.59,.03,1.56,.06,5.02,2.77,7.34,2.19,1.87,4.76,1.84,5.22,1.83,4.24-.12,6.57-3.73,6.76-4.04,.28-.27,.24-.71,0-.91-.21-.16-.55-.15-.78,.08Zm-9.01-11.76c1.62-.77,3.55-.41,4.86,.9,.56,.38,.87,1.08,.79,1.77-.08,.69-.54,1.27-1.18,1.46-1.72,.7-3.45,1.41-5.17,2.11-.12,.03-.64,.16-1.15-.17-.51-.33-.79-.98-.71-1.66-.08-1.9,.93-3.65,2.56-4.42Z"/>
  <path class="cls-5" d="M860.49,405.09c-.39-.05-.85-.02-1.17,.2-.74,.51-1.07,1.46-1.29,2.3-.08,.3-.16,.98,.01,1.24,.55,.85,1.82,1.12,2.49,1.22,.6,.09,.91,.13,1.24-.01,.9-.39,1.09-1.67,1.22-2.49,.09-.61,.19-.93-.01-1.24-.37-.57-1.8-1.12-2.49-1.22Z"/>
  <path class="cls-5" d="M860.82,412.24c-.36,0-.68,.28-.73,.66,.02,2.6,.05,5.21,.07,7.81-.75,2.17-1.49,4.33-2.24,6.5-.49,1.03-.34,2.13,.16,2.67,.52,.56,1.23,.67,1.23,.67,.02,0,.04,0,.08,.01,.19,.02,.95,.08,1.56-.47,.56-.51,.61-1.2,.62-1.35,0-5.3-.02-10.59-.03-15.89-.07-.36-.37-.61-.72-.61Z"/>
  <path class="cls-5" d="M850.29,423.1c-2.58-1.54-4.55-2.72-5.76-3.37-.31-.17-1.04-.55-1.32-1.33-.19-.52-.1-1-.05-1.21,.18-.74,.71-1.15,1.03-1.39,.2-.15,.89-.68,1.87-.7,.33,0,.75-.02,1.15,.27,.36,.26,.51,.63,.57,.8,.44,1.13,.87,2.25,1.31,3.38,.27,.31,.71,.38,1.01,.19,.24-.15,.36-.45,.33-.75-.46-1.79-.93-3.59-1.39-5.38-.09-.24-.24-.57-.55-.84-.17-.15-.84-.7-2.59-.43-.57,.09-4.99,.75-6.08,4.1-.39,1.19-.3,2.56,.15,3.35,.1,.18,.38,.65,.92,1.04,.3,.21,.56,.31,.64,.34,.72,.29,3.15,1.34,6.49,2.8,.23,.15,.69,.48,.95,1.09,.41,.98-.03,1.92-.21,2.31-.15,.32-.47,.97-1.21,1.4-.78,.46-1.56,.38-1.9,.34-.22-.02-.71-.09-1.27-.38-.9-.46-1.38-1.18-1.58-1.53-.63-.94-1.26-1.87-1.88-2.81-.21-.36-.65-.45-.91-.26-.2,.14-.29,.42-.22,.7,.6,1.03,1.21,2.05,1.81,3.08,.66,1.12,1.74,2.07,3.3,2.52,.29,.09,2.88,.79,4.88-.93,1.5-1.29,1.75-3.15,1.7-4.01-.01-.28-.04-.81-.35-1.39-.27-.5-.62-.81-.84-.98Z"/>
  <path class="cls-5" d="M965.74,422.2c-2.58-1.54-4.55-2.72-5.76-3.37-.31-.17-1.03-.55-1.32-1.33-.19-.52-.1-1-.05-1.21,.18-.74,.71-1.15,1.03-1.39,.2-.15,.89-.68,1.87-.7,.33,0,.75-.02,1.15,.27,.36,.26,.51,.63,.57,.8,.44,1.13,.87,2.25,1.31,3.38,.27,.31,.71,.38,1.01,.19,.24-.15,.36-.45,.33-.75-.46-1.79-.93-3.59-1.39-5.38-.09-.24-.24-.57-.55-.84-.17-.15-.83-.7-2.59-.43-.57,.09-4.99,.75-6.08,4.1-.39,1.19-.3,2.56,.15,3.35,.1,.18,.38,.65,.92,1.04,.3,.21,.56,.31,.64,.34,.72,.29,3.15,1.34,6.49,2.8,.23,.15,.69,.48,.95,1.09,.42,.98-.03,1.92-.21,2.31-.15,.32-.47,.97-1.21,1.4-.78,.46-1.56,.38-1.91,.34-.21-.02-.71-.09-1.27-.38-.9-.46-1.38-1.18-1.58-1.53-.63-.94-1.26-1.87-1.88-2.81-.21-.36-.65-.45-.92-.26-.2,.14-.29,.42-.22,.7,.6,1.03,1.21,2.05,1.81,3.08,.65,1.12,1.74,2.07,3.3,2.52,.29,.09,2.88,.79,4.88-.93,1.5-1.29,1.75-3.15,1.71-4.01-.01-.28-.04-.81-.35-1.39-.27-.5-.62-.81-.84-.98Z"/>
  <path class="cls-6" d="M649.54,.5V841.39h594.28V.5H649.54Zm377.67,51.62c.35-1.19,.86-2.52,1.95-3.22,.47-.3,1.13-.34,1.69-.24,1,.16,3.04,1,3.55,1.82,.28,.44,.12,.91-.03,1.76-.21,1.17-.53,2.97-1.85,3.49-.48,.19-.92,.11-1.79-.03-.96-.16-2.78-.59-3.55-1.82-.24-.38-.09-1.34,.03-1.76Zm-283.64-6.36c-.14,.27-.59,1.05-1.52,1.48-.98,.46-1.94,.26-2.79,.08,0,0-4.51-.91-8.43-1.02-.35,0-1.03-.02-1.72,.38-.68,.39-1.01,.94-1.13,1.18-.27,9.2-.53,18.41-.8,27.62,0,.3-.04,1.73-1.18,2.83-.7,.67-1.48,.9-1.86,.98-.92-.02-1.84-.04-2.76-.07-.35-.18-.92-.54-1.36-1.2-.99-1.48-.44-3.18-.36-3.42,1.86-6.07,3.72-12.14,5.59-18.2,.07-2.83,.13-5.67,.19-8.5-.13-.25-.46-.77-1.09-1.16-.77-.47-1.53-.46-1.8-.44-2.7,.24-5.4,.48-8.1,.72-.35,.08-1.45,.28-2.61-.3-.31-.15-1.07-.55-1.55-1.45-.74-1.39-.15-2.77-.09-2.91,.12-.28,.5-1.02,1.36-1.52,1.27-.74,2.57-.34,2.78-.27,3.67,.91,7.33,1.82,11,2.74,1.08,.04,2.17,.08,3.25,.12,3.55-.72,7.09-1.43,10.64-2.15,.22-.08,1.88-.66,3.31,.27,.8,.52,1.13,1.26,1.19,1.39,.58,1.35-.05,2.61-.16,2.82Zm20.75,24.78c-.1,.42-.44,1.82-1.26,3.54-.67,1.4-1.18,2.49-2.33,3.55-.18,.17-.88,.78-1.92,1.29-2.8,1.38-6.54,1.26-9.26-.42-.38-.23-1.24-.78-2.05-1.76-.75-.9-1.07-1.69-1.61-2.98-.33-.79-.8-1.95-1.12-3.56-.37-1.84-.35-3.32-.33-3.95,.05-1.35,.25-2.33,.45-3.28,.29-1.39,.6-2.79,1.42-4.42,.4-.79,.96-1.85,1.97-2.75,3.12-2.8,8.03-1.75,9.38-1.4,.94,.25,2.26,.62,3.51,1.72,1.14,.99,1.64,2.07,2.13,3.15,.7,1.52,.92,2.79,1.14,4.05,.13,.76,.34,2.01,.31,3.66-.03,1.75-.32,3.08-.43,3.57Zm397.6,682.09c.65,.4,1.31,.32,1.71,.28,.77-.09,1.33-.43,1.62-.65,1.34-.92,2.68-1.84,4.03-2.76,.23-.06,.47-.12,.7-.19,.14,.17,.28,.34,.42,.51-.09,.22-.17,.44-.26,.66-1.34,1.55-2.68,3.1-4.02,4.65-.26,.21-.68,.51-1.28,.71-.59,.2-1.1,.23-1.43,.22-.85-.03-1.7-.06-2.55-.1-.34-.09-1.29-.4-2.04-1.33-.86-1.07-.87-2.24-.86-2.56,.1-2.95,.2-5.9,.3-8.85l-12.41-.05c.45,.29,.92,.59,1.41,.9,.33,.26,.87,.77,1.26,1.56,.46,.92,.46,1.74,.47,2.17,.02,1.34-.47,4.19-2.87,6.11-3.21,2.57-7.19,1.33-7.64,1.18-2.4-.79-4.04-2.32-5-4.09-.88-1.62-1.76-3.24-2.64-4.87-.1-.43,.06-.87,.38-1.07,.42-.27,1.1-.11,1.41,.46,.93,1.48,1.85,2.97,2.78,4.45,.29,.56,.99,1.69,2.37,2.45,.85,.47,1.63,.61,1.96,.65,.53,.07,1.74,.24,2.98-.43,1.17-.62,1.7-1.62,1.95-2.11,.3-.58,1.04-2.02,.45-3.56-.36-.95-1.06-1.49-1.41-1.73-1.64-.78-3.14-1.5-4.45-2.12l-20.88-.09c-.1,3.1-.21,6.2-.31,9.31-.02,.22-.14,1.29-1.05,2.05-.99,.82-2.19,.69-2.49,.64-.05,0-.09-.02-.12-.02,0,0-1.12-.22-1.91-1.11-.75-.86-.94-2.56-.1-4.13l2.64-6.75-17.01-.07c.96,2.3,1.92,4.6,2.88,6.91,.28,1.59-.5,3.16-1.87,3.83-1.5,.74-3.27,.24-4.2-.89-.67-.81-.74-1.74-.74-2.12,0-2.58,0-5.17,0-7.75l-11.8-.05c.38,2.32,.77,4.63,1.18,7.02,.28,1.62-.51,3.21-1.9,3.9-1.08,.53-2.7,.53-3.83-.49-1.31-1.19-1.08-2.93-1.06-3.08,.34-2.45,.67-4.91,1.01-7.36l-12.43-.05c-.21,1.64-.6,3.13-1.5,4.74-.66,1.18-2.19,3.94-5.51,5.3-2.74,1.13-5.21,.69-5.79,.57-1.64-.33-2.85-1-3.56-1.47-.06-.03-.74-.35-1.42,.03-.48,.27-.78,.78-.79,1.34l-.27,10.86c.01,.42,0,1.84-1.01,3.11-.63,.78-1.37,1.17-1.78,1.35-.33,.14-1.22,.42-2.3,.17-.46-.1-1.28-.29-1.81-1.01-.08-.1-.37-.52-.48-1.55-.13-1.3,.17-2.32,.21-2.46,1.72-6.21,3.44-12.42,5.17-18.63,0-.81,0-1.62,0-2.43l-13.62-.06v.45c-.02,.34-.02,.93,.11,1.69,.24,1.43,.68,1.78,.91,2.84,.11,.52,.5,2.34-.6,3.65-.71,.84-1.89,1.3-2.89,1.18-.46-.06-.9-.23-1.34-.41-1.02-.44-.96-.57-1.49-.73-.84-.26-1.59-.12-2.12-.03-.8,.15-1.27,.4-1.69,.57-1.83,.75-3.73,.33-4.41,.19-1.86-.38-3.11-1.36-3.81-1.91-.65-.52-1.74-1.39-2.57-2.94-.74-1.38-.93-2.67-.99-3.43-.04-.27-.09-.7-.08-1.2l-19.28-.08c-.05,2.09-.08,4.21-.14,6.29-.35,1.98-2.28,3.06-3.75,2.58-1.18-.38-2.03-1.75-1.84-3.27,.6-1.87,1.2-3.75,1.8-5.62l-17.43-.08c-.03,.94-.06,1.88-.09,2.82-.12,.35-.23,.69-.35,1.04-.44,.43-.89,.86-1.33,1.29-.76,.34-1.51,.69-2.27,1.03-1.97,.61-3.95,1.23-5.92,1.84-1.6,.1-3.21,.19-4.81,.29-1.66-.18-3.32-.36-4.97-.54-1.46-.63-2.92-1.26-4.38-1.88-1.11-.77-2.23-1.54-3.34-2.31-.67-1.19-1.34-2.39-2.02-3.58-.02-.04-.04-.08-.05-.12l-174.33-.76,2.95-676,10.72,.05c.06-.48,.11-.96,.17-1.44-.12-2.46-.33-3.3-.51-3.58-.03-.05-.23-.36-.45-.81-.05-.1-.1-.22-.16-.37-.2-.55-.71-1.93-.04-3.2,.67-1.27,2.07-1.6,2.31-1.66,1.22-.27,1.51,.36,3.27,.58,1.24,.15,1.13-.16,5.02-.45,.94-.07,1.68-.11,2.62,.01,.67,.09,1.39,.18,2.25,.58,.55,.26,1.36,.63,1.99,1.47,.82,1.1,.84,2.33,.82,2.82,.04,.17,.17,.31,.33,.34,.21,.04,.44-.1,.5-.34,.37-.69,1.06-1.77,2.24-2.75,.43-.36,1.39-1.09,2.8-1.6,.76-.27,4.31-1.44,7.25,.39,.55,.34,1.4,.88,1.9,1.96,.66,1.44,.25,2.84,.11,3.27-.42,1.63-.84,3.26-1.27,4.9l19.5,.09c1.35-.2,2.7-.39,4.05-.59,.35-.13,1.42-.59,1.94-1.71,.43-.93,.24-1.81,.05-2.71-.13-.6-.29-1.32-.87-2.03-.22-.27-.71-.86-1.55-1.14-.39-.13-.77-.13-1.53-.13-.9,0-1.37,.01-1.88,.28-.44,.23-.73,.56-.89,.78-1.02,1.29-2.04,2.59-3.07,3.88-.39,.56-1.09,.61-1.41,.31-.23-.21-.28-.63-.11-1.01,1.3-1.7,2.6-3.41,3.9-5.11,.12-.14,.31-.34,.57-.53,.78-.58,1.64-.73,3.25-.78,1.93-.06,2.9-.09,3.8,.14,.91,.23,2.21,.55,3.32,1.68,1.36,1.37,1.61,3.08,1.67,3.74-.03,1.66-.06,3.31-.09,4.97l9.44,.04c-.51-1.16-.54-2.96,.02-4.52,1.68-4.71,8-5.49,8.82-5.59,2.52-.31,3.45,.49,3.68,.71,.43,.4,.64,.88,.75,1.22,.59,2.56,1.19,5.13,1.78,7.69,.02,.19-.01,.38-.08,.55l19.76,.09c1.15-1.15,2.29-2.31,3.44-3.46,.48-.57,.58-1.37,.27-2.03-.45-.95-1.51-1.06-1.55-1.06-3.63-.06-7.26-.13-10.89-.19-.86-.13-1.5-.83-1.54-1.59-.05-.92,.78-1.82,1.87-1.8,1.88,.21,3.78,.45,5.7,.7,1.94,.25,3.85,.52,5.74,.8,1.69,.04,3.38,.08,5.07,.12,.34,0,.79,.17,1.03,.55,.29,.47,.09,1.08,.01,1.28-1.91,2.43-3.67,4.67-5.26,6.7l12.14,.05c.33-2.46,1.25-5.5,3.92-7.57,2.6-2.01,5.53-2.06,6.71-2.08,1.11-.02,5.87-.11,8.27,3.2,.4,.56,1.62,2.23,1.12,4.21-.22,.89-.76,1.69-1.5,2.32l11.83,.05c-.77-1.72-1.54-3.44-2.31-5.15-.57-1.49-.12-3.05,.95-3.75,1.07-.7,2.32-.27,2.47-.21,1.49,.54,1.88,2.06,1.91,2.18,.22,2.32,.44,4.64,.66,6.95l8.77,.04c0-.05,.01-.1,.01-.15,.02-.5-.03-.62,.04-.98,.05-.29,.14-.77,.52-1.18,.39-.43,.88-.54,1.05-.58,.33,0,.66,.01,.98,.02,.16,.04,.65,.17,1.03,.61,.37,.43,.44,.9,.48,1.2,.05,.36,0,.48,0,.98,0,.04,0,.06,0,.1l8.81,.04c.29-2.21,.58-4.43,.86-6.64,.03-.12,.47-1.63,1.98-2.11,.14-.05,1.42-.44,2.46,.3,1.04,.74,1.43,2.32,.81,3.78-.77,1.56-1.53,3.13-2.3,4.69l11.98,.05c-.1-.97,.02-2.08,.37-3.08,1.68-4.71,8-5.49,8.82-5.59,2.52-.31,3.45,.49,3.68,.72,.43,.4,.64,.88,.75,1.22,.53,2.27,1.05,4.54,1.58,6.81l13.14,.06c0-.06,0-.12,0-.18-.64-6.47-1.27-12.93-1.91-19.4,.06-1.69,1.53-2.84,2.85-2.64,1.04,.16,1.93,1.15,2.03,2.41-.12,6.6-.24,13.21-.35,19.81l5.28,.02c2.13-2.41,4.26-4.83,6.39-7.24,.45-.31,1.03-.25,1.33,.09,.33,.36,.19,.88,.18,.92-1.78,2.08-3.56,4.16-5.34,6.25l18.58,.08c.04-2.31,.08-4.62,.12-6.93,.09-.54,.56-.93,1.08-.91,.5,.02,.93,.39,1.02,.9-.06,2.32-.11,4.63-.17,6.95l146.34,.64-2.95,676-14.03-.06c-.02,.11-.05,.23-.07,.34-.06,2.65-.12,5.31-.18,7.96,.09,.22,.33,.75,.9,1.1Zm38.82-1.74c-.31,.47-4.11,5.94-10.7,5.89-.71,0-4.71-.1-8-3.11-4.08-3.73-3.95-9.08-3.91-11.51,.04-2.4,.15-8.25,4.59-11.61,2.85-2.16,6.05-2.19,7.34-2.21,1.21-.01,6.4-.06,8.99,3.57,.43,.61,1.74,2.45,1.19,4.6-.5,1.92-2.3,3.42-4.63,3.89-3.55,.82-7.11,1.64-10.67,2.45-.66,.08-1.57,.31-2.17,1.02-1.47,1.73-.11,5.09,1.26,6.89,2.3,3.03,5.97,3.38,6.45,3.42,5.43,.43,8.89-4.33,9.09-4.62,.36-.33,.9-.34,1.22-.07,.38,.32,.41,.99-.04,1.4Z"/>
</svg>